<?xml version="1.0" encoding="UTF-8"?>
<!-- Created by Vectric (http://www.vectric.com/) -->
<svg width="25.00000000in" height="15.00000000in" viewBox="-25.00000000 0.00000000 25.00000000 15.00000000" id="svg2" version="1.1" xmlns="http://www.w3.org/2000/svg" xmlns:xlink="http://www.w3.org/1999/xlink" xmlns:inkscape="http://www.inkscape.org/namespaces/inkscape">
    <g inkscape:groupmode="layer" id="6145fab1-13b9-419b-8589-888dc7a7765e" inkscape:label="Layer 1" style="stroke:#000000;">
        <path style="fill:none;stroke-width:0.010000;stroke-linecap:round;stroke-linejoin:round;stroke-opacity:1;stroke:#000000;" d="M -17.600312,11.944803 L -17.595575,11.952851 C -17.592970,11.957277 -17.581510,11.958669 -17.570109,11.955944 L -17.549380,11.950990 L -17.075164,11.861100 L -17.070544,11.856480 L -17.129737,11.541246 L -17.119367,11.530874 L -16.949070,11.495276 L -16.937933,11.494894 C -16.931808,11.494684 -16.921566,11.516314 -16.915175,11.542961 C -16.908783,11.569607 -16.900221,11.593469 -16.896147,11.595987 L -16.888740,11.600566 L -16.444804,11.500752 L -16.454317,11.454304 C -16.459550,11.428757 -16.461382,11.405406 -16.458389,11.402412 C -16.448253,11.392275 -16.334449,11.374868 -16.327055,11.382324 C -16.323017,11.386396 -16.331470,11.399142 -16.345840,11.410649 C -16.367767,11.428207 -16.373019,11.441872 -16.378517,11.495684 C -16.385028,11.559417 -16.384823,11.560159 -16.344077,11.620168 C -16.295145,11.692233 -16.244334,11.719798 -16.120191,11.741628 L -16.039874,11.755751 L -15.978976,11.719547 C -15.945482,11.699636 -15.915565,11.675718 -15.912492,11.666398 C -15.909419,11.657077 -15.903821,11.649451 -15.900050,11.649451 L -15.893194,11.649451 L -15.839380,11.881367 L -15.824399,11.890628 L -15.651763,11.843125 L -15.644710,11.843125 C -15.640830,11.843125 -15.634007,11.857287 -15.629546,11.874597 C -15.624348,11.894765 -15.614685,11.907042 -15.602642,11.908780 L -15.583850,11.911491 L -15.130787,11.814471 L -15.125726,11.809232 L -15.262911,11.165463 L -15.258779,11.161430 C -15.256507,11.159211 -15.234736,11.154432 -15.210401,11.150810 L -15.166154,11.144225 L -15.109967,11.447045 L -15.097340,11.467478 L -14.673702,11.387655 L -14.646380,11.382060 C -14.620509,11.376761 -14.619401,11.374435 -14.625516,11.338236 C -14.631767,11.301232 -14.631205,11.300201 -14.607960,11.306036 L -14.583946,11.312064 L -14.121805,11.239957 L -14.118864,11.237895 L -14.165538,10.939478 L -14.158337,10.932276 L -13.957204,10.884445 L -13.935593,10.879461 C -13.916736,10.875112 -13.912580,10.880048 -13.902976,10.918194 C -13.896922,10.942238 -13.889218,10.961938 -13.885857,10.961970 L -13.879744,10.962030 L -13.438758,10.870494 L -13.443838,10.857254 C -13.446632,10.849972 -13.451596,10.827269 -13.454868,10.806803 C -13.460723,10.770183 -13.460223,10.769436 -13.423379,10.759768 C -13.326612,10.734374 -13.338749,10.725728 -13.313826,10.837815 L -13.291615,10.937702 L -13.269752,10.960763 L -12.784043,10.840865 L -12.837618,10.628768 L -12.832839,10.621033 C -12.830210,10.616779 -12.819911,10.613299 -12.809952,10.613299 C -12.795850,10.613299 -12.789606,10.624542 -12.781719,10.664138 L -12.771593,10.714977 L -12.720246,10.990962 L -12.691625,10.990962 L -12.214368,10.901467 L -12.201438,10.889283 L -12.277017,10.493580 L -12.274720,10.491283 C -12.273457,10.490019 -12.260904,10.486094 -12.246826,10.482560 C -12.221592,10.476226 -12.221061,10.477143 -12.209492,10.547138 C -12.203037,10.586189 -12.187966,10.673794 -12.176002,10.741814 L -12.154248,10.865487 L -12.146327,10.873408 L -11.667322,10.792447 L -11.667312,10.763868 L -11.736147,10.368162 L -11.723713,10.360477 C -11.709672,10.351798 -11.638528,10.338422 -11.634031,10.343616 L -11.631102,10.346998 L -11.512393,10.997004 L -11.512393,11.003666 C -11.512393,11.007331 -11.502718,11.010329 -11.490894,11.010329 L -11.469394,11.010329 L -10.984702,10.921269 L -10.979825,10.916685 L -11.107120,10.223468 L -11.091208,10.208388 L -10.701920,10.119432 L -10.665172,10.119432 L -10.490898,10.624323 L -10.478541,10.644829 L -10.253679,10.574000 L -10.253679,10.566295 C -10.253679,10.562057 -10.264572,10.526559 -10.277885,10.487411 C -10.291198,10.448263 -10.302091,10.413174 -10.302091,10.409435 C -10.302091,10.405696 -10.283172,10.404770 -10.260050,10.407377 C -10.226373,10.411173 -10.210179,10.407173 -10.178661,10.387274 C -10.157021,10.373612 -10.116985,10.359470 -10.089692,10.355849 C -10.055117,10.351262 -10.019827,10.336313 -9.973316,10.306552 L -9.906562,10.263838 L -9.899988,10.202439 C -9.896372,10.168670 -9.896339,10.131821 -9.899915,10.120552 C -9.903491,10.109284 -9.902628,10.100065 -9.897996,10.100065 L -9.889576,10.100065 L -9.418865,10.014013 L -9.409025,10.004171 L -9.440335,9.835357 L -9.435343,9.830364 C -9.432597,9.827618 -9.426627,9.829438 -9.422075,9.834409 L -9.413800,9.843447 L -9.351904,10.240478 L -9.347065,10.257424 C -9.344374,10.266849 -9.332847,10.274426 -9.321094,10.274496 L -9.299961,10.274621 L -8.806158,10.194222 L -8.801264,10.190393 L -8.878776,9.721934 L -8.878776,9.713634 C -8.878776,9.705469 -8.806050,9.683667 -8.778816,9.683667 C -8.768903,9.683667 -8.761235,9.706184 -8.752200,9.761824 C -8.745220,9.804811 -8.734898,9.846094 -8.729263,9.853564 L -8.719016,9.867147 L -8.235265,9.779260 L -8.230306,9.774300 L -8.268635,9.573124 L -8.254260,9.560638 L -8.089659,9.526156 L -8.079188,9.522191 C -8.073198,9.519922 -8.063363,9.542227 -8.056203,9.574316 C -8.049320,9.605166 -8.040147,9.639770 -8.035818,9.651215 L -8.027948,9.672022 L -7.567136,9.556493 L -7.564908,9.554265 C -7.563683,9.553040 -7.569004,9.528272 -7.576732,9.499227 C -7.594330,9.433092 -7.594587,9.412524 -7.577814,9.412524 C -7.569538,9.412524 -7.560116,9.433717 -7.552560,9.469330 C -7.545931,9.500573 -7.536805,9.532125 -7.532281,9.539446 L -7.524056,9.552756 L -7.027545,9.429232 L -7.033955,9.399090 C -7.051122,9.318365 -7.051917,9.303350 -7.038794,9.307726 L -7.025833,9.312046 L -6.973983,9.559010 L -6.956816,9.575692 L -6.433966,9.467530 L -6.427134,9.462179 L -6.478273,9.218193 L -6.472492,9.208838 C -6.469312,9.203693 -6.459181,9.199484 -6.449977,9.199484 L -6.433243,9.199484 L -6.368528,9.529132 L -6.356417,9.536617 L -5.883035,9.441575 L -5.875050,9.441575 C -5.870658,9.441575 -5.863218,9.451694 -5.858517,9.464061 L -5.849969,9.486547 L -5.315212,9.405635 L -5.307256,9.397677 L -5.363695,9.030019 L -5.363877,9.019251 C -5.364013,9.011160 -5.247244,8.983106 -5.242039,8.989979 L -5.241050,8.991285 L -5.138568,9.407682 L -5.122474,9.439413 L -4.892731,9.381847 L -4.967524,9.070167 L -4.952556,9.056732 L -4.681448,8.994681 L -4.664284,8.989840 C -4.650217,8.985872 -4.647596,8.975956 -4.649760,8.934881 C -4.652373,8.885293 -4.652101,8.884764 -4.623969,8.884764 C -4.599575,8.884764 -4.594311,8.889578 -4.586902,8.918657 C -4.582153,8.937298 -4.575327,8.955613 -4.571735,8.959357 L -4.565202,8.966164 L -4.090821,8.843582 L -4.095278,8.786457 L -3.814872,8.740254 L -3.814872,8.732619 C -3.814872,8.728420 -3.818371,8.724984 -3.822647,8.724984 L -3.830423,8.724984 L -3.866413,8.541915 L -3.881484,8.517526 L -4.145864,8.562444 L -4.160367,8.545836 L -4.630060,6.679722 L -4.613671,6.665366 L -4.231216,6.600061 L -4.231216,6.575005 L -4.270430,6.396062 L -4.278124,6.374189 L -4.652401,6.439065 L -4.691863,6.448660 L -4.806751,5.984506 L -4.841508,5.984506 L -5.281758,6.093728 L -5.290328,6.101432 C -5.295265,6.105871 -5.294055,6.128370 -5.287471,6.154520 C -5.281187,6.179480 -5.278173,6.202031 -5.280773,6.204632 L -5.285501,6.209361 L -5.610340,6.285003 L -5.673586,6.295782 C -5.776864,6.313384 -5.773764,6.314223 -5.782112,6.266416 C -5.786193,6.243045 -5.791157,6.222298 -5.793144,6.220310 L -5.796756,6.216698 L -6.312124,6.294384 L -6.322212,6.294384 C -6.327761,6.294384 -6.332300,6.306995 -6.332300,6.322409 L -6.332300,6.350435 L -6.285431,6.657521 L -6.282239,6.686303 C -6.279185,6.713836 -6.281094,6.715429 -6.326228,6.723040 C -6.352178,6.727416 -6.375467,6.728939 -6.377981,6.726425 L -6.382552,6.721853 L -6.448725,6.405746 L -6.456448,6.384445 L -6.964905,6.483277 L -6.971515,6.503109 L -6.906608,6.825173 L -6.935679,6.830988 C -6.951668,6.834187 -6.966670,6.834883 -6.969017,6.832536 L -6.973284,6.828269 L -7.083954,6.310101 L -7.106724,6.302510 L -7.586173,6.401637 L -7.627711,6.418930 L -7.531840,6.880245 L -7.526527,6.905884 C -7.520833,6.933357 -7.519703,6.932789 -7.611280,6.948492 L -7.646069,6.954458 L -7.758234,6.509171 L -7.772866,6.485493 L -7.921580,6.520174 C -8.003373,6.539249 -8.112769,6.564198 -8.164683,6.575617 L -8.259072,6.596379 L -8.270173,6.614344 L -8.159244,7.049904 L -8.165763,7.056424 C -8.169349,7.060010 -8.175989,7.058877 -8.180519,7.053906 L -8.188756,7.044868 L -8.242305,6.822143 L -8.254260,6.808639 L -8.705780,6.921882 L -8.716745,6.932848 L -8.657253,7.170337 L -8.668770,7.177661 C -8.675104,7.181689 -8.684715,7.185051 -8.690128,7.185133 L -8.699970,7.185281 L -8.756959,6.855460 L -8.767428,6.839228 L -9.251549,6.926454 L -9.262671,6.943669 L -9.198398,7.295131 L -9.202491,7.299226 C -9.204743,7.301477 -9.220815,7.303996 -9.238206,7.304823 L -9.269828,7.306327 L -9.315433,7.035204 L -9.332530,7.018105 L -9.842176,7.100770 L -9.859430,7.116353 L -9.809196,7.431633 L -9.820845,7.439038 C -9.827252,7.443111 -9.841801,7.446510 -9.853176,7.446592 L -9.873858,7.446740 L -9.893899,7.337799 C -9.904921,7.277881 -9.919242,7.199443 -9.925723,7.163493 C -9.934457,7.115042 -9.941458,7.098235 -9.952777,7.098543 L -9.968048,7.098959 L -10.418872,7.181999 L -10.435714,7.199806 L -10.370156,7.555576 L -10.374733,7.562982 C -10.379643,7.570928 -10.504514,7.596765 -10.508946,7.590753 L -10.511600,7.587153 L -10.606054,7.194965 L -10.636135,7.195315 L -11.057622,7.298559 L -11.068999,7.309937 L -10.972816,7.703357 L -11.002857,7.709870 C -11.019627,7.713506 -11.035496,7.712178 -11.038779,7.706865 L -11.044661,7.697347 L -11.098197,7.461265 L -11.110573,7.447795 L -11.310767,7.495158 L -11.316665,7.495158 L -11.408698,7.223872 L -11.430093,7.195505 L -11.647947,7.264586 L -11.647947,7.282814 C -11.647947,7.292840 -11.637180,7.329652 -11.624020,7.364619 C -11.603850,7.418214 -11.602330,7.429053 -11.614338,7.433662 C -11.622172,7.436668 -11.635359,7.436527 -11.643643,7.433348 C -11.661035,7.426673 -11.722386,7.467904 -11.800459,7.538735 C -11.876749,7.607950 -11.895734,7.642235 -11.902104,7.722301 C -11.907344,7.788170 -11.906735,7.790513 -11.874589,7.828073 C -11.856508,7.849200 -11.843166,7.867936 -11.844940,7.869710 L -11.848165,7.872936 L -12.055660,7.911063 L -12.064817,7.916723 C -12.069853,7.919836 -12.073973,7.930494 -12.073973,7.940409 C -12.073973,7.952725 -12.083559,7.960541 -12.104230,7.965082 C -12.134677,7.971770 -12.150948,7.960795 -12.151284,7.933344 C -12.151366,7.926687 -12.157912,7.921240 -12.165831,7.921240 L -12.180228,7.921240 L -12.626486,7.997946 L -12.634689,8.003016 C -12.639201,8.005805 -12.640747,8.027121 -12.638125,8.050386 C -12.633474,8.091653 -12.634123,8.092838 -12.664713,8.098957 C -12.681959,8.102407 -12.703488,8.105229 -12.712556,8.105229 L -12.729044,8.105229 L -12.772917,7.863138 L -12.785631,7.862322 L -13.283870,7.954634 L -13.291650,7.974911 L -13.245403,8.216591 L -13.249235,8.226671 C -13.252338,8.234834 -13.378028,8.270436 -13.402123,8.269976 L -13.408623,8.269852 L -13.489713,7.930764 L -13.502373,7.922939 L -13.976250,8.038094 L -13.991242,8.053087 L -13.906598,8.395739 L -13.933271,8.395739 C -13.958425,8.395739 -13.960830,8.391813 -13.975518,8.326766 C -13.984084,8.288830 -13.991092,8.252047 -13.991092,8.245026 C -13.991092,8.238005 -13.995080,8.229795 -13.999954,8.226782 L -14.008816,8.221305 L -14.431642,8.310467 L -14.448461,8.326375 L -14.432119,8.402213 C -14.423131,8.443924 -14.413874,8.484835 -14.411548,8.493127 C -14.408293,8.504728 -14.422384,8.511809 -14.472680,8.523845 C -14.508630,8.532447 -14.539364,8.538164 -14.540979,8.536549 L -14.543915,8.533613 L -14.559275,8.435141 C -14.574588,8.336963 -14.574710,8.336684 -14.599962,8.341788 L -14.625290,8.346907 L -15.059580,8.415301 L -15.068538,8.424260 L -15.034006,8.638917 L -15.042661,8.647061 C -15.047422,8.651540 -15.069289,8.658123 -15.091255,8.661690 C -15.135943,8.668946 -15.135152,8.670119 -15.148661,8.576538 C -15.152374,8.550816 -15.160311,8.527907 -15.166300,8.525629 L -15.177188,8.521488 L -15.630644,8.608131 L -15.638072,8.615718 C -15.642158,8.619891 -15.639643,8.653809 -15.632485,8.691091 C -15.625326,8.728373 -15.622347,8.761604 -15.625865,8.764937 L -15.632262,8.770998 L -16.200646,8.881188 L -16.206119,8.875713 C -16.209130,8.872702 -16.209777,8.869150 -16.207559,8.867818 C -16.182493,8.852777 -16.096901,8.808545 -16.060724,8.791938 C -16.015962,8.771390 -16.014109,8.768808 -15.990527,8.694148 C -15.977205,8.651972 -15.966308,8.610063 -15.966313,8.601017 C -15.966323,8.578837 -16.017919,8.471061 -16.034969,8.457605 C -16.048859,8.446643 -16.177957,8.405423 -16.198400,8.405423 C -16.204579,8.405423 -16.241931,8.420347 -16.281405,8.438587 C -16.344953,8.467952 -16.354984,8.476273 -16.368964,8.511215 C -16.377647,8.532919 -16.388142,8.550678 -16.392286,8.550678 C -16.396430,8.550678 -16.405125,8.522566 -16.411607,8.488208 C -16.418089,8.453849 -16.428386,8.419409 -16.434489,8.411675 L -16.445585,8.397613 L -16.556932,8.431084 C -16.618174,8.449493 -16.737939,8.481918 -16.823078,8.503138 L -16.977875,8.541720 L -16.990386,8.555520 L -16.885401,8.999615 L -16.889920,9.011393 C -16.894054,9.022167 -16.989191,9.041540 -16.997442,9.033288 L -17.001003,9.029726 L -17.044247,8.836346 L -17.058327,8.820038 L -17.489235,8.917575 L -17.503292,8.933183 L -17.459205,9.126856 L -17.461529,9.129277 C -17.466440,9.134394 -17.574242,9.153634 -17.577790,9.150028 L -17.581532,9.146223 L -17.651307,8.779596 L -17.657668,8.773235 L -18.166336,8.869134 L -18.177714,8.880513 L -18.107545,9.252744 L -18.120643,9.264569 L -18.445560,9.328121 L -18.453330,9.340695 L -18.410469,9.541855 L -18.384980,9.550353 L -18.066899,9.487257 L -18.061140,9.494835 L -17.707742,11.373467 L -17.704299,11.410873 L -18.033501,11.476777 L -18.051198,11.493813 L -18.033623,11.578895 C -18.023957,11.625690 -18.012663,11.673242 -18.008526,11.684565 L -18.001004,11.705153 L -17.675367,11.639509 L -17.655140,11.647272 L -17.600312,11.944803 "/>
        <path style="fill:none;stroke-width:0.010000;stroke-linecap:round;stroke-linejoin:round;stroke-opacity:1;stroke:#000000;" d="M -17.053156,11.284053 C -17.005183,11.274059 -16.982959,11.265003 -16.982959,11.255450 L -16.982959,11.241470 L -17.401857,9.378631 L -17.409359,9.370336 C -17.417568,9.361258 -17.504233,9.370529 -17.523712,9.382569 L -17.535847,9.390070 L -17.186013,11.247579 L -17.180541,11.274209 C -17.174106,11.305525 -17.161071,11.306533 -17.053156,11.284053 "/>
        <path style="fill:none;stroke-width:0.010000;stroke-linecap:round;stroke-linejoin:round;stroke-opacity:1;stroke:#000000;" d="M -14.620449,11.266946 C -14.620449,11.253631 -14.624806,11.242737 -14.630131,11.242737 C -14.635457,11.242737 -14.639814,11.253631 -14.639814,11.266946 C -14.639814,11.280262 -14.635457,11.291156 -14.630131,11.291156 C -14.624806,11.291156 -14.620449,11.280262 -14.620449,11.266946 "/>
        <path style="fill:none;stroke-width:0.010000;stroke-linecap:round;stroke-linejoin:round;stroke-opacity:1;stroke:#000000;" d="M -14.630726,11.211265 C -14.631054,11.199282 -14.636542,11.159323 -14.642922,11.122467 C -14.649839,11.082514 -14.659924,11.053657 -14.667900,11.050998 C -14.677653,11.047747 -14.679832,11.052783 -14.675943,11.069590 C -14.673009,11.082268 -14.665161,11.124233 -14.658502,11.162847 L -14.646395,11.233054 L -14.638263,11.233054 C -14.633791,11.233054 -14.630399,11.223249 -14.630726,11.211265 "/>
        <path style="fill:none;stroke-width:0.010000;stroke-linecap:round;stroke-linejoin:round;stroke-opacity:1;stroke:#000000;" d="M -16.441531,11.161701 C -16.412674,11.155609 -16.387686,11.146293 -16.386000,11.141000 L -16.382936,11.131375 L -16.825622,9.252744 L -16.877028,9.255013 C -16.905301,9.256261 -16.932447,9.261295 -16.937351,9.266201 L -16.946268,9.275119 L -16.526691,11.141059 L -16.521794,11.158005 C -16.516299,11.177025 -16.514504,11.177108 -16.441531,11.161701 "/>
        <path style="fill:none;stroke-width:0.010000;stroke-linecap:round;stroke-linejoin:round;stroke-opacity:1;stroke:#000000;" d="M -15.244965,10.924110 C -15.220620,10.918698 -15.216220,10.913342 -15.217787,10.891023 L -15.219657,10.864393 L -15.572686,9.000968 L -15.575224,8.997557 C -15.576620,8.995680 -15.608542,8.999646 -15.646162,9.006370 C -15.697016,9.015460 -15.714586,9.022545 -15.714656,9.033991 L -15.714751,9.049387 L -15.312942,10.932860 L -15.293477,10.931714 C -15.282771,10.931084 -15.260941,10.927662 -15.244965,10.924110 "/>
        <path style="fill:none;stroke-width:0.010000;stroke-linecap:round;stroke-linejoin:round;stroke-opacity:1;stroke:#000000;" d="M -14.698112,10.794868 L -14.698315,10.773079 L -14.995138,8.889304 L -15.000149,8.884292 C -15.009754,8.874687 -15.085205,8.892170 -15.085205,8.904002 L -15.085205,8.915922 L -14.726956,10.802116 L -14.726956,10.809386 C -14.726956,10.813385 -14.720420,10.816656 -14.712432,10.816656 C -14.703765,10.816656 -14.697990,10.807870 -14.698112,10.794868 "/>
        <path style="fill:none;stroke-width:0.010000;stroke-linecap:round;stroke-linejoin:round;stroke-opacity:1;stroke:#000000;" d="M -14.160534,10.698271 L -13.962045,10.650295 L -13.962045,10.635743 L -14.359627,8.740520 L -14.362761,8.737386 C -14.364485,8.735662 -14.397027,8.741724 -14.435078,8.750857 L -14.504260,8.767463 L -14.504256,8.787928 L -14.204105,10.695043 L -14.204105,10.697747 C -14.204105,10.699235 -14.194302,10.699961 -14.182320,10.699361 L -14.160534,10.698271 "/>
        <path style="fill:none;stroke-width:0.010000;stroke-linecap:round;stroke-linejoin:round;stroke-opacity:1;stroke:#000000;" d="M -13.426480,10.524039 C -13.405909,10.518584 -13.391367,10.509379 -13.393642,10.503251 L -13.397724,10.492253 L -13.850697,8.618526 L -13.870062,8.618643 C -13.880712,8.618708 -13.894329,8.621962 -13.900321,8.625875 L -13.911216,8.632989 L -13.512080,10.535830 L -13.487740,10.534829 C -13.474353,10.534278 -13.446786,10.529423 -13.426480,10.524039 "/>
        <path style="fill:none;stroke-width:0.010000;stroke-linecap:round;stroke-linejoin:round;stroke-opacity:1;stroke:#000000;" d="M -12.839057,10.373628 L -12.839229,10.356682 L -13.195893,8.471221 L -13.200896,8.466218 C -13.203648,8.463466 -13.237695,8.468878 -13.276555,8.478244 L -13.347211,8.495274 L -13.352570,8.499550 L -12.896979,10.380642 L -12.896979,10.385608 C -12.896979,10.388340 -12.883908,10.390575 -12.867932,10.390575 C -12.846657,10.390575 -12.838930,10.386040 -12.839057,10.373628 "/>
        <path style="fill:none;stroke-width:0.010000;stroke-linecap:round;stroke-linejoin:round;stroke-opacity:1;stroke:#000000;" d="M -12.267622,10.229161 L -12.267622,10.203319 L -12.567223,8.448999 L -12.589394,8.326910 L -12.619736,8.332996 C -12.674219,8.343926 -12.685428,8.348904 -12.681216,8.360300 L -12.677065,8.371530 L -12.321869,10.255003 L -12.294745,10.255003 C -12.271811,10.255003 -12.267622,10.251012 -12.267622,10.229161 "/>
        <path style="fill:none;stroke-width:0.010000;stroke-linecap:round;stroke-linejoin:round;stroke-opacity:1;stroke:#000000;" d="M -11.715724,10.122302 C -11.702411,10.119821 -11.688149,10.114574 -11.684032,10.110641 L -11.676546,10.103490 L -11.986531,8.419948 L -12.028191,8.197224 L -12.029841,8.195066 C -12.031769,8.192544 -12.103170,8.211710 -12.102712,8.214626 L -12.102403,8.216591 L -11.777316,10.124274 L -11.758623,10.125543 C -11.748342,10.126241 -11.729037,10.124782 -11.715724,10.122302 "/>
        <path style="fill:none;stroke-width:0.010000;stroke-linecap:round;stroke-linejoin:round;stroke-opacity:1;stroke:#000000;" d="M -9.914794,10.061807 C -9.914794,10.051417 -9.919549,10.020746 -9.925359,9.993648 C -9.933621,9.955120 -9.939425,9.945333 -9.951986,9.948750 C -9.960820,9.951153 -9.990922,9.958291 -10.018880,9.964614 C -10.077115,9.977783 -10.083494,9.989037 -10.038245,9.998783 C -9.990315,10.009106 -9.959078,10.028016 -9.944284,10.055662 C -9.928397,10.085350 -9.914794,10.088184 -9.914794,10.061807 "/>
        <path style="fill:none;stroke-width:0.010000;stroke-linecap:round;stroke-linejoin:round;stroke-opacity:1;stroke:#000000;" d="M -10.398915,10.061330 C -10.398915,10.056004 -10.405451,10.051646 -10.413439,10.051646 C -10.421427,10.051646 -10.427963,10.056004 -10.427963,10.061330 C -10.427963,10.066656 -10.421427,10.071014 -10.413439,10.071014 C -10.405451,10.071014 -10.398915,10.066656 -10.398915,10.061330 "/>
        <path style="fill:none;stroke-width:0.010000;stroke-linecap:round;stroke-linejoin:round;stroke-opacity:1;stroke:#000000;" d="M -16.014717,10.051646 C -16.014717,10.046320 -16.019074,10.041963 -16.024400,10.041963 C -16.029725,10.041963 -16.034082,10.046320 -16.034082,10.051646 C -16.034082,10.056972 -16.029725,10.061330 -16.024400,10.061330 C -16.019074,10.061330 -16.014717,10.056972 -16.014717,10.051646 "/>
        <path style="fill:none;stroke-width:0.010000;stroke-linecap:round;stroke-linejoin:round;stroke-opacity:1;stroke:#000000;" d="M -16.024400,10.012912 C -16.024400,10.007586 -16.028757,10.003228 -16.034082,10.003228 C -16.039407,10.003228 -16.043764,10.007586 -16.043764,10.012912 C -16.043764,10.018238 -16.039407,10.022595 -16.034082,10.022595 C -16.028757,10.022595 -16.024400,10.018238 -16.024400,10.012912 "/>
        <path style="fill:none;stroke-width:0.010000;stroke-linecap:round;stroke-linejoin:round;stroke-opacity:1;stroke:#000000;" d="M -11.049082,9.964067 L -10.977909,9.946402 L -10.971834,9.940284 L -11.337875,8.429632 L -11.429222,8.055400 L -11.463546,8.061811 C -11.482424,8.065337 -11.498817,8.069144 -11.499976,8.070272 L -11.502082,8.072322 L -11.154144,9.967468 L -11.154144,9.975665 C -11.154144,9.987035 -11.131596,9.984546 -11.049082,9.964067 "/>
        <path style="fill:none;stroke-width:0.010000;stroke-linecap:round;stroke-linejoin:round;stroke-opacity:1;stroke:#000000;" d="M -16.034082,9.964493 C -16.034082,9.959167 -16.038439,9.954810 -16.043764,9.954810 C -16.049090,9.954810 -16.053447,9.959167 -16.053447,9.964493 C -16.053447,9.969819 -16.049090,9.974177 -16.043764,9.974177 C -16.038439,9.974177 -16.034082,9.969819 -16.034082,9.964493 "/>
        <path style="fill:none;stroke-width:0.010000;stroke-linecap:round;stroke-linejoin:round;stroke-opacity:1;stroke:#000000;" d="M -16.043764,9.920917 C -16.043764,9.912928 -16.048121,9.906391 -16.053447,9.906391 C -16.058772,9.906391 -16.063129,9.912928 -16.063129,9.920917 C -16.063129,9.928906 -16.058772,9.935442 -16.053447,9.935442 C -16.048121,9.935442 -16.043764,9.928906 -16.043764,9.920917 "/>
        <path style="fill:none;stroke-width:0.010000;stroke-linecap:round;stroke-linejoin:round;stroke-opacity:1;stroke:#000000;" d="M -16.053447,9.882182 C -16.053447,9.874193 -16.057804,9.867657 -16.063129,9.867657 C -16.068455,9.867657 -16.072812,9.874193 -16.072812,9.882182 C -16.072812,9.890171 -16.068455,9.896708 -16.063129,9.896708 C -16.057804,9.896708 -16.053447,9.890171 -16.053447,9.882182 "/>
        <path style="fill:none;stroke-width:0.010000;stroke-linecap:round;stroke-linejoin:round;stroke-opacity:1;stroke:#000000;" d="M -16.063129,9.849975 L -16.063129,9.841978 L -16.209200,9.155907 L -16.214276,9.138961 C -16.217068,9.129640 -16.228240,9.122014 -16.239101,9.122014 C -16.250722,9.122014 -16.257092,9.126996 -16.254579,9.134119 L -16.250309,9.146223 L -16.078309,9.857973 L -16.070719,9.857973 C -16.066545,9.857973 -16.063129,9.854374 -16.063129,9.849975 "/>
        <path style="fill:none;stroke-width:0.010000;stroke-linecap:round;stroke-linejoin:round;stroke-opacity:1;stroke:#000000;" d="M -10.469176,9.830662 L -10.457136,9.823015 L -10.774144,8.516785 L -10.916393,7.940607 L -10.936024,7.940755 C -10.946821,7.940837 -10.961182,7.944413 -10.967938,7.948701 L -10.980222,7.956499 L -10.581890,9.611039 L -10.502785,9.838606 L -10.492000,9.838457 C -10.486069,9.838376 -10.475798,9.834868 -10.469176,9.830662 "/>
        <path style="fill:none;stroke-width:0.010000;stroke-linecap:round;stroke-linejoin:round;stroke-opacity:1;stroke:#000000;" d="M -9.977720,9.700613 L -9.982921,9.678825 L -10.215944,8.400581 L -10.323823,7.809877 L -10.326539,7.806784 C -10.333570,7.798778 -10.447327,7.828292 -10.447327,7.838123 L -10.447327,7.849322 L -10.001475,9.688509 L -9.996212,9.705455 C -9.988441,9.730477 -9.971642,9.726078 -9.977720,9.700613 "/>
        <path style="fill:none;stroke-width:0.010000;stroke-linecap:round;stroke-linejoin:round;stroke-opacity:1;stroke:#000000;" d="M -9.459721,9.587920 L -9.459721,9.568027 L -9.644223,8.439316 L -9.767352,7.687810 L -9.772845,7.682316 C -9.782282,7.672878 -9.827676,7.688579 -9.827214,7.701121 L -9.826775,7.713041 L -9.482882,9.600090 L -9.471302,9.603951 C -9.464821,9.606111 -9.459721,9.599051 -9.459721,9.587920 "/>
        <path style="fill:none;stroke-width:0.010000;stroke-linecap:round;stroke-linejoin:round;stroke-opacity:1;stroke:#000000;" d="M -8.846736,9.463635 C -8.831777,9.461386 -8.817461,9.454133 -8.814923,9.447518 L -8.810308,9.435491 L -9.005461,8.361846 L -9.154725,7.535418 L -9.183772,7.540778 C -9.199748,7.543726 -9.216525,7.549485 -9.221054,7.553577 L -9.229288,7.561016 L -8.926954,9.427050 L -8.922045,9.448838 C -8.917034,9.471083 -8.908033,9.472851 -8.846736,9.463635 "/>
        <path style="fill:none;stroke-width:0.010000;stroke-linecap:round;stroke-linejoin:round;stroke-opacity:1;stroke:#000000;" d="M -8.205848,9.317028 C -8.151920,9.304131 -8.137495,9.296833 -8.135253,9.281313 L -8.132436,9.261806 L -8.579693,7.480633 L -8.589235,7.444234 C -8.597959,7.410957 -8.601028,7.408375 -8.625008,7.414124 C -8.639435,7.417583 -8.652238,7.421162 -8.653458,7.422077 L -8.655677,7.423741 L -8.311890,9.330213 L -8.292757,9.331725 C -8.282234,9.332556 -8.243125,9.325942 -8.205848,9.317028 "/>
        <path style="fill:none;stroke-width:0.010000;stroke-linecap:round;stroke-linejoin:round;stroke-opacity:1;stroke:#000000;" d="M -7.629403,9.177695 L -7.629062,9.165591 L -8.099341,7.291969 L -8.109024,7.295348 C -8.114349,7.297207 -8.118270,7.304795 -8.117738,7.312211 L -8.116770,7.325694 L -7.653950,9.189682 L -7.641847,9.189741 C -7.635190,9.189773 -7.629590,9.184353 -7.629403,9.177695 "/>
        <path style="fill:none;stroke-width:0.010000;stroke-linecap:round;stroke-linejoin:round;stroke-opacity:1;stroke:#000000;" d="M -7.082743,9.073686 L -7.076815,9.064092 L -7.215783,8.400581 L -7.471771,7.170755 L -7.480560,7.171095 C -7.485394,7.171282 -7.511479,7.174857 -7.538527,7.179039 L -7.587706,7.186643 L -7.111735,9.083132 L -7.100203,9.083206 C -7.093861,9.083246 -7.086004,9.078962 -7.082743,9.073686 "/>
        <path style="fill:none;stroke-width:0.010000;stroke-linecap:round;stroke-linejoin:round;stroke-opacity:1;stroke:#000000;" d="M -6.484307,8.945919 L -6.490846,8.913815 L -6.861350,7.064235 L -6.889646,7.067391 C -6.905209,7.069126 -6.919008,7.071612 -6.920310,7.072915 L -6.922679,7.075284 L -6.529332,8.971917 L -6.503550,8.974970 C -6.479124,8.977863 -6.478112,8.976334 -6.484307,8.945919 "/>
        <path style="fill:none;stroke-width:0.010000;stroke-linecap:round;stroke-linejoin:round;stroke-opacity:1;stroke:#000000;" d="M -16.261221,8.888962 C -16.257710,8.883282 -16.256373,8.877099 -16.258248,8.875224 C -16.260124,8.873348 -16.273631,8.868808 -16.288265,8.865134 C -16.310985,8.859432 -16.314872,8.861439 -16.314872,8.878873 C -16.314872,8.894064 -16.308822,8.899290 -16.291237,8.899290 C -16.278238,8.899290 -16.264731,8.894642 -16.261221,8.888962 "/>
        <path style="fill:none;stroke-width:0.010000;stroke-linecap:round;stroke-linejoin:round;stroke-opacity:1;stroke:#000000;" d="M -5.342166,8.773796 C -5.322137,8.769911 -5.303959,8.764941 -5.301769,8.762751 L -5.297787,8.758769 L -5.521978,7.858296 L -5.525319,7.854261 C -5.527156,7.852042 -5.531172,7.852739 -5.534243,7.855810 L -5.539826,7.861394 L -5.402749,8.768560 L -5.402768,8.775823 C -5.402791,8.784073 -5.393562,8.783764 -5.342166,8.773796 "/>
        <path style="fill:none;stroke-width:0.010000;stroke-linecap:round;stroke-linejoin:round;stroke-opacity:1;stroke:#000000;" d="M -5.974051,8.691091 C -5.974051,8.683102 -5.978408,8.676566 -5.983733,8.676566 C -5.989059,8.676566 -5.993416,8.683102 -5.993416,8.691091 C -5.993416,8.699080 -5.989059,8.705617 -5.983733,8.705617 C -5.978408,8.705617 -5.974051,8.699080 -5.974051,8.691091 "/>
        <path style="fill:none;stroke-width:0.010000;stroke-linecap:round;stroke-linejoin:round;stroke-opacity:1;stroke:#000000;" d="M -5.983733,8.637831 C -5.983733,8.627179 -5.988090,8.618464 -5.993416,8.618464 C -5.998741,8.618464 -6.003098,8.627179 -6.003098,8.637831 C -6.003098,8.648483 -5.998741,8.657198 -5.993416,8.657198 C -5.988090,8.657198 -5.983733,8.648483 -5.983733,8.637831 "/>
        <path style="fill:none;stroke-width:0.010000;stroke-linecap:round;stroke-linejoin:round;stroke-opacity:1;stroke:#000000;" d="M -4.657242,8.646368 L -4.657242,8.634312 L -4.801274,8.081020 L -5.131680,6.769931 L -5.131680,6.763855 C -5.131680,6.760514 -5.137334,6.759188 -5.144245,6.760910 L -5.156809,6.764041 L -4.719546,8.652356 L -4.688394,8.655391 C -4.668369,8.657342 -4.657242,8.654119 -4.657242,8.646368 "/>
        <path style="fill:none;stroke-width:0.010000;stroke-linecap:round;stroke-linejoin:round;stroke-opacity:1;stroke:#000000;" d="M -5.993443,8.591834 L -5.993471,8.574887 L -6.030023,8.352163 L -6.240317,6.952468 L -6.283888,6.958753 C -6.307852,6.962210 -6.328824,6.966208 -6.330491,6.967637 L -6.333524,6.970236 L -6.008696,8.608780 L -6.001056,8.608780 C -5.996854,8.608780 -5.993428,8.601154 -5.993443,8.591834 "/>
        <path style="fill:none;stroke-width:0.010000;stroke-linecap:round;stroke-linejoin:round;stroke-opacity:1;stroke:#000000;" d="M -23.577765,1.576552 C -23.585276,1.587328 -23.590037,1.602152 -23.588344,1.609495 L -23.585266,1.622845 L -23.524776,1.685211 C -23.437916,1.774765 -23.401850,1.801338 -23.347424,1.815881 C -23.296241,1.829558 -23.288793,1.837423 -23.306460,1.859142 L -23.317504,1.872720 L -23.302391,2.008346 C -23.286691,2.149239 -23.274261,2.347032 -23.268846,2.542146 C -23.267112,2.604594 -23.262005,2.697315 -23.257495,2.748193 L -23.249297,2.840699 L -23.095243,3.510667 L -22.968262,3.819230 L -22.819624,4.073118 C -22.672230,4.324882 -22.669275,4.329080 -22.466367,4.574861 L -22.261748,4.822716 L -21.990370,5.053216 C -21.751225,5.256338 -21.682100,5.308627 -21.408387,5.493450 C -21.237555,5.608803 -20.960531,5.785934 -20.792778,5.887074 L -20.487773,6.070965 L -20.098147,6.295411 L -19.997299,6.356290 L -20.011174,6.388203 C -20.018805,6.405756 -20.023259,6.446439 -20.021071,6.478611 L -20.017094,6.537105 L -19.924897,7.499501 L -19.919337,7.523621 C -19.912047,7.555241 -19.853376,7.590141 -19.787842,7.601841 C -19.726765,7.612744 -19.674330,7.595799 -19.613666,7.545552 C -19.591866,7.527496 -19.574276,7.511657 -19.574576,7.510354 L -19.575123,7.507985 L -19.665750,6.557906 L -19.658905,6.546962 L -18.382054,7.273278 L -17.963424,7.510890 L -17.952171,7.496135 C -17.943079,7.484213 -17.937709,7.484153 -17.924211,7.495820 L -17.907505,7.510261 L -16.983762,6.484712 L -16.942563,6.437110 C -16.912117,6.401932 -16.902766,6.383430 -16.906734,6.366219 C -16.909687,6.353409 -16.907857,6.341950 -16.902667,6.340753 C -16.897477,6.339557 -16.895678,6.327964 -16.898669,6.314991 C -16.901660,6.302018 -16.908353,6.292382 -16.913543,6.293579 C -16.918733,6.294775 -16.923985,6.291389 -16.925215,6.286054 L -16.927452,6.276354 L -17.135837,5.942403 L -17.334814,5.630566 C -17.444251,5.459055 -17.623194,5.182842 -17.732467,5.016758 L -17.931143,4.714788 L -18.090201,4.478207 C -18.177683,4.348087 -18.317451,4.143326 -18.400796,4.023183 L -18.552334,3.804741 L -18.754865,3.533469 C -18.866257,3.384269 -19.058611,3.142892 -19.182319,2.997076 C -19.401365,2.738884 -19.414062,2.725910 -19.668223,2.500578 L -19.929204,2.269199 L -20.518601,1.928446 L -20.789673,1.830286 C -21.016410,1.748180 -21.095743,1.724850 -21.274724,1.687640 L -21.488702,1.643155 L -21.591841,1.626836 L -21.775536,1.616217 C -21.994246,1.603575 -22.218284,1.616294 -22.572655,1.661472 L -22.818831,1.692857 L -23.127583,1.721462 L -23.258672,1.675887 C -23.330770,1.650820 -23.426577,1.613251 -23.471576,1.592400 L -23.553391,1.554488 L -23.558750,1.555723 C -23.561698,1.556403 -23.570254,1.565776 -23.577765,1.576552 "/>
        <path style="fill:none;stroke-width:0.010000;stroke-linecap:round;stroke-linejoin:round;stroke-opacity:1;stroke:#000000;" d="M -11.506064,7.827375 C -11.486987,7.823647 -11.486043,7.820255 -11.494974,7.787538 C -11.500343,7.767869 -11.506524,7.749894 -11.508710,7.747596 C -11.514134,7.741890 -11.580170,7.806631 -11.580170,7.817655 C -11.580170,7.822506 -11.573635,7.823967 -11.565647,7.820901 C -11.557659,7.817835 -11.551123,7.819548 -11.551123,7.824707 C -11.551123,7.834227 -11.543458,7.834681 -11.506064,7.827375 "/>
        <path style="fill:none;stroke-width:0.010000;stroke-linecap:round;stroke-linejoin:round;stroke-opacity:1;stroke:#000000;" d="M -5.528660,7.824403 C -5.528660,7.819077 -5.533017,7.814719 -5.538342,7.814719 C -5.543667,7.814719 -5.548024,7.819077 -5.548024,7.824403 C -5.548024,7.829729 -5.543667,7.834087 -5.538342,7.834087 C -5.533017,7.834087 -5.528660,7.829729 -5.528660,7.824403 "/>
        <path style="fill:none;stroke-width:0.010000;stroke-linecap:round;stroke-linejoin:round;stroke-opacity:1;stroke:#000000;" d="M -5.191708,6.525692 L -5.196726,6.512266 L -5.241999,6.323435 L -5.249775,6.323435 C -5.254052,6.323435 -5.257354,6.328882 -5.257112,6.335539 L -5.256672,6.347644 L -5.213255,6.530261 L -5.199972,6.534690 C -5.191743,6.537433 -5.188599,6.534010 -5.191708,6.525692 "/>
        <path style="fill:none;stroke-width:0.010000;stroke-linecap:round;stroke-linejoin:round;stroke-opacity:1;stroke:#000000;" d="M -5.247869,6.299225 C -5.247869,6.291236 -5.252227,6.284700 -5.257552,6.284700 C -5.262877,6.284700 -5.267234,6.291236 -5.267234,6.299225 C -5.267234,6.307214 -5.262877,6.313751 -5.257552,6.313751 C -5.252227,6.313751 -5.247869,6.307214 -5.247869,6.299225 "/>
        <path style="fill:none;stroke-width:0.010000;stroke-linecap:round;stroke-linejoin:round;stroke-opacity:1;stroke:#000000;" d="M -5.257552,6.265333 C -5.257552,6.260007 -5.261909,6.255649 -5.267234,6.255649 C -5.272560,6.255649 -5.276917,6.260007 -5.276917,6.265333 C -5.276917,6.270659 -5.272560,6.275016 -5.267234,6.275016 C -5.261909,6.275016 -5.257552,6.270659 -5.257552,6.265333 "/>
        <path style="fill:none;stroke-width:0.010000;stroke-linecap:round;stroke-linejoin:round;stroke-opacity:1;stroke:#000000;" d="M -5.267234,6.226598 C -5.267234,6.221272 -5.271591,6.216914 -5.276917,6.216914 C -5.282242,6.216914 -5.286599,6.221272 -5.286599,6.226598 C -5.286599,6.231924 -5.282242,6.236282 -5.276917,6.236282 C -5.271591,6.236282 -5.267234,6.231924 -5.267234,6.226598 "/>
    </g>
    <g inkscape:groupmode="layer" id="938c0338-e92f-4572-b81e-7ee45a44026e" inkscape:label="Boat" style="stroke:#000000;"/>
</svg>
