<?xml version="1.0" encoding="UTF-8"?>
<!-- Created by Vectric (http://www.vectric.com/) -->
<svg width="10.00000000in" height="16.00000000in" viewBox="0.00000000 0.00000000 10.00000000 16.00000000" id="svg2" version="1.1" xmlns="http://www.w3.org/2000/svg" xmlns:xlink="http://www.w3.org/1999/xlink" xmlns:inkscape="http://www.inkscape.org/namespaces/inkscape">
    <g inkscape:groupmode="layer" id="108371a5-82c1-4973-bb0c-3ee76f513a57" inkscape:label="Layer 1" style="stroke:#000000;">
        <path style="fill:none;stroke-width:0.010000;stroke-linecap:round;stroke-linejoin:round;stroke-opacity:1;stroke:#000000;" d="M 0.500000,14.162108 L 9.500000,14.162108 L 9.500000,2.162108 L 0.500000,2.162108 L 0.500000,14.162108 "/>
    </g>
    <g inkscape:groupmode="layer" id="6a979f04-1f9b-4d0e-b50c-1a333384e8d1" inkscape:label="JonasWedding.svg" style="stroke:#000000;">
        <path style="fill:none;stroke-width:0.010000;stroke-linecap:round;stroke-linejoin:round;stroke-opacity:1;stroke:#000000;" d="M 1.393530,11.568457 C 1.424008,11.592432 1.447275,11.645622 1.447500,11.691841 C 1.447600,11.712444 1.438368,11.766726 1.426983,11.812473 C 1.388491,11.967135 1.403390,12.065983 1.477642,12.148568 C 1.529649,12.206412 1.588914,12.234089 1.661532,12.234446 C 1.716296,12.234714 1.758943,12.222745 1.790979,12.198113 C 1.803726,12.188314 1.797147,12.186793 1.741063,12.186576 C 1.675748,12.186323 1.625597,12.170658 1.584953,12.137820 C 1.575216,12.129952 1.587296,12.132981 1.614070,12.145121 C 1.647864,12.160442 1.673966,12.165853 1.713903,12.165820 C 1.783401,12.165760 1.802583,12.155117 1.758576,12.141035 C 1.666978,12.111723 1.570197,12.017629 1.548596,11.936885 C 1.543753,11.918781 1.535878,11.862222 1.531096,11.811201 C 1.518075,11.672256 1.488199,11.604829 1.423557,11.568499 C 1.382039,11.545165 1.363886,11.545139 1.393530,11.568457 "/>
        <path style="fill:none;stroke-width:0.010000;stroke-linecap:round;stroke-linejoin:round;stroke-opacity:1;stroke:#000000;" d="M 8.575958,11.569154 C 8.510181,11.609343 8.481998,11.672882 8.469152,11.809949 C 8.464305,11.861659 8.456378,11.918781 8.451533,11.936885 C 8.429933,12.017629 8.333153,12.111723 8.241555,12.141035 C 8.197547,12.155117 8.216729,12.165760 8.286226,12.165820 C 8.326164,12.165853 8.352266,12.160442 8.386060,12.145121 C 8.412834,12.132981 8.424913,12.129952 8.415177,12.137820 C 8.374534,12.170658 8.324381,12.186323 8.259067,12.186576 C 8.202983,12.186793 8.196405,12.188314 8.209150,12.198113 C 8.241188,12.222745 8.283835,12.234714 8.338598,12.234446 C 8.411216,12.234089 8.470481,12.206412 8.522488,12.148568 C 8.596740,12.065983 8.611639,11.967135 8.573148,11.812473 C 8.561762,11.766726 8.552530,11.712444 8.552630,11.691841 C 8.552856,11.645622 8.576122,11.592432 8.606601,11.568457 C 8.636719,11.544766 8.615066,11.545258 8.575958,11.569154 "/>
        <path style="fill:none;stroke-width:0.010000;stroke-linecap:round;stroke-linejoin:round;stroke-opacity:1;stroke:#000000;" d="M 1.792938,11.666071 C 1.699814,11.689688 1.645349,11.762822 1.645296,11.864320 C 1.645227,11.995128 1.764127,12.111021 1.922516,12.134530 L 1.980919,12.143198 L 1.932685,12.172225 C 1.727305,12.295822 1.619266,12.469909 1.648369,12.630355 C 1.670067,12.749978 1.777975,12.840045 1.899322,12.839818 C 2.017186,12.839597 2.117902,12.730876 2.101509,12.621562 C 2.090494,12.548106 2.032971,12.490351 1.965214,12.484718 C 1.888573,12.478347 1.857859,12.519848 1.903288,12.568397 C 1.943344,12.611202 1.955166,12.633871 1.955166,12.667875 C 1.955166,12.734198 1.871115,12.783842 1.792388,12.764018 C 1.676788,12.734910 1.638193,12.594341 1.706477,12.451118 C 1.759835,12.339202 1.917779,12.212433 2.083470,12.148536 C 2.206743,12.100996 2.309450,12.082040 2.470969,12.077017 C 2.640996,12.071729 2.744772,12.083720 2.916452,12.128492 C 3.022113,12.156048 3.195431,12.213860 3.268290,12.245852 L 3.304385,12.261701 L 3.278009,12.281171 L 3.251631,12.300643 L 3.148904,12.266480 C 2.850854,12.167368 2.617720,12.199141 2.458308,12.360602 C 2.336155,12.484325 2.308857,12.621996 2.378173,12.764739 C 2.410583,12.831480 2.480895,12.899742 2.539916,12.921766 C 2.566397,12.931647 2.602427,12.939732 2.619982,12.939732 C 2.638874,12.939732 2.667672,12.948548 2.690550,12.961335 C 2.769267,13.005330 2.874278,12.995947 2.930314,12.939910 C 2.984028,12.886197 2.971436,12.865916 2.896436,12.885350 C 2.869301,12.892382 2.834996,12.898135 2.820203,12.898135 L 2.793306,12.898135 L 2.826543,12.862077 C 2.844822,12.842246 2.864681,12.811360 2.870671,12.793442 C 2.893723,12.724500 2.877268,12.638882 2.839939,12.633535 C 2.824962,12.631390 2.818608,12.640188 2.798957,12.690272 C 2.772634,12.757366 2.726950,12.814380 2.682680,12.835388 C 2.654370,12.848822 2.651809,12.848818 2.636914,12.835340 C 2.608747,12.809849 2.585063,12.749387 2.585063,12.702971 C 2.585063,12.619612 2.654244,12.513012 2.741666,12.461665 C 2.825472,12.412440 2.958609,12.389306 3.060667,12.406234 C 3.089871,12.411078 3.115289,12.416564 3.117152,12.418427 C 3.119014,12.420289 3.111280,12.439227 3.099963,12.460511 C 3.048892,12.556561 3.052784,12.653522 3.110268,12.717226 C 3.126995,12.735763 3.152727,12.755972 3.167451,12.762136 C 3.204738,12.777747 3.256660,12.776493 3.270642,12.759646 C 3.280578,12.747674 3.278871,12.743745 3.257102,12.728468 C 3.198069,12.687040 3.155596,12.635153 3.145181,12.591740 C 3.134370,12.546673 3.139246,12.492569 3.157260,12.457719 L 3.167746,12.437431 L 3.212449,12.482677 C 3.237035,12.507562 3.272071,12.555520 3.290306,12.589249 C 3.308541,12.622980 3.328574,12.652539 3.334823,12.654937 C 3.364729,12.666413 3.365306,12.605800 3.335839,12.548040 C 3.316812,12.510744 3.254184,12.454287 3.210417,12.434978 C 3.192652,12.427140 3.178136,12.418640 3.178159,12.416089 C 3.178181,12.413538 3.187132,12.400287 3.198050,12.386641 L 3.217899,12.361832 L 3.433031,12.467003 C 3.690178,12.592714 3.787634,12.632061 3.994561,12.693719 C 4.160950,12.743298 4.265057,12.760298 4.396909,12.759424 C 4.595754,12.758106 4.721774,12.711854 4.835691,12.598385 C 4.910263,12.524108 4.943897,12.461658 4.959896,12.367773 C 4.994041,12.167403 4.869720,12.002601 4.662540,11.973593 C 4.578121,11.961773 4.491116,11.977290 4.405228,12.019483 C 4.369328,12.037121 4.328618,12.050000 4.299083,12.053065 C 4.224669,12.060790 4.144956,12.090793 4.075488,12.137226 C 4.019136,12.174891 4.010232,12.178412 3.996572,12.168424 C 3.969427,12.148575 3.877052,12.124535 3.807354,12.119184 C 3.674032,12.108944 3.518300,12.143741 3.384950,12.213563 L 3.313083,12.251192 L 3.192042,12.200751 C 2.762325,12.021671 2.419699,11.987426 2.109075,12.092510 C 2.020304,12.122541 2.002739,12.125869 1.950551,12.122551 C 1.774345,12.111347 1.641105,11.953159 1.683895,11.805966 C 1.716029,11.695429 1.847483,11.646944 1.912933,11.721488 C 1.933911,11.745379 1.938479,11.757713 1.938263,11.789865 C 1.937869,11.848273 1.907791,11.877264 1.836883,11.887585 C 1.784509,11.895207 1.772451,11.910030 1.794482,11.939710 C 1.855072,12.021328 1.984314,11.981733 2.014208,11.872391 C 2.026109,11.828861 2.013910,11.775681 1.982610,11.734645 C 1.946529,11.687340 1.848630,11.651947 1.792938,11.666071 "/>
        <path style="fill:none;stroke-width:0.010000;stroke-linecap:round;stroke-linejoin:round;stroke-opacity:1;stroke:#000000;" d="M 4.049574,12.277711 C 4.071906,12.310704 4.076612,12.325571 4.076612,12.363114 C 4.076612,12.402263 4.073238,12.411945 4.052294,12.432889 C 4.020840,12.464343 3.984251,12.465435 3.954622,12.435806 C 3.922765,12.403949 3.929490,12.341651 3.971640,12.278169 C 3.988685,12.252498 4.007109,12.232904 4.012583,12.234629 C 4.018057,12.236354 4.034703,12.255739 4.049574,12.277711 "/>
        <path style="fill:none;stroke-width:0.010000;stroke-linecap:round;stroke-linejoin:round;stroke-opacity:1;stroke:#000000;" d="M 2.968403,12.278970 C 3.033284,12.292233 3.140977,12.326099 3.176910,12.344540 L 3.196501,12.354594 L 3.164431,12.379974 L 3.132360,12.405354 L 3.078284,12.394016 C 2.869124,12.350165 2.668586,12.430723 2.593682,12.588686 C 2.557672,12.664625 2.553731,12.764056 2.583641,12.841998 C 2.591914,12.863559 2.551364,12.860966 2.500086,12.836653 C 2.446076,12.811044 2.401660,12.762893 2.384688,12.711546 C 2.326366,12.535107 2.461979,12.338198 2.683113,12.278235 C 2.740583,12.262651 2.890466,12.263037 2.968403,12.278970 "/>
        <path style="fill:none;stroke-width:0.010000;stroke-linecap:round;stroke-linejoin:round;stroke-opacity:1;stroke:#000000;" d="M 4.650650,12.016779 C 4.754264,12.033435 4.828514,12.080913 4.869919,12.156987 C 4.946150,12.297049 4.894095,12.480587 4.749338,12.582127 C 4.614405,12.676777 4.430490,12.703601 4.209722,12.660827 C 4.039512,12.627848 3.754614,12.532878 3.563239,12.445325 C 3.356227,12.350618 3.285048,12.317329 3.281091,12.313372 C 3.278836,12.311118 3.288856,12.300825 3.303358,12.290500 L 3.329723,12.271725 L 3.393270,12.298615 C 3.482671,12.336442 3.493127,12.337917 3.417300,12.302002 C 3.381838,12.285208 3.352825,12.268408 3.352825,12.264672 C 3.352825,12.246892 3.507621,12.187541 3.601059,12.169497 C 3.717020,12.147104 3.861965,12.156941 3.945929,12.192900 C 3.985750,12.209954 3.985776,12.209992 3.969873,12.227518 C 3.892337,12.312962 3.876788,12.413182 3.932433,12.468827 C 4.011006,12.547401 4.141771,12.457010 4.121973,12.337808 C 4.114594,12.293378 4.097853,12.260252 4.065281,12.225635 L 4.039175,12.197888 L 4.067646,12.173916 C 4.123912,12.126541 4.262796,12.066196 4.315559,12.066196 C 4.321513,12.066196 4.309922,12.086408 4.289799,12.111113 C 4.182324,12.243064 4.210288,12.432252 4.346652,12.495752 C 4.468064,12.552288 4.601893,12.478017 4.603698,12.353099 C 4.604993,12.263549 4.521230,12.192704 4.447506,12.220995 C 4.427473,12.228682 4.431789,12.255482 4.455570,12.271064 C 4.518238,12.312126 4.512849,12.404521 4.445933,12.436274 C 4.408589,12.453995 4.369041,12.451976 4.326364,12.430169 C 4.271660,12.402217 4.256323,12.376007 4.252701,12.304287 C 4.248530,12.221667 4.269569,12.173414 4.336979,12.111004 C 4.382705,12.068670 4.389852,12.064898 4.416233,12.069178 C 4.453694,12.075258 4.554768,12.124028 4.593370,12.154651 C 4.609910,12.167772 4.652598,12.203778 4.688233,12.234663 C 4.773111,12.308231 4.804939,12.308845 4.770491,12.236250 C 4.738029,12.167844 4.627471,12.099256 4.501944,12.069650 C 4.464785,12.060887 4.434373,12.051013 4.434363,12.047710 C 4.434344,12.041069 4.507489,12.018957 4.546658,12.013764 C 4.591287,12.007844 4.595904,12.007978 4.650650,12.016779 "/>
        <path style="fill:none;stroke-width:0.010000;stroke-linecap:round;stroke-linejoin:round;stroke-opacity:1;stroke:#000000;" d="M 8.123998,11.669813 C 8.042649,11.696442 8.003846,11.733134 7.986188,11.800126 C 7.949961,11.937557 8.124729,12.048714 8.205648,11.939710 C 8.227679,11.910030 8.215622,11.895207 8.163247,11.887585 C 8.092339,11.877264 8.062261,11.848273 8.061868,11.789865 C 8.061651,11.757713 8.066220,11.745379 8.087197,11.721488 C 8.152647,11.646944 8.284101,11.695429 8.316235,11.805966 C 8.359146,11.953575 8.225869,12.111272 8.048589,12.122649 C 7.995775,12.126038 7.979315,12.123067 7.905537,12.096831 C 7.594004,11.986045 7.241323,12.020272 6.799996,12.204123 L 6.687031,12.251184 L 6.615172,12.213559 C 6.481830,12.143741 6.326095,12.108945 6.192776,12.119184 C 6.123078,12.124535 6.030703,12.148575 6.003558,12.168424 C 5.989898,12.178412 5.980994,12.174891 5.924642,12.137226 C 5.855174,12.090793 5.775461,12.060790 5.701047,12.053065 C 5.671513,12.050000 5.630802,12.037121 5.594902,12.019483 C 5.508994,11.977280 5.421956,11.961757 5.337892,11.973644 C 5.122267,12.004138 4.999664,12.177028 5.044382,12.387541 C 5.062680,12.473678 5.093496,12.527569 5.165520,12.599391 C 5.278408,12.711963 5.405904,12.758599 5.603221,12.759499 C 5.726415,12.760061 5.800988,12.749327 5.948476,12.709806 C 6.158975,12.653401 6.298006,12.598840 6.567047,12.467056 L 6.782128,12.361703 L 6.802029,12.386577 C 6.812975,12.400256 6.821949,12.413538 6.821971,12.416089 C 6.821994,12.418640 6.807478,12.427140 6.789713,12.434978 C 6.745946,12.454287 6.683318,12.510744 6.664291,12.548040 C 6.634825,12.605800 6.635401,12.666413 6.665307,12.654937 C 6.671556,12.652539 6.691589,12.622980 6.709824,12.589249 C 6.728059,12.555520 6.763095,12.507562 6.787681,12.482677 L 6.832384,12.437431 L 6.842870,12.457719 C 6.860884,12.492569 6.865760,12.546673 6.854948,12.591740 C 6.844534,12.635153 6.802061,12.687040 6.743029,12.728468 C 6.721259,12.743745 6.719552,12.747674 6.729488,12.759646 C 6.743470,12.776493 6.795392,12.777747 6.832680,12.762136 C 6.847403,12.755972 6.873136,12.735763 6.889862,12.717226 C 6.947346,12.653522 6.951238,12.556561 6.900167,12.460511 C 6.888851,12.439227 6.881115,12.420289 6.882978,12.418427 C 6.884841,12.416564 6.910259,12.411078 6.939463,12.406234 C 7.041521,12.389306 7.174658,12.412440 7.258464,12.461665 C 7.345887,12.513012 7.415067,12.619612 7.415067,12.702971 C 7.415067,12.749387 7.391383,12.809849 7.363215,12.835340 C 7.348321,12.848818 7.345760,12.848822 7.317451,12.835388 C 7.273180,12.814380 7.227496,12.757366 7.201172,12.690272 C 7.181523,12.640188 7.175168,12.631390 7.160191,12.633535 C 7.119114,12.639418 7.105141,12.738286 7.135685,12.806922 C 7.144776,12.827348 7.164734,12.856227 7.180038,12.871096 L 7.207864,12.898135 L 7.180447,12.898135 C 7.165368,12.898135 7.130828,12.892382 7.103694,12.885350 C 7.028695,12.865916 7.016102,12.886197 7.069817,12.939910 C 7.125853,12.995947 7.230863,13.005330 7.309579,12.961335 C 7.332459,12.948548 7.361255,12.939732 7.380148,12.939732 C 7.538776,12.939732 7.687904,12.734908 7.654237,12.563280 C 7.638625,12.483684 7.606934,12.426551 7.541822,12.360602 C 7.382211,12.198939 7.149651,12.167244 6.851227,12.266480 L 6.748499,12.300643 L 6.722148,12.281171 L 6.695798,12.261701 L 6.740188,12.242185 C 6.818979,12.207542 7.048106,12.134712 7.146469,12.113044 C 7.300019,12.079222 7.378230,12.071933 7.533321,12.076991 C 7.690366,12.082113 7.795118,12.101664 7.916660,12.148536 C 8.082352,12.212433 8.240294,12.339202 8.293653,12.451118 C 8.343998,12.556714 8.337642,12.667469 8.277979,12.724284 C 8.216839,12.782505 8.128787,12.783956 8.072505,12.727674 C 8.027218,12.682388 8.034447,12.635075 8.096842,12.568397 C 8.142271,12.519848 8.111558,12.478347 8.034916,12.484718 C 7.940480,12.492569 7.875892,12.595583 7.903526,12.694279 C 7.934966,12.806572 8.069842,12.868291 8.187054,12.824019 C 8.380033,12.751132 8.412694,12.520577 8.257100,12.329569 C 8.215843,12.278922 8.139509,12.215592 8.067445,12.172225 L 8.019211,12.143198 L 8.077614,12.134530 C 8.236003,12.111021 8.354903,11.995128 8.354834,11.864320 C 8.354819,11.834664 8.348841,11.798203 8.340874,11.779175 C 8.304659,11.692680 8.206050,11.642955 8.123998,11.669813 "/>
        <path style="fill:none;stroke-width:0.010000;stroke-linecap:round;stroke-linejoin:round;stroke-opacity:1;stroke:#000000;" d="M 6.028852,12.278714 C 6.070630,12.341636 6.077249,12.404065 6.045508,12.435806 C 6.015878,12.465435 5.979290,12.464343 5.947836,12.432889 C 5.927263,12.412316 5.923518,12.401982 5.923518,12.365786 C 5.923518,12.342256 5.927732,12.314826 5.932881,12.304832 C 5.948244,12.275016 5.982033,12.232584 5.990411,12.232584 C 5.994708,12.232584 6.012006,12.253342 6.028852,12.278714 "/>
        <path style="fill:none;stroke-width:0.010000;stroke-linecap:round;stroke-linejoin:round;stroke-opacity:1;stroke:#000000;" d="M 7.355883,12.288985 C 7.508326,12.344322 7.617390,12.471769 7.626979,12.605769 C 7.634617,12.712529 7.589764,12.794112 7.500044,12.836653 C 7.448766,12.860966 7.408215,12.863559 7.416489,12.841998 C 7.446399,12.764056 7.442457,12.664625 7.406448,12.588686 C 7.331544,12.430723 7.131006,12.350165 6.921846,12.394016 L 6.867770,12.405354 L 6.835700,12.379974 L 6.803630,12.354594 L 6.823221,12.344540 C 6.856230,12.327599 6.964404,12.292688 7.025838,12.279148 C 7.110784,12.260427 7.292098,12.265832 7.355883,12.288985 "/>
        <path style="fill:none;stroke-width:0.010000;stroke-linecap:round;stroke-linejoin:round;stroke-opacity:1;stroke:#000000;" d="M 5.522107,12.029441 C 5.546130,12.036184 5.565776,12.044405 5.565767,12.047710 C 5.565757,12.051013 5.535345,12.060887 5.498186,12.069650 C 5.372659,12.099256 5.262101,12.167844 5.229640,12.236250 C 5.195191,12.308845 5.227019,12.308231 5.311897,12.234663 C 5.347532,12.203778 5.390220,12.167772 5.406760,12.154651 C 5.445363,12.124028 5.546436,12.075258 5.583898,12.069178 C 5.610278,12.064898 5.617425,12.068670 5.663151,12.111004 C 5.730561,12.173414 5.751601,12.221667 5.747428,12.304287 C 5.743807,12.376007 5.728470,12.402217 5.673766,12.430169 C 5.631089,12.451976 5.591541,12.453995 5.554196,12.436274 C 5.487281,12.404521 5.481892,12.312126 5.544561,12.271064 C 5.568341,12.255482 5.572657,12.228682 5.552625,12.220995 C 5.478901,12.192704 5.395137,12.263549 5.396432,12.353099 C 5.398237,12.478017 5.532066,12.552288 5.653478,12.495752 C 5.730640,12.459821 5.776795,12.382595 5.775251,12.292002 C 5.774026,12.220117 5.754263,12.165050 5.710330,12.111113 C 5.690208,12.086408 5.678617,12.066196 5.684572,12.066196 C 5.737333,12.066196 5.876218,12.126541 5.932484,12.173916 L 5.960955,12.197888 L 5.934848,12.225635 C 5.862676,12.302342 5.856343,12.409082 5.920617,12.465515 C 5.968502,12.507559 6.027634,12.508890 6.067697,12.468827 C 6.123343,12.413182 6.107793,12.312962 6.030258,12.227518 C 6.014354,12.209992 6.014380,12.209954 6.054201,12.192900 C 6.138166,12.156941 6.283111,12.147104 6.399072,12.169497 C 6.492510,12.187541 6.647306,12.246892 6.647306,12.264672 C 6.647306,12.268408 6.618291,12.285208 6.582830,12.302002 C 6.507003,12.337917 6.517460,12.336442 6.606860,12.298615 L 6.670407,12.271725 L 6.696773,12.290500 C 6.711274,12.300825 6.721293,12.311118 6.719039,12.313372 C 6.715082,12.317329 6.643903,12.350618 6.436891,12.445325 C 6.304209,12.506027 6.140564,12.566194 5.987861,12.610420 C 5.825974,12.657305 5.742164,12.673353 5.628016,12.679320 C 5.351965,12.693755 5.138140,12.559950 5.099854,12.348811 C 5.076761,12.221463 5.133512,12.103839 5.244119,12.049800 C 5.330251,12.007719 5.421045,12.001071 5.522107,12.029441 "/>
        <path style="fill:none;stroke-width:0.010000;stroke-linecap:round;stroke-linejoin:round;stroke-opacity:1;stroke:#000000;" d="M 1.304000,12.135511 C 1.292499,12.164402 1.297979,12.224543 1.315513,12.261844 C 1.348712,12.332473 1.418835,12.373648 1.505918,12.373648 C 1.561409,12.373648 1.616416,12.355621 1.637057,12.330672 C 1.646322,12.319473 1.643374,12.318782 1.612099,12.324832 C 1.543200,12.338158 1.539163,12.332502 1.605395,12.315440 C 1.658723,12.301703 1.635670,12.293272 1.526606,12.286625 C 1.383891,12.277928 1.327145,12.242286 1.314725,12.153549 C 1.311237,12.128633 1.308542,12.124102 1.304000,12.135511 "/>
        <path style="fill:none;stroke-width:0.010000;stroke-linecap:round;stroke-linejoin:round;stroke-opacity:1;stroke:#000000;" d="M 8.685685,12.148256 C 8.685474,12.194486 8.654742,12.238568 8.606965,12.261168 C 8.574310,12.276616 8.544523,12.282298 8.473525,12.286625 C 8.364460,12.293272 8.341407,12.301703 8.394735,12.315440 C 8.460968,12.332502 8.456930,12.338158 8.388031,12.324832 C 8.356756,12.318782 8.353807,12.319473 8.363073,12.330672 C 8.383714,12.355621 8.438721,12.373648 8.494212,12.373648 C 8.581296,12.373648 8.651418,12.332473 8.684617,12.261844 C 8.703125,12.222470 8.707995,12.154595 8.693877,12.132751 C 8.687788,12.123328 8.685782,12.127127 8.685685,12.148256 "/>
        <path style="fill:none;stroke-width:0.010000;stroke-linecap:round;stroke-linejoin:round;stroke-opacity:1;stroke:#000000;" d="M 2.631158,10.781037 L 2.631158,10.799782 C 2.603592,10.799782 2.584387,10.807317 2.573544,10.822386 C 2.562701,10.837456 2.557280,10.864287 2.557280,10.902880 L 2.557280,11.499968 C 2.557280,11.555836 2.542486,11.599575 2.512898,11.631184 C 2.483310,11.662794 2.444442,11.678598 2.396292,11.678598 C 2.349613,11.678598 2.314145,11.659302 2.289886,11.620709 L 2.305875,11.609682 C 2.320577,11.629163 2.340057,11.638903 2.364315,11.638903 C 2.395925,11.638903 2.421745,11.624936 2.441777,11.597002 C 2.461808,11.569068 2.471824,11.529924 2.471824,11.479569 L 2.471824,10.902880 C 2.471824,10.863920 2.466495,10.836997 2.455836,10.822111 C 2.445177,10.807225 2.425697,10.799782 2.397395,10.799782 L 2.397395,10.781037 L 2.631158,10.781037 "/>
        <path style="fill:none;stroke-width:0.010000;stroke-linecap:round;stroke-linejoin:round;stroke-opacity:1;stroke:#000000;" d="M 3.132315,11.229266 C 3.132315,11.289545 3.111456,11.339807 3.069739,11.380054 C 3.028022,11.420301 2.975922,11.440425 2.913438,11.440425 C 2.850954,11.440425 2.798853,11.420301 2.757136,11.380054 C 2.715419,11.339807 2.694561,11.289545 2.694561,11.229266 C 2.694561,11.168253 2.715327,11.117622 2.756861,11.077375 C 2.798394,11.037129 2.850586,11.017005 2.913438,11.017005 C 2.976289,11.017005 3.028481,11.037129 3.070015,11.077375 C 3.111548,11.117622 3.132315,11.168253 3.132315,11.229266 "/>
        <path style="fill:none;stroke-width:0.010000;stroke-linecap:round;stroke-linejoin:round;stroke-opacity:1;stroke:#000000;" d="M 3.049064,11.229542 C 3.049064,11.172491 3.036935,11.126481 3.012677,11.091512 C 2.988418,11.056543 2.955339,11.039058 2.913438,11.039058 C 2.871537,11.039058 2.838457,11.056174 2.814199,11.090405 C 2.789940,11.124636 2.777811,11.171015 2.777811,11.229542 C 2.777811,11.286966 2.789848,11.332794 2.813923,11.367025 C 2.837998,11.401256 2.871169,11.418372 2.913438,11.418372 C 2.955706,11.418372 2.988878,11.401071 3.012952,11.366469 C 3.037027,11.331868 3.049064,11.286225 3.049064,11.229542 "/>
        <path style="fill:none;stroke-width:0.010000;stroke-linecap:round;stroke-linejoin:round;stroke-opacity:1;stroke:#000000;" d="M 3.326933,11.017005 L 3.326933,11.096948 C 3.373613,11.043653 3.421762,11.017005 3.471381,11.017005 C 3.509974,11.017005 3.542135,11.030164 3.567864,11.056481 C 3.593592,11.082798 3.606457,11.117487 3.606457,11.160548 L 3.606457,11.341091 C 3.606457,11.368698 3.611051,11.386917 3.620240,11.395750 C 3.629429,11.404583 3.647439,11.408999 3.674270,11.408999 L 3.674270,11.427744 L 3.460906,11.427744 L 3.460906,11.408999 C 3.487370,11.408999 3.505472,11.405593 3.515212,11.398782 C 3.524952,11.391971 3.529822,11.378811 3.529822,11.359302 L 3.529822,11.150021 C 3.529822,11.122042 3.521460,11.099769 3.504737,11.083203 C 3.488013,11.066637 3.466603,11.058355 3.440507,11.058355 C 3.403017,11.058355 3.365159,11.084451 3.326933,11.136643 L 3.326933,11.332209 C 3.326933,11.365358 3.331216,11.386443 3.339782,11.395466 C 3.348348,11.404488 3.366302,11.408999 3.393644,11.408999 L 3.393644,11.427744 L 3.183037,11.427744 L 3.183037,11.408999 C 3.213544,11.408999 3.232289,11.404115 3.239272,11.394346 C 3.246256,11.384577 3.249748,11.363839 3.249748,11.332132 L 3.249748,11.106501 C 3.249748,11.082536 3.245521,11.066774 3.237067,11.059216 C 3.228613,11.051658 3.210603,11.047879 3.183037,11.047879 L 3.183037,11.029134 L 3.307637,11.017005 L 3.326933,11.017005 "/>
        <path style="fill:none;stroke-width:0.010000;stroke-linecap:round;stroke-linejoin:round;stroke-opacity:1;stroke:#000000;" d="M 3.836912,11.440425 C 3.805670,11.440425 3.778838,11.430041 3.756418,11.409275 C 3.733997,11.388508 3.722787,11.363423 3.722787,11.334018 C 3.722787,11.306085 3.732435,11.283021 3.751731,11.264827 C 3.771028,11.246633 3.810264,11.229266 3.869440,11.212726 C 3.906563,11.202435 3.931556,11.193614 3.944420,11.186263 L 3.944420,11.156491 C 3.944420,11.127454 3.936334,11.104023 3.920162,11.086197 C 3.903990,11.068370 3.882304,11.059457 3.855105,11.059457 C 3.830479,11.059457 3.808610,11.067176 3.789497,11.082613 C 3.770385,11.098050 3.756969,11.119001 3.749250,11.145464 L 3.728851,11.139951 C 3.736937,11.102828 3.754488,11.073057 3.781503,11.050636 C 3.808518,11.028215 3.840219,11.017005 3.876607,11.017005 C 3.919611,11.017005 3.954436,11.029961 3.981084,11.055874 C 4.007731,11.081786 4.021055,11.117714 4.021055,11.163658 L 4.021055,11.335121 C 4.021055,11.359380 4.022617,11.375828 4.025741,11.384465 C 4.028865,11.393102 4.034838,11.397421 4.043659,11.397421 C 4.049540,11.397421 4.054318,11.394940 4.057994,11.389978 C 4.061669,11.385016 4.065896,11.374633 4.070674,11.358828 L 4.089971,11.358828 C 4.088133,11.383822 4.080323,11.403670 4.066539,11.418372 C 4.052756,11.433074 4.034654,11.440425 4.012234,11.440425 C 3.979522,11.440425 3.956917,11.421496 3.944420,11.383638 C 3.924573,11.405324 3.906930,11.420209 3.891493,11.428296 C 3.876056,11.436382 3.857862,11.440425 3.836912,11.440425 "/>
        <path style="fill:none;stroke-width:0.010000;stroke-linecap:round;stroke-linejoin:round;stroke-opacity:1;stroke:#000000;" d="M 3.944420,11.346699 L 3.944420,11.211072 C 3.933026,11.215851 3.916486,11.221915 3.894801,11.229266 C 3.854738,11.242866 3.829101,11.256373 3.817891,11.269789 C 3.806680,11.283204 3.801075,11.301306 3.801075,11.324095 C 3.801075,11.343942 3.807048,11.361125 3.818993,11.375644 C 3.830939,11.390162 3.845181,11.397421 3.861721,11.397421 C 3.876791,11.397421 3.892596,11.392551 3.909135,11.382811 C 3.925675,11.373071 3.937437,11.361034 3.944420,11.346699 "/>
        <path style="fill:none;stroke-width:0.010000;stroke-linecap:round;stroke-linejoin:round;stroke-opacity:1;stroke:#000000;" d="M 4.397612,11.017005 L 4.397612,11.139951 L 4.375007,11.139951 C 4.371332,11.109077 4.360305,11.084543 4.341928,11.066349 C 4.323550,11.048155 4.301313,11.039058 4.275217,11.039058 C 4.255369,11.039058 4.239381,11.044020 4.227252,11.053944 C 4.215122,11.063868 4.209058,11.077100 4.209058,11.093640 C 4.209058,11.109812 4.214663,11.124055 4.225873,11.136368 C 4.237084,11.148681 4.261434,11.163474 4.298924,11.180749 C 4.347441,11.202803 4.379510,11.223937 4.395131,11.244152 C 4.410752,11.264367 4.418562,11.288626 4.418562,11.316927 C 4.418562,11.350375 4.406065,11.379319 4.381072,11.403761 C 4.356078,11.428204 4.326490,11.440425 4.292308,11.440425 C 4.274666,11.440425 4.251326,11.433993 4.222290,11.421128 C 4.206485,11.414145 4.196010,11.410653 4.190864,11.410653 C 4.183880,11.410653 4.178000,11.413226 4.173221,11.418372 C 4.168443,11.423517 4.165687,11.429950 4.164951,11.437668 L 4.145655,11.437668 L 4.145655,11.301490 L 4.164951,11.301490 C 4.171935,11.337309 4.187372,11.365744 4.211263,11.386795 C 4.235154,11.407846 4.262536,11.418372 4.293411,11.418372 C 4.313259,11.418372 4.329890,11.411746 4.343306,11.398494 C 4.356722,11.385242 4.363429,11.368858 4.363429,11.349344 C 4.363429,11.330570 4.357249,11.314280 4.344887,11.300474 C 4.332525,11.286667 4.305775,11.270731 4.264638,11.252663 C 4.218356,11.232379 4.187873,11.213410 4.173191,11.195756 C 4.158509,11.178102 4.151168,11.156770 4.151168,11.131759 C 4.151168,11.100494 4.163206,11.073552 4.187280,11.050933 C 4.211355,11.028314 4.239932,11.017005 4.273012,11.017005 C 4.288449,11.017005 4.305172,11.020681 4.323183,11.028032 C 4.336047,11.033177 4.346522,11.035750 4.354608,11.035750 C 4.365267,11.035750 4.373170,11.029502 4.378315,11.017005 L 4.397612,11.017005 "/>
        <path style="fill:none;stroke-width:0.010000;stroke-linecap:round;stroke-linejoin:round;stroke-opacity:1;stroke:#000000;" d="M 4.825442,10.959116 C 4.825442,10.916112 4.839868,10.880735 4.868721,10.852985 C 4.897574,10.825235 4.934237,10.811360 4.978711,10.811360 C 5.014731,10.811360 5.045422,10.822846 5.070783,10.845818 C 5.096144,10.868790 5.108824,10.896448 5.108824,10.928793 C 5.108824,10.983558 5.070048,11.031340 4.992494,11.072138 C 5.037703,11.111098 5.093020,11.170458 5.158444,11.250217 C 5.190053,11.196187 5.205858,11.151161 5.205858,11.115141 C 5.205858,11.094926 5.202458,11.080867 5.195659,11.072965 C 5.188859,11.065062 5.176454,11.060560 5.158444,11.059457 L 5.158444,11.040712 L 5.342587,11.040712 L 5.342587,11.059457 C 5.313918,11.059457 5.294438,11.063500 5.284147,11.071587 C 5.273855,11.079673 5.264666,11.089964 5.256580,11.102461 C 5.248494,11.114958 5.238386,11.136643 5.226257,11.167518 C 5.209350,11.211991 5.192442,11.247092 5.175535,11.272821 C 5.217436,11.325749 5.246932,11.359747 5.264023,11.374817 C 5.281114,11.389886 5.295541,11.397421 5.307302,11.397421 C 5.320534,11.397421 5.335236,11.389886 5.351409,11.374817 L 5.366294,11.386946 C 5.340566,11.424804 5.306384,11.443733 5.263748,11.443733 C 5.245370,11.443733 5.227819,11.439046 5.211096,11.429674 C 5.194372,11.420301 5.173330,11.401097 5.147969,11.372060 C 5.137677,11.360298 5.129959,11.351845 5.124813,11.346699 C 5.071518,11.411388 5.009034,11.443733 4.937362,11.443733 C 4.887007,11.443733 4.844279,11.428204 4.809178,11.397146 C 4.774077,11.366087 4.756526,11.328138 4.756526,11.283296 C 4.756526,11.250217 4.768747,11.217872 4.793189,11.186263 C 4.817632,11.154653 4.852457,11.126352 4.897666,11.101358 C 4.849517,11.056517 4.825442,11.009103 4.825442,10.959116 "/>
        <path style="fill:none;stroke-width:0.010000;stroke-linecap:round;stroke-linejoin:round;stroke-opacity:1;stroke:#000000;" d="M 4.880575,10.923279 C 4.880575,10.942392 4.889212,10.964170 4.906487,10.988612 C 4.923762,11.013054 4.946734,11.036302 4.975403,11.058355 C 5.025023,11.029686 5.049832,10.989071 5.049832,10.936511 C 5.049832,10.909312 5.041930,10.887076 5.026125,10.869801 C 5.010321,10.852526 4.989738,10.843888 4.964377,10.843888 C 4.940118,10.843888 4.920087,10.851331 4.904282,10.866217 C 4.888477,10.881103 4.880575,10.900124 4.880575,10.923279 "/>
        <path style="fill:none;stroke-width:0.010000;stroke-linecap:round;stroke-linejoin:round;stroke-opacity:1;stroke:#000000;" d="M 4.834263,11.243601 C 4.834263,11.281459 4.849700,11.316008 4.880575,11.347250 C 4.911449,11.378492 4.945815,11.394113 4.983673,11.394113 C 5.006829,11.394113 5.028147,11.388784 5.047627,11.378125 C 5.067107,11.367466 5.087874,11.349823 5.109927,11.325197 C 5.039357,11.238087 4.974300,11.169172 4.914757,11.118449 C 4.890866,11.131314 4.871478,11.149324 4.856592,11.172479 C 4.841706,11.195635 4.834263,11.219342 4.834263,11.243601 "/>
        <path style="fill:none;stroke-width:0.010000;stroke-linecap:round;stroke-linejoin:round;stroke-opacity:1;stroke:#000000;" d="M 6.022512,11.427744 L 6.022512,11.408999 C 6.059589,11.408999 6.078127,11.396100 6.078127,11.370303 C 6.078127,11.362929 6.076473,11.354636 6.073165,11.345424 L 6.013088,11.165864 L 5.805470,11.165864 L 5.761338,11.295727 C 5.750311,11.328514 5.744798,11.352273 5.744798,11.367003 C 5.744798,11.394265 5.761838,11.408264 5.795917,11.408999 L 5.795917,11.427744 L 5.628864,11.427744 L 5.628864,11.408999 C 5.652778,11.405685 5.671358,11.397766 5.684604,11.385240 C 5.697851,11.372715 5.711279,11.346742 5.724890,11.307322 L 5.903727,10.773870 L 5.970291,10.773870 L 6.158061,11.331081 C 6.169099,11.363868 6.180595,11.385051 6.192549,11.394630 C 6.204503,11.404209 6.223724,11.408999 6.250211,11.408999 L 6.250211,11.427744 L 6.022512,11.427744 "/>
        <path style="fill:none;stroke-width:0.010000;stroke-linecap:round;stroke-linejoin:round;stroke-opacity:1;stroke:#000000;" d="M 5.817444,11.126168 L 5.999804,11.126168 L 5.908112,10.852158 L 5.817444,11.126168 "/>
        <path style="fill:none;stroke-width:0.010000;stroke-linecap:round;stroke-linejoin:round;stroke-opacity:1;stroke:#000000;" d="M 6.429943,11.017005 L 6.429943,11.096948 C 6.476622,11.043653 6.524772,11.017005 6.574391,11.017005 C 6.612984,11.017005 6.645145,11.030164 6.670874,11.056481 C 6.696602,11.082798 6.709466,11.117487 6.709466,11.160548 L 6.709466,11.341091 C 6.709466,11.368698 6.714061,11.386917 6.723250,11.395750 C 6.732438,11.404583 6.750448,11.408999 6.777280,11.408999 L 6.777280,11.427744 L 6.563916,11.427744 L 6.563916,11.408999 C 6.590380,11.408999 6.608482,11.405593 6.618222,11.398782 C 6.627962,11.391971 6.632832,11.378811 6.632832,11.359302 L 6.632832,11.150021 C 6.632832,11.122042 6.624470,11.099769 6.607746,11.083203 C 6.591023,11.066637 6.569613,11.058355 6.543517,11.058355 C 6.506027,11.058355 6.468169,11.084451 6.429943,11.136643 L 6.429943,11.332209 C 6.429943,11.365358 6.434226,11.386443 6.442792,11.395466 C 6.451358,11.404488 6.469312,11.408999 6.496654,11.408999 L 6.496654,11.427744 L 6.286047,11.427744 L 6.286047,11.408999 C 6.316554,11.408999 6.335299,11.404115 6.342282,11.394346 C 6.349266,11.384577 6.352757,11.363839 6.352757,11.332132 L 6.352757,11.106501 C 6.352757,11.082536 6.348531,11.066774 6.340077,11.059216 C 6.331623,11.051658 6.313613,11.047879 6.286047,11.047879 L 6.286047,11.029134 L 6.410647,11.017005 L 6.429943,11.017005 "/>
        <path style="fill:none;stroke-width:0.010000;stroke-linecap:round;stroke-linejoin:round;stroke-opacity:1;stroke:#000000;" d="M 6.947089,11.017005 L 6.947089,11.096948 C 6.993768,11.043653 7.041917,11.017005 7.091537,11.017005 C 7.130129,11.017005 7.162290,11.030164 7.188019,11.056481 C 7.213747,11.082798 7.226612,11.117487 7.226612,11.160548 L 7.226612,11.341091 C 7.226612,11.368698 7.231206,11.386917 7.240395,11.395750 C 7.249584,11.404583 7.267594,11.408999 7.294425,11.408999 L 7.294425,11.427744 L 7.081061,11.427744 L 7.081061,11.408999 C 7.107525,11.408999 7.125627,11.405593 7.135367,11.398782 C 7.145107,11.391971 7.149977,11.378811 7.149977,11.359302 L 7.149977,11.150021 C 7.149977,11.122042 7.141615,11.099769 7.124892,11.083203 C 7.108168,11.066637 7.086758,11.058355 7.060662,11.058355 C 7.023172,11.058355 6.985314,11.084451 6.947089,11.136643 L 6.947089,11.332209 C 6.947089,11.365358 6.951371,11.386443 6.959937,11.395466 C 6.968503,11.404488 6.986457,11.408999 7.013799,11.408999 L 7.013799,11.427744 L 6.803192,11.427744 L 6.803192,11.408999 C 6.833699,11.408999 6.852444,11.404115 6.859428,11.394346 C 6.866411,11.384577 6.869903,11.363839 6.869903,11.332132 L 6.869903,11.106501 C 6.869903,11.082536 6.865676,11.066774 6.857222,11.059216 C 6.848769,11.051658 6.830759,11.047879 6.803192,11.047879 L 6.803192,11.029134 L 6.927792,11.017005 L 6.947089,11.017005 "/>
        <path style="fill:none;stroke-width:0.010000;stroke-linecap:round;stroke-linejoin:round;stroke-opacity:1;stroke:#000000;" d="M 7.457067,11.440425 C 7.425825,11.440425 7.398994,11.430041 7.376573,11.409275 C 7.354152,11.388508 7.342942,11.363423 7.342942,11.334018 C 7.342942,11.306085 7.352590,11.283021 7.371887,11.264827 C 7.391183,11.246633 7.430419,11.229266 7.489595,11.212726 C 7.526718,11.202435 7.551711,11.193614 7.564576,11.186263 L 7.564576,11.156491 C 7.564576,11.127454 7.556489,11.104023 7.540317,11.086197 C 7.524145,11.068370 7.502459,11.059457 7.475261,11.059457 C 7.450635,11.059457 7.428765,11.067176 7.409653,11.082613 C 7.390540,11.098050 7.377124,11.119001 7.369406,11.145464 L 7.349007,11.139951 C 7.357093,11.102828 7.374643,11.073057 7.401658,11.050636 C 7.428673,11.028215 7.460375,11.017005 7.496762,11.017005 C 7.539766,11.017005 7.574591,11.029961 7.601239,11.055874 C 7.627886,11.081786 7.641210,11.117714 7.641210,11.163658 L 7.641210,11.335121 C 7.641210,11.359380 7.642772,11.375828 7.645896,11.384465 C 7.649021,11.393102 7.654993,11.397421 7.663815,11.397421 C 7.669695,11.397421 7.674474,11.394940 7.678149,11.389978 C 7.681825,11.385016 7.686051,11.374633 7.690830,11.358828 L 7.710126,11.358828 C 7.708288,11.383822 7.700478,11.403670 7.686695,11.418372 C 7.672912,11.433074 7.654810,11.440425 7.632389,11.440425 C 7.599677,11.440425 7.577072,11.421496 7.564576,11.383638 C 7.544728,11.405324 7.527085,11.420209 7.511648,11.428296 C 7.496211,11.436382 7.478017,11.440425 7.457067,11.440425 "/>
        <path style="fill:none;stroke-width:0.010000;stroke-linecap:round;stroke-linejoin:round;stroke-opacity:1;stroke:#000000;" d="M 7.564576,11.346699 L 7.564576,11.211072 C 7.553182,11.215851 7.536642,11.221915 7.514956,11.229266 C 7.474893,11.242866 7.449256,11.256373 7.438046,11.269789 C 7.426836,11.283204 7.421230,11.301306 7.421230,11.324095 C 7.421230,11.343942 7.427203,11.361125 7.439149,11.375644 C 7.451094,11.390162 7.465337,11.397421 7.481876,11.397421 C 7.496946,11.397421 7.512751,11.392551 7.529291,11.382811 C 7.545830,11.373071 7.557592,11.361034 7.564576,11.346699 "/>
    </g>
    <g inkscape:groupmode="layer" id="b379b212-48b4-4029-9439-29dbe5aecb25" inkscape:label="Lightburn.svg" style="stroke:#000000;">
        <path style="fill:none;stroke-width:0.010000;stroke-linecap:round;stroke-linejoin:round;stroke-opacity:1;stroke:#000000;" d="M 4.061457,13.211555 L 4.085134,13.211555 C 4.075049,13.220186 4.064800,13.243772 4.054386,13.282315 C 4.043972,13.320858 4.038765,13.350623 4.038765,13.371611 C 4.038765,13.386518 4.041835,13.396816 4.047973,13.402504 C 4.050604,13.405054 4.053893,13.406329 4.057839,13.406329 C 4.061785,13.406329 4.065951,13.405054 4.070336,13.402504 L 4.072309,13.405152 C 4.069240,13.409075 4.063759,13.412459 4.055866,13.415303 C 4.047973,13.418147 4.040190,13.419569 4.032517,13.419569 C 4.021116,13.419569 4.013333,13.415940 4.009168,13.408683 C 4.005002,13.401426 4.002591,13.391716 4.001933,13.379555 C 4.001933,13.369552 4.003358,13.356606 4.006208,13.340718 L 3.930899,13.340718 C 3.898232,13.371709 3.872581,13.397110 3.853946,13.416921 L 3.821060,13.416921 C 3.841669,13.400052 3.873678,13.372396 3.917087,13.333951 C 3.972993,13.284130 4.009716,13.249608 4.027255,13.230385 C 4.031640,13.225678 4.034929,13.222392 4.037121,13.220529 C 4.039313,13.218666 4.042657,13.216704 4.047151,13.214645 C 4.051646,13.212585 4.056414,13.211555 4.061457,13.211555 "/>
        <path style="fill:none;stroke-width:0.010000;stroke-linecap:round;stroke-linejoin:round;stroke-opacity:1;stroke:#000000;" d="M 4.027584,13.253040 C 4.002591,13.274028 3.975186,13.298350 3.945369,13.326007 L 4.008510,13.326007 C 4.012456,13.306589 4.018814,13.282266 4.027584,13.253040 "/>
        <path style="fill:none;stroke-width:0.010000;stroke-linecap:round;stroke-linejoin:round;stroke-opacity:1;stroke:#000000;" d="M 4.331450,13.318357 C 4.329258,13.312081 4.324106,13.308942 4.315994,13.308942 C 4.301524,13.308942 4.287438,13.318014 4.273736,13.336158 C 4.260033,13.354301 4.253182,13.370434 4.253182,13.384557 C 4.253182,13.390441 4.255813,13.393383 4.261074,13.393383 C 4.266775,13.393383 4.273461,13.390196 4.281135,13.383821 C 4.288808,13.377447 4.295714,13.369944 4.301853,13.361313 C 4.321585,13.334049 4.331450,13.319730 4.331450,13.318357 "/>
        <path style="fill:none;stroke-width:0.010000;stroke-linecap:round;stroke-linejoin:round;stroke-opacity:1;stroke:#000000;" d="M 4.491605,13.298350 L 4.507390,13.298645 C 4.510679,13.298645 4.512762,13.298546 4.513639,13.298350 C 4.507500,13.302077 4.498676,13.315072 4.487165,13.337335 C 4.475655,13.359597 4.469900,13.375632 4.469900,13.385440 C 4.469900,13.391324 4.472093,13.394266 4.476478,13.394266 C 4.479328,13.394266 4.483219,13.392599 4.488152,13.389264 C 4.493085,13.385930 4.497305,13.382252 4.500813,13.378231 C 4.504321,13.374210 4.508103,13.369257 4.512159,13.363373 C 4.516215,13.357489 4.519723,13.352389 4.522682,13.348074 C 4.525642,13.343758 4.527341,13.341601 4.527780,13.341601 C 4.529095,13.341601 4.529753,13.343464 4.529753,13.347191 C 4.529753,13.350918 4.528547,13.354448 4.526135,13.357783 C 4.498950,13.398385 4.476258,13.418686 4.458061,13.418686 C 4.445784,13.418686 4.439645,13.410546 4.439645,13.394266 C 4.439645,13.389166 4.440084,13.384263 4.440961,13.379555 C 4.420352,13.405643 4.400730,13.418686 4.382095,13.418686 C 4.376614,13.418686 4.372174,13.416627 4.368776,13.412508 C 4.365378,13.408389 4.363679,13.402308 4.363679,13.394266 C 4.363679,13.386224 4.366858,13.372935 4.373216,13.354399 C 4.379574,13.335863 4.387357,13.320613 4.396565,13.308648 C 4.398757,13.305706 4.401114,13.303891 4.403635,13.303205 C 4.406156,13.302518 4.410925,13.302175 4.417941,13.302175 L 4.433726,13.302175 C 4.428245,13.308844 4.422325,13.317867 4.415967,13.329243 C 4.401498,13.356116 4.394263,13.375828 4.394263,13.388382 C 4.394263,13.395835 4.397277,13.399562 4.403306,13.399562 C 4.409335,13.399562 4.416515,13.394364 4.424847,13.383968 C 4.433178,13.373573 4.442112,13.360088 4.451649,13.343513 C 4.461186,13.326939 4.466721,13.317573 4.468256,13.315415 C 4.476368,13.304039 4.484151,13.298350 4.491605,13.298350 "/>
        <path style="fill:none;stroke-width:0.010000;stroke-linecap:round;stroke-linejoin:round;stroke-opacity:1;stroke:#000000;" d="M 4.998570,13.255983 C 4.993965,13.281874 4.970507,13.304529 4.928194,13.323948 C 4.913504,13.330617 4.901994,13.335912 4.893663,13.339835 C 4.885332,13.343758 4.874863,13.349643 4.862257,13.357489 C 4.849651,13.365334 4.841703,13.372003 4.838415,13.377496 L 4.841375,13.377496 C 4.849706,13.377496 4.859626,13.379212 4.871136,13.382644 C 4.882646,13.386077 4.895910,13.388872 4.910928,13.391030 C 4.925946,13.393187 4.936525,13.394266 4.942663,13.394266 C 4.964368,13.394266 4.975330,13.387107 4.975549,13.372788 L 4.984429,13.372788 C 4.983990,13.386518 4.979057,13.398140 4.969630,13.407653 C 4.960203,13.417166 4.947377,13.421923 4.931153,13.421923 C 4.914930,13.421923 4.901446,13.418294 4.890704,13.411037 C 4.888292,13.408879 4.883743,13.405839 4.877056,13.401916 C 4.870369,13.397993 4.865820,13.395541 4.863408,13.394560 C 4.857050,13.391618 4.851734,13.390147 4.847458,13.390147 C 4.843183,13.390147 4.839949,13.391716 4.837757,13.394855 C 4.835565,13.397993 4.834359,13.401475 4.834140,13.405299 C 4.833920,13.409124 4.832769,13.412606 4.830687,13.415744 C 4.828604,13.418883 4.825809,13.420452 4.822301,13.420452 C 4.814847,13.420452 4.811119,13.416725 4.811119,13.409271 C 4.811119,13.390049 4.822958,13.371317 4.846636,13.353075 C 4.857598,13.344641 4.868999,13.336501 4.880838,13.328655 C 4.913504,13.307079 4.936744,13.288347 4.950556,13.272459 C 4.958668,13.263044 4.962724,13.253825 4.962724,13.244802 C 4.962724,13.235780 4.959928,13.228718 4.954338,13.223618 C 4.948747,13.218519 4.940197,13.215969 4.928687,13.215969 C 4.917177,13.215969 4.905941,13.221019 4.894979,13.231121 C 4.884017,13.241223 4.878536,13.251765 4.878536,13.262750 C 4.878536,13.265888 4.878974,13.268634 4.879851,13.270988 C 4.874809,13.274126 4.870040,13.275695 4.865546,13.275695 C 4.861051,13.275695 4.857434,13.274224 4.854693,13.271282 C 4.851953,13.268340 4.850583,13.264221 4.850583,13.258925 C 4.850583,13.249510 4.853652,13.241223 4.859791,13.234063 C 4.865929,13.226904 4.873603,13.221363 4.882811,13.217440 C 4.901227,13.209986 4.919205,13.206259 4.936744,13.206259 C 4.947925,13.206259 4.957901,13.207387 4.966670,13.209643 C 4.975440,13.211899 4.983058,13.216263 4.989526,13.222736 C 4.995993,13.229209 4.999227,13.237545 4.999227,13.247744 C 4.999227,13.249314 4.999008,13.252060 4.998570,13.255983 "/>
        <path style="fill:none;stroke-width:0.010000;stroke-linecap:round;stroke-linejoin:round;stroke-opacity:1;stroke:#000000;" d="M 5.073665,13.207142 L 5.110168,13.208613 L 5.193370,13.208613 C 5.196658,13.208613 5.198302,13.210771 5.198302,13.215086 C 5.198302,13.219401 5.196274,13.223913 5.192219,13.228620 C 5.188163,13.233328 5.179941,13.242645 5.167554,13.256571 C 5.155167,13.270498 5.145246,13.281776 5.137792,13.290406 C 5.115649,13.316102 5.100302,13.335912 5.091752,13.349839 C 5.083202,13.363765 5.078926,13.375142 5.078926,13.383968 C 5.078926,13.387891 5.080023,13.391275 5.082215,13.394119 C 5.084407,13.396963 5.087203,13.398385 5.090601,13.398385 C 5.093999,13.398385 5.096794,13.398091 5.098987,13.397503 C 5.097014,13.405348 5.092793,13.411086 5.086326,13.414714 C 5.079858,13.418343 5.072788,13.420158 5.065114,13.420158 C 5.057441,13.420158 5.050754,13.417853 5.045054,13.413243 C 5.039354,13.408634 5.036503,13.402014 5.036503,13.393383 C 5.036503,13.384753 5.039737,13.374995 5.046205,13.364109 C 5.052672,13.353222 5.060675,13.342925 5.070212,13.333215 C 5.079748,13.323506 5.090162,13.313552 5.101453,13.303352 C 5.112744,13.293152 5.123103,13.283934 5.132530,13.275695 C 5.155112,13.256669 5.166403,13.242939 5.166403,13.234505 C 5.166403,13.233720 5.166184,13.232347 5.165745,13.230385 L 5.096027,13.230385 C 5.084846,13.230385 5.075967,13.231808 5.069389,13.234652 C 5.062812,13.237496 5.058482,13.240928 5.056399,13.244949 C 5.054317,13.248970 5.052782,13.252991 5.051795,13.257012 C 5.050809,13.261033 5.049493,13.264466 5.047849,13.267310 C 5.046205,13.270154 5.043848,13.271527 5.040779,13.271429 C 5.037709,13.271331 5.036175,13.270694 5.036175,13.269517 C 5.036175,13.269124 5.036503,13.268242 5.037161,13.266869 C 5.037819,13.265496 5.038641,13.263044 5.039628,13.259513 C 5.040614,13.255983 5.041656,13.251864 5.042752,13.247156 C 5.047137,13.228130 5.051193,13.216704 5.054920,13.212879 C 5.058647,13.209055 5.064895,13.207142 5.073665,13.207142 "/>
        <path style="fill:none;stroke-width:0.010000;stroke-linecap:round;stroke-linejoin:round;stroke-opacity:1;stroke:#000000;" d="M 5.211413,13.398091 C 5.205275,13.410841 5.196998,13.423737 5.186585,13.436781 C 5.176171,13.449825 5.168223,13.456347 5.162742,13.456347 C 5.161208,13.456347 5.159673,13.455954 5.158138,13.455170 C 5.171512,13.437320 5.179953,13.418098 5.183460,13.397503 C 5.183680,13.394953 5.188393,13.393678 5.197601,13.393678 C 5.206809,13.393678 5.211413,13.394953 5.211413,13.397503 L 5.211413,13.398091 "/>
        <path style="fill:none;stroke-width:0.010000;stroke-linecap:round;stroke-linejoin:round;stroke-opacity:1;stroke:#000000;" d="M 5.546333,13.255983 C 5.541729,13.281874 5.518270,13.304529 5.475957,13.323948 C 5.461268,13.330617 5.449758,13.335912 5.441427,13.339835 C 5.433096,13.343758 5.422627,13.349643 5.410021,13.357489 C 5.397414,13.365334 5.389467,13.372003 5.386178,13.377496 L 5.389138,13.377496 C 5.397469,13.377496 5.407390,13.379212 5.418900,13.382644 C 5.430410,13.386077 5.443674,13.388872 5.458692,13.391030 C 5.473710,13.393187 5.484288,13.394266 5.490427,13.394266 C 5.512132,13.394266 5.523094,13.387107 5.523313,13.372788 L 5.532192,13.372788 C 5.531754,13.386518 5.526821,13.398140 5.517393,13.407653 C 5.507966,13.417166 5.495140,13.421923 5.478917,13.421923 C 5.462693,13.421923 5.449210,13.418294 5.438467,13.411037 C 5.436055,13.408879 5.431506,13.405839 5.424819,13.401916 C 5.418132,13.397993 5.413583,13.395541 5.411172,13.394560 C 5.404814,13.391618 5.399497,13.390147 5.395222,13.390147 C 5.390947,13.390147 5.387713,13.391716 5.385521,13.394855 C 5.383328,13.397993 5.382122,13.401475 5.381903,13.405299 C 5.381684,13.409124 5.380533,13.412606 5.378450,13.415744 C 5.376367,13.418883 5.373572,13.420452 5.370064,13.420452 C 5.362610,13.420452 5.358883,13.416725 5.358883,13.409271 C 5.358883,13.390049 5.370722,13.371317 5.394400,13.353075 C 5.405362,13.344641 5.416762,13.336501 5.428601,13.328655 C 5.461268,13.307079 5.484507,13.288347 5.498319,13.272459 C 5.506431,13.263044 5.510487,13.253825 5.510487,13.244802 C 5.510487,13.235780 5.507692,13.228718 5.502101,13.223618 C 5.496511,13.218519 5.487960,13.215969 5.476450,13.215969 C 5.464940,13.215969 5.453704,13.221019 5.442742,13.231121 C 5.431780,13.241223 5.426299,13.251765 5.426299,13.262750 C 5.426299,13.265888 5.426738,13.268634 5.427615,13.270988 C 5.422572,13.274126 5.417804,13.275695 5.413309,13.275695 C 5.408815,13.275695 5.405197,13.274224 5.402457,13.271282 C 5.399716,13.268340 5.398346,13.264221 5.398346,13.258925 C 5.398346,13.249510 5.401415,13.241223 5.407554,13.234063 C 5.413693,13.226904 5.421366,13.221363 5.430574,13.217440 C 5.448991,13.209986 5.466968,13.206259 5.484507,13.206259 C 5.495689,13.206259 5.505664,13.207387 5.514434,13.209643 C 5.523203,13.211899 5.530822,13.216263 5.537289,13.222736 C 5.543757,13.229209 5.546991,13.237545 5.546991,13.247744 C 5.546991,13.249314 5.546771,13.252060 5.546333,13.255983 "/>
        <path style="fill:none;stroke-width:0.010000;stroke-linecap:round;stroke-linejoin:round;stroke-opacity:1;stroke:#000000;" d="M 5.754580,13.316886 C 5.745372,13.344935 5.729367,13.369208 5.706566,13.389706 C 5.683765,13.410203 5.657566,13.420452 5.627969,13.420452 C 5.607580,13.420452 5.592288,13.414273 5.582093,13.401916 C 5.571898,13.389559 5.566801,13.373573 5.566801,13.353958 C 5.566801,13.328459 5.574584,13.303156 5.590150,13.278049 C 5.607031,13.250981 5.628298,13.232053 5.653949,13.221265 C 5.668199,13.215380 5.683108,13.212438 5.698674,13.212438 C 5.719501,13.212438 5.735122,13.218470 5.745536,13.230533 C 5.755950,13.242596 5.761157,13.258238 5.761157,13.277461 C 5.761157,13.290210 5.758965,13.303352 5.754580,13.316886 "/>
        <path style="fill:none;stroke-width:0.010000;stroke-linecap:round;stroke-linejoin:round;stroke-opacity:1;stroke:#000000;" d="M 5.644741,13.406329 C 5.659649,13.406329 5.673954,13.399219 5.687657,13.384998 C 5.701359,13.370778 5.711828,13.353713 5.719063,13.333804 C 5.726298,13.313895 5.729915,13.295800 5.729915,13.279520 C 5.729915,13.263240 5.726298,13.250098 5.719063,13.240095 C 5.711828,13.230091 5.700866,13.225090 5.686177,13.225090 C 5.671488,13.225090 5.657402,13.231857 5.643919,13.245391 C 5.630435,13.258925 5.619967,13.275401 5.612512,13.294820 C 5.605058,13.314238 5.601331,13.332774 5.601331,13.350427 C 5.601331,13.368081 5.604839,13.381811 5.611855,13.391618 C 5.618870,13.401426 5.629832,13.406329 5.644741,13.406329 "/>
        <path style="fill:none;stroke-width:0.010000;stroke-linecap:round;stroke-linejoin:round;stroke-opacity:1;stroke:#000000;" d="M 5.950023,13.255983 C 5.945419,13.281874 5.921960,13.304529 5.879647,13.323948 C 5.864958,13.330617 5.853448,13.335912 5.845117,13.339835 C 5.836786,13.343758 5.826317,13.349643 5.813711,13.357489 C 5.801104,13.365334 5.793157,13.372003 5.789868,13.377496 L 5.792828,13.377496 C 5.801159,13.377496 5.811080,13.379212 5.822590,13.382644 C 5.834100,13.386077 5.847364,13.388872 5.862382,13.391030 C 5.877400,13.393187 5.887978,13.394266 5.894117,13.394266 C 5.915822,13.394266 5.926784,13.387107 5.927003,13.372788 L 5.935882,13.372788 C 5.935443,13.386518 5.930511,13.398140 5.921083,13.407653 C 5.911656,13.417166 5.898830,13.421923 5.882607,13.421923 C 5.866383,13.421923 5.852900,13.418294 5.842157,13.411037 C 5.839745,13.408879 5.835196,13.405839 5.828509,13.401916 C 5.821822,13.397993 5.817273,13.395541 5.814862,13.394560 C 5.808504,13.391618 5.803187,13.390147 5.798912,13.390147 C 5.794637,13.390147 5.791403,13.391716 5.789211,13.394855 C 5.787018,13.397993 5.785812,13.401475 5.785593,13.405299 C 5.785374,13.409124 5.784223,13.412606 5.782140,13.415744 C 5.780057,13.418883 5.777262,13.420452 5.773754,13.420452 C 5.766300,13.420452 5.762573,13.416725 5.762573,13.409271 C 5.762573,13.390049 5.774412,13.371317 5.798090,13.353075 C 5.809052,13.344641 5.820452,13.336501 5.832291,13.328655 C 5.864958,13.307079 5.888197,13.288347 5.902009,13.272459 C 5.910121,13.263044 5.914177,13.253825 5.914177,13.244802 C 5.914177,13.235780 5.911382,13.228718 5.905791,13.223618 C 5.900201,13.218519 5.891650,13.215969 5.880140,13.215969 C 5.868630,13.215969 5.857394,13.221019 5.846432,13.231121 C 5.835470,13.241223 5.829989,13.251765 5.829989,13.262750 C 5.829989,13.265888 5.830428,13.268634 5.831305,13.270988 C 5.826262,13.274126 5.821494,13.275695 5.816999,13.275695 C 5.812505,13.275695 5.808887,13.274224 5.806147,13.271282 C 5.803406,13.268340 5.802036,13.264221 5.802036,13.258925 C 5.802036,13.249510 5.805105,13.241223 5.811244,13.234063 C 5.817383,13.226904 5.825056,13.221363 5.834264,13.217440 C 5.852680,13.209986 5.870658,13.206259 5.888197,13.206259 C 5.899379,13.206259 5.909354,13.207387 5.918124,13.209643 C 5.926893,13.211899 5.934512,13.216263 5.940979,13.222736 C 5.947447,13.229209 5.950681,13.237545 5.950681,13.247744 C 5.950681,13.249314 5.950461,13.252060 5.950023,13.255983 "/>
        <path style="fill:none;stroke-width:0.010000;stroke-linecap:round;stroke-linejoin:round;stroke-opacity:1;stroke:#000000;" d="M 6.073903,13.305117 C 6.091442,13.307667 6.104815,13.313405 6.114024,13.322329 C 6.123232,13.331254 6.127836,13.341895 6.127836,13.354252 C 6.127836,13.366609 6.122464,13.378133 6.111722,13.388823 C 6.100979,13.399513 6.087770,13.407506 6.072094,13.412802 C 6.056418,13.418098 6.041236,13.420746 6.026547,13.420746 C 6.011858,13.420746 5.999416,13.419422 5.989221,13.416774 C 5.979027,13.414126 5.970367,13.409468 5.963241,13.402799 C 5.956116,13.396130 5.952553,13.388284 5.952553,13.379261 C 5.952553,13.370238 5.955404,13.362343 5.961104,13.355576 C 5.966804,13.348809 5.974039,13.345426 5.982808,13.345426 C 5.986974,13.345426 5.991249,13.346406 5.995634,13.348368 C 5.987303,13.359156 5.983137,13.369552 5.983137,13.379555 C 5.983137,13.389559 5.987303,13.397355 5.995634,13.402946 C 6.003965,13.408536 6.014708,13.411331 6.027862,13.411331 C 6.044744,13.411331 6.059159,13.406035 6.071107,13.395443 C 6.083056,13.384851 6.089030,13.372690 6.089030,13.358960 C 6.089030,13.345229 6.084371,13.334000 6.075054,13.325271 C 6.065736,13.316543 6.054061,13.312179 6.040030,13.312179 C 6.031699,13.312179 6.026058,13.312773 6.017289,13.316303 C 6.015973,13.316892 6.012612,13.317301 6.010748,13.317301 C 6.008885,13.317301 6.007643,13.315873 6.006743,13.314091 C 6.005755,13.312133 6.005549,13.309154 6.005906,13.306975 C 6.006349,13.304265 6.007789,13.304073 6.011460,13.303058 C 6.015600,13.301915 6.017487,13.302566 6.024832,13.302566 C 6.032954,13.302566 6.035486,13.303352 6.045950,13.303352 C 6.062393,13.299625 6.076040,13.292319 6.086893,13.281433 C 6.097745,13.270547 6.103171,13.258336 6.103171,13.244802 C 6.103171,13.235780 6.100102,13.228375 6.093963,13.222589 C 6.087824,13.216802 6.078287,13.213909 6.065352,13.213909 C 6.052417,13.213909 6.041181,13.218470 6.031644,13.227590 C 6.022107,13.236711 6.017339,13.247156 6.017339,13.258925 C 6.017339,13.262652 6.017996,13.266476 6.019312,13.270399 C 6.016462,13.271380 6.013338,13.271871 6.009939,13.271871 C 6.006541,13.271871 6.003253,13.270105 6.000074,13.266575 C 5.996895,13.263044 5.995305,13.258238 5.995305,13.252158 C 5.995305,13.242154 5.999690,13.233524 6.008460,13.226266 C 6.024683,13.212732 6.046607,13.205965 6.074232,13.205965 C 6.118737,13.205965 6.140990,13.219597 6.140990,13.246862 C 6.140990,13.258827 6.135016,13.270252 6.123067,13.281138 C 6.111119,13.292025 6.094730,13.300018 6.073903,13.305117 "/>
        <path style="fill:none;stroke-width:0.010000;stroke-linecap:round;stroke-linejoin:round;stroke-opacity:1;stroke:#000000;" d="M 4.644710,13.365957 C 4.630655,13.385832 4.617763,13.399970 4.606048,13.408389 C 4.592675,13.418000 4.575355,13.422806 4.554088,13.422806 C 4.541811,13.422806 4.531507,13.420697 4.523176,13.416480 C 4.514845,13.412263 4.510679,13.406035 4.510679,13.397797 C 4.510679,13.393089 4.512214,13.388774 4.515283,13.384851 C 4.518352,13.380928 4.522573,13.378967 4.527944,13.378967 C 4.533315,13.378967 4.536769,13.380732 4.538303,13.384263 C 4.534138,13.387989 4.532055,13.392305 4.532055,13.397208 C 4.532055,13.407016 4.538194,13.411919 4.550471,13.411919 C 4.557706,13.411919 4.564009,13.409664 4.569380,13.405152 C 4.574752,13.400641 4.577437,13.395688 4.577437,13.390294 C 4.577437,13.384900 4.576122,13.380144 4.573491,13.376024 C 4.570860,13.371905 4.567681,13.368277 4.563954,13.365138 C 4.560227,13.362000 4.556500,13.358862 4.552773,13.355723 C 4.543784,13.348074 4.539290,13.339296 4.539290,13.329391 C 4.539290,13.319485 4.543510,13.311149 4.551951,13.304382 C 4.560392,13.297615 4.571956,13.294231 4.586646,13.294231 C 4.595854,13.294231 4.603637,13.295702 4.609995,13.298645 C 4.616353,13.301587 4.619532,13.306147 4.619532,13.312326 C 4.619532,13.318504 4.617449,13.323849 4.613283,13.328361 C 4.609118,13.332872 4.603472,13.335128 4.596347,13.335128 C 4.589222,13.335128 4.585659,13.332186 4.585659,13.326301 C 4.585659,13.324928 4.588180,13.322869 4.593223,13.320123 C 4.598265,13.317377 4.600787,13.314532 4.600787,13.311590 C 4.600787,13.308648 4.599416,13.306441 4.596676,13.304970 C 4.593935,13.303499 4.590044,13.302764 4.585001,13.302764 C 4.579959,13.302764 4.575081,13.304333 4.570367,13.307471 C 4.565653,13.310610 4.563297,13.314729 4.563297,13.319828 C 4.563297,13.324928 4.565708,13.329734 4.570531,13.334245 C 4.575355,13.338757 4.580616,13.342581 4.586317,13.345720 C 4.592017,13.348858 4.597279,13.353222 4.602102,13.358813 C 4.606925,13.364403 4.609337,13.370287 4.609337,13.376466 C 4.609337,13.382644 4.607747,13.388186 4.604568,13.393089 C 4.601389,13.397993 4.597608,13.401916 4.593223,13.404858 C 4.605500,13.400151 4.618545,13.388382 4.632357,13.369552 C 4.633673,13.367982 4.635975,13.364746 4.639263,13.359842 C 4.643421,13.353146 4.646582,13.348264 4.648735,13.345191 C 4.650811,13.341499 4.653193,13.337362 4.655871,13.332774 C 4.661023,13.323948 4.665243,13.315905 4.668532,13.308648 L 4.646498,13.308648 C 4.645840,13.308648 4.645511,13.308207 4.645511,13.307324 C 4.645511,13.306441 4.646334,13.304921 4.647978,13.302764 C 4.649622,13.300606 4.650883,13.299527 4.651760,13.299527 L 4.676753,13.299527 C 4.692538,13.265594 4.708543,13.248627 4.724767,13.248627 C 4.734194,13.248627 4.739456,13.248529 4.740552,13.248333 C 4.729809,13.255002 4.717751,13.272067 4.704377,13.299527 L 4.737592,13.299527 L 4.737921,13.299821 C 4.737921,13.300802 4.736715,13.302518 4.734304,13.304970 C 4.731892,13.307422 4.729809,13.308648 4.728055,13.308648 L 4.699773,13.308648 C 4.682453,13.347093 4.673793,13.371807 4.673793,13.382792 C 4.673793,13.390245 4.676424,13.393972 4.681686,13.393972 C 4.689359,13.393972 4.698348,13.388088 4.708653,13.376319 C 4.711064,13.373769 4.714243,13.369454 4.718189,13.363373 C 4.728274,13.348858 4.733536,13.341601 4.733975,13.341601 C 4.735290,13.341601 4.735948,13.343170 4.735948,13.346308 C 4.735729,13.353762 4.726630,13.368277 4.708653,13.389853 C 4.702733,13.396914 4.695608,13.403485 4.687277,13.409566 C 4.678946,13.415646 4.671382,13.418686 4.664585,13.418686 C 4.652089,13.418686 4.645840,13.410841 4.645840,13.395149 C 4.645840,13.382007 4.649348,13.366904 4.656364,13.349839 L 4.656364,13.349545 C 4.652198,13.356410 4.648636,13.361510 4.645676,13.364844 C 4.645332,13.365231 4.645005,13.365596 4.644710,13.365957 "/>
        <path style="fill:none;stroke-width:0.010000;stroke-linecap:round;stroke-linejoin:round;stroke-opacity:1;stroke:#000000;" d="M 4.222852,13.374937 C 4.201085,13.404111 4.182439,13.418686 4.167021,13.418686 C 4.154743,13.418686 4.148604,13.410546 4.148604,13.394266 C 4.148604,13.389166 4.149043,13.384263 4.149920,13.379555 C 4.129311,13.405643 4.109689,13.418686 4.091054,13.418686 C 4.085573,13.418686 4.081133,13.416627 4.077735,13.412508 C 4.074337,13.408389 4.072638,13.402308 4.072638,13.394266 C 4.072638,13.386224 4.075817,13.372935 4.082175,13.354399 C 4.088533,13.335863 4.096316,13.320613 4.105524,13.308648 C 4.107716,13.305706 4.110073,13.303891 4.112594,13.303205 C 4.115115,13.302518 4.119884,13.302175 4.126900,13.302175 L 4.142685,13.302175 C 4.137204,13.308844 4.131284,13.317867 4.124926,13.329243 C 4.110457,13.356116 4.103222,13.375828 4.103222,13.388382 C 4.103222,13.395835 4.106236,13.399562 4.112265,13.399562 C 4.118294,13.399562 4.125475,13.394364 4.133806,13.383968 C 4.142137,13.373573 4.151071,13.360088 4.160608,13.343513 C 4.170145,13.326939 4.175680,13.317573 4.177215,13.315415 C 4.185327,13.304039 4.193110,13.298350 4.200564,13.298350 L 4.216349,13.298645 C 4.219638,13.298645 4.221721,13.298546 4.222598,13.298350 C 4.216459,13.302077 4.207635,13.315072 4.196125,13.337335 C 4.184615,13.359597 4.178859,13.375632 4.178859,13.385440 C 4.178859,13.391324 4.181052,13.394266 4.185437,13.394266 C 4.188287,13.394266 4.192178,13.392599 4.197111,13.389264 C 4.202044,13.385930 4.206264,13.382252 4.209772,13.378231 C 4.213280,13.374210 4.217062,13.369257 4.221118,13.363373 C 4.225174,13.357489 4.228682,13.352389 4.231641,13.348074 C 4.231796,13.347848 4.231947,13.347629 4.232080,13.347409 C 4.238711,13.333950 4.248052,13.322454 4.260088,13.312914 C 4.272585,13.303009 4.286287,13.298056 4.301195,13.298056 C 4.307992,13.298056 4.314514,13.299429 4.320762,13.302175 C 4.327011,13.304921 4.331012,13.309433 4.332766,13.315709 C 4.336054,13.309433 4.339946,13.305117 4.344440,13.302764 C 4.348935,13.300410 4.356334,13.299233 4.366638,13.299233 L 4.379793,13.299233 C 4.375189,13.301979 4.370146,13.307962 4.364665,13.317180 C 4.359184,13.326399 4.354525,13.335471 4.350689,13.344396 C 4.346852,13.353320 4.341864,13.365531 4.335726,13.381026 C 4.322133,13.415940 4.310294,13.439135 4.300209,13.450609 C 4.290124,13.462084 4.278778,13.470911 4.266172,13.477089 C 4.253565,13.483268 4.242110,13.486357 4.231806,13.486357 C 4.209882,13.486357 4.198920,13.480178 4.198920,13.467821 C 4.198920,13.462918 4.200619,13.458308 4.204017,13.453993 C 4.207415,13.449678 4.211965,13.447520 4.217665,13.447520 C 4.223365,13.447520 4.227202,13.449580 4.229175,13.453699 C 4.226983,13.454876 4.225284,13.456935 4.224078,13.459877 C 4.222872,13.462819 4.222269,13.465615 4.222269,13.468263 C 4.222269,13.470911 4.223420,13.473117 4.225722,13.474882 C 4.228024,13.476648 4.231039,13.477530 4.234766,13.477530 C 4.245289,13.477530 4.254826,13.472774 4.263376,13.463261 C 4.271927,13.453748 4.279162,13.442714 4.285081,13.430161 C 4.286616,13.426827 4.297139,13.400935 4.316652,13.352487 C 4.290781,13.396031 4.266446,13.417804 4.243645,13.417804 C 4.228737,13.417804 4.221282,13.408781 4.221282,13.390735 C 4.221282,13.385491 4.221770,13.380217 4.222852,13.374937 "/>
    </g>
</svg>
