<?xml version="1.0" encoding="UTF-8"?>
<!-- Created by Vectric (http://www.vectric.com/) -->
<svg width="32.75000000in" height="9.50000000in" viewBox="0.00000000 0.00000000 32.75000000 9.50000000" id="svg2" version="1.1" xmlns="http://www.w3.org/2000/svg" xmlns:xlink="http://www.w3.org/1999/xlink" xmlns:inkscape="http://www.inkscape.org/namespaces/inkscape">
    <g inkscape:groupmode="layer" id="85667243-1302-4a85-b3ac-c7bf39b332ec" inkscape:label="Toolpath Previews" style="stroke:#000000;"/>
    <g inkscape:groupmode="layer" id="90270401-ef0a-4b7a-baee-a70efbe0a1c9" inkscape:label="Layer 1" style="stroke:#000000;">
        <path style="fill:none;stroke-width:0.010000;stroke-linecap:round;stroke-linejoin:round;stroke-opacity:1;stroke:#000000;" d="M 14.374336,8.311397 C 14.382835,8.319887 14.391204,8.326834 14.392934,8.326834 C 14.394664,8.326834 14.417543,8.307979 14.443776,8.284935 C 14.475634,8.256950 14.489974,8.238226 14.486960,8.228552 C 14.481141,8.209875 14.534588,8.097318 14.580187,8.032221 C 14.599682,8.004389 14.613517,7.978193 14.610931,7.974008 C 14.608345,7.969824 14.610263,7.963907 14.615194,7.960860 C 14.628227,7.952804 14.626175,7.923739 14.612194,7.918373 C 14.605614,7.915848 14.596199,7.897903 14.591274,7.878496 C 14.582434,7.843668 14.582876,7.842660 14.625288,7.800883 C 14.665951,7.760830 14.679071,7.735840 14.659439,7.735840 C 14.644398,7.735840 14.649720,7.704079 14.668833,7.679780 C 14.687687,7.655809 14.685404,7.638812 14.663329,7.638812 C 14.644440,7.638812 14.647323,7.632680 14.683695,7.595484 L 14.716772,7.561659 L 14.791745,7.568649 C 14.981659,7.586354 14.975104,7.586394 15.007424,7.567324 C 15.029778,7.554134 15.048619,7.550320 15.078306,7.552975 L 15.118741,7.556591 L 15.143640,7.505551 C 15.162173,7.467563 15.165636,7.453396 15.157183,7.450152 C 15.148941,7.446989 15.146680,7.428107 15.148941,7.381323 C 15.154247,7.271538 15.159388,7.220505 15.166935,7.202711 C 15.171426,7.192124 15.170582,7.184395 15.164723,7.182441 C 15.159514,7.180705 15.157334,7.171324 15.159878,7.161596 C 15.163292,7.148536 15.153814,7.134461 15.123660,7.107812 C 15.101196,7.087960 15.082817,7.066320 15.082817,7.059724 C 15.082817,7.053128 15.092737,7.027166 15.104863,7.002029 L 15.126909,6.956327 L 15.109136,6.937408 C 15.095902,6.923320 15.092406,6.910339 15.095448,6.886578 C 15.098314,6.864194 15.096380,6.855822 15.088970,6.858532 C 15.068610,6.865979 15.053706,6.848730 15.063955,6.829580 C 15.069136,6.819898 15.071239,6.809840 15.068628,6.807229 C 15.066017,6.804617 15.074698,6.779613 15.087920,6.751664 L 15.111958,6.700848 L 15.091213,6.684049 C 15.076735,6.672324 15.070468,6.658115 15.070468,6.637014 C 15.070468,6.609610 15.068099,6.606778 15.045177,6.606778 C 15.022994,6.606778 15.020646,6.604339 15.026079,6.586931 C 15.035165,6.557815 15.047432,6.552481 15.091637,6.558427 L 15.131328,6.563766 L 15.457682,6.564668 L 15.550296,6.558566 C 15.601233,6.555210 15.662755,6.551296 15.687011,6.549868 C 15.762012,6.545454 15.901413,6.536651 16.044236,6.527311 C 16.119429,6.522394 16.218658,6.516016 16.264745,6.513139 C 16.347691,6.507960 16.380506,6.506011 16.532723,6.497229 C 16.575810,6.494743 16.623440,6.488834 16.638567,6.484099 C 16.653694,6.479364 16.693855,6.472902 16.727814,6.469739 C 16.761772,6.466577 16.817340,6.458712 16.851299,6.452261 C 16.885257,6.445810 16.959639,6.435979 17.016592,6.430414 L 17.120143,6.420296 L 17.138295,6.426058 C 17.148279,6.429227 17.161219,6.427993 17.167050,6.423315 C 17.178749,6.413932 17.203941,6.409291 17.340829,6.391306 L 17.433443,6.379137 L 17.439914,6.389313 C 17.443474,6.394910 17.447443,6.401852 17.448735,6.404740 C 17.450026,6.407628 17.462062,6.412682 17.475480,6.415970 C 17.496277,6.421066 17.501167,6.418554 17.508620,6.398953 C 17.513428,6.386305 17.515115,6.372321 17.512368,6.367876 C 17.505383,6.356573 17.564551,6.357716 17.575939,6.369105 C 17.586009,6.379176 17.631901,6.371319 17.631901,6.359524 C 17.631901,6.349513 17.683859,6.333529 17.715694,6.333747 C 17.758245,6.334038 17.840366,6.318837 17.953844,6.289665 L 18.059688,6.262454 L 18.086775,6.253790 C 18.101674,6.249024 18.124262,6.245125 18.136972,6.245125 C 18.149682,6.245125 18.162346,6.241461 18.165113,6.236983 C 18.167881,6.232505 18.182869,6.226046 18.198420,6.222630 C 18.213972,6.219215 18.232780,6.213316 18.240216,6.209522 L 18.253736,6.202624 L 18.465425,6.154818 L 18.483065,6.148366 C 18.492768,6.144818 18.514598,6.136816 18.531577,6.130584 C 18.583191,6.111642 18.623772,6.109597 18.636789,6.125282 C 18.643176,6.132978 18.653582,6.139276 18.659913,6.139276 C 18.666243,6.139276 18.679228,6.149199 18.688768,6.161328 C 18.698308,6.173456 18.711851,6.183380 18.718864,6.183380 C 18.725876,6.183380 18.736135,6.193303 18.741661,6.205432 C 18.747187,6.217560 18.755661,6.227484 18.760491,6.227484 C 18.765322,6.227484 18.775417,6.239363 18.782924,6.253882 C 18.790432,6.268401 18.800063,6.279316 18.804327,6.278139 C 18.812584,6.275859 18.884057,6.350839 18.884267,6.362001 C 18.884336,6.365640 18.888753,6.368617 18.894084,6.368617 C 18.905031,6.368617 18.951321,6.415911 18.964528,6.440589 C 18.969306,6.449519 18.977877,6.456825 18.983574,6.456825 C 18.994892,6.456825 19.069619,6.534757 19.069619,6.546561 C 19.069619,6.550572 19.072596,6.553383 19.076235,6.552809 C 19.094110,6.549986 19.102934,6.555752 19.112343,6.576403 C 19.117993,6.588805 19.125841,6.596960 19.129781,6.594524 C 19.133722,6.592089 19.143852,6.601788 19.152293,6.616079 C 19.160734,6.630369 19.172776,6.642061 19.179051,6.642061 C 19.185327,6.642061 19.207921,6.661908 19.229259,6.686165 C 19.250597,6.710423 19.270989,6.730269 19.274575,6.730269 C 19.278160,6.730269 19.296027,6.746413 19.314278,6.766144 C 19.332528,6.785875 19.362345,6.817635 19.380537,6.836721 C 19.398729,6.855807 19.413614,6.875137 19.413614,6.879677 L 19.413614,6.887931 L 19.537099,7.013647 L 19.537099,7.008739 C 19.537099,7.003075 19.573501,7.032412 19.610216,7.067665 C 19.624111,7.081006 19.638422,7.091922 19.642019,7.091922 C 19.645616,7.091922 19.664164,7.105968 19.683237,7.123135 C 19.702311,7.140303 19.735494,7.166123 19.756979,7.180513 C 19.778463,7.194903 19.812960,7.222536 19.833639,7.241918 C 19.854317,7.261300 19.874034,7.277159 19.877455,7.277159 C 19.880875,7.277159 19.902345,7.294029 19.925165,7.314647 C 20.020837,7.401089 20.053979,7.426897 20.069449,7.427002 C 20.090309,7.427143 20.173552,7.468219 20.186114,7.484569 C 20.191360,7.491398 20.206895,7.501259 20.220634,7.506484 C 20.242786,7.514906 20.248699,7.513070 20.272838,7.490272 C 20.287810,7.476131 20.304778,7.463082 20.310545,7.461273 L 20.321029,7.457985 L 20.470920,7.312442 L 20.480309,7.312442 C 20.485473,7.312442 20.489698,7.308954 20.489698,7.304691 C 20.489698,7.300429 20.501605,7.292008 20.516159,7.285980 C 20.530712,7.279951 20.542620,7.271531 20.542620,7.267268 C 20.542620,7.263005 20.548698,7.259517 20.556127,7.259517 C 20.563556,7.259517 20.571919,7.253563 20.574711,7.246286 C 20.577504,7.239009 20.585318,7.233055 20.592075,7.233055 C 20.598833,7.233055 20.604362,7.229542 20.604362,7.225249 C 20.604362,7.220955 20.614326,7.210914 20.626503,7.202934 C 20.643232,7.191972 20.652859,7.190683 20.665891,7.197658 C 20.680601,7.205530 20.685401,7.202649 20.698508,7.178073 C 20.706961,7.162224 20.714044,7.147170 20.714247,7.144620 L 20.714617,7.139982 L 20.829281,7.021415 L 20.839292,7.021385 C 20.844798,7.021369 20.856349,7.010440 20.864960,6.997098 C 20.873571,6.983757 20.907740,6.946048 20.940890,6.913301 L 21.001163,6.853761 L 21.013419,6.853761 C 21.025843,6.853761 21.072079,6.767043 21.076909,6.734680 C 21.080795,6.708648 21.113041,6.625752 21.128403,6.602306 C 21.135740,6.591108 21.143345,6.568679 21.145304,6.552463 C 21.147263,6.536248 21.151641,6.515042 21.155032,6.505339 C 21.179688,6.434791 21.206940,6.373646 21.229770,6.337644 C 21.244480,6.314448 21.254421,6.292081 21.251861,6.287939 C 21.249302,6.283797 21.258357,6.280408 21.271984,6.280408 C 21.296045,6.280407 21.296778,6.279014 21.297377,6.232139 C 21.297759,6.202224 21.303139,6.177907 21.311527,6.168189 C 21.320324,6.157995 21.324435,6.137735 21.323274,6.110298 C 21.321982,6.079777 21.325314,6.065947 21.335308,6.060353 C 21.344936,6.054965 21.348380,6.042225 21.346657,6.018368 C 21.344981,5.995155 21.351624,5.969304 21.367269,5.938155 C 21.379965,5.912876 21.388084,5.888520 21.385310,5.884032 C 21.382536,5.879543 21.384300,5.873378 21.389230,5.870330 C 21.394161,5.867283 21.398195,5.857086 21.398195,5.847669 C 21.398195,5.838252 21.402567,5.830548 21.407910,5.830548 C 21.414643,5.830548 21.415734,5.811712 21.411464,5.769185 L 21.405302,5.707823 L 21.455527,5.694006 L 22.090593,5.695709 L 22.214078,5.701537 C 22.281995,5.704742 22.381224,5.709682 22.434587,5.712515 L 22.531611,5.717665 L 22.559383,5.716847 C 22.574657,5.716397 22.603856,5.721922 22.624269,5.729124 C 22.644683,5.736327 22.665009,5.739980 22.669438,5.737242 C 22.673868,5.734505 22.691166,5.736778 22.707879,5.742294 C 22.724591,5.747810 22.751306,5.752480 22.767244,5.752671 C 22.783182,5.752862 22.813385,5.758608 22.834361,5.765438 C 22.855338,5.772269 22.875933,5.775736 22.880129,5.773143 C 22.884324,5.770550 22.910822,5.774212 22.939013,5.781281 C 22.967204,5.788350 23.014085,5.798527 23.043192,5.803896 C 23.117920,5.817681 23.179160,5.838288 23.207363,5.859141 C 23.220669,5.868979 23.237796,5.874633 23.245423,5.871706 C 23.254858,5.868086 23.259291,5.871444 23.259291,5.882212 C 23.259291,5.902146 23.295019,5.936398 23.315812,5.936398 C 23.324443,5.936398 23.333581,5.928459 23.336118,5.918756 C 23.338655,5.909053 23.343245,5.901095 23.346318,5.901071 C 23.354355,5.901008 23.435413,5.928108 23.466569,5.941275 C 23.481123,5.947425 23.516845,5.959594 23.545952,5.968315 C 23.575060,5.977037 23.604828,5.988343 23.612105,5.993439 C 23.619382,5.998536 23.641212,6.010117 23.660617,6.019176 C 23.691321,6.033510 23.734173,6.054948 23.779692,6.078747 C 23.786969,6.082551 23.815357,6.095847 23.842778,6.108292 C 23.870198,6.120738 23.898494,6.139866 23.905657,6.150798 C 23.913769,6.163181 23.935404,6.174962 23.963031,6.182043 C 23.987424,6.188296 24.014320,6.201077 24.022799,6.210447 C 24.031279,6.219817 24.041965,6.227484 24.046545,6.227484 C 24.059705,6.227484 24.158967,6.290897 24.158967,6.299304 C 24.158967,6.303466 24.168799,6.306871 24.180815,6.306871 C 24.194242,6.306871 24.208097,6.315165 24.216762,6.328391 C 24.224517,6.340227 24.235524,6.348146 24.241221,6.345989 C 24.246919,6.343832 24.259364,6.353715 24.268877,6.367953 C 24.278390,6.382190 24.288659,6.393126 24.291698,6.392254 C 24.294737,6.391382 24.317504,6.410515 24.342292,6.434773 C 24.442977,6.533301 24.582238,6.657975 24.607578,6.672270 C 24.615530,6.676756 24.639898,6.697548 24.661728,6.718475 C 24.683558,6.739401 24.705582,6.756570 24.710668,6.756627 C 24.715755,6.756685 24.736440,6.772609 24.756634,6.792015 C 24.776829,6.811421 24.798504,6.827298 24.804801,6.827298 C 24.811099,6.827298 24.821209,6.835237 24.827268,6.844940 C 24.833327,6.854643 24.843748,6.862581 24.850426,6.862581 C 24.857104,6.862581 24.869069,6.872505 24.877016,6.884633 C 24.884962,6.896762 24.897326,6.906685 24.904491,6.906685 C 24.911656,6.906685 24.924594,6.913632 24.933243,6.922122 L 24.948967,6.937558 L 25.160078,7.077591 L 25.179924,7.095115 C 25.190839,7.104753 25.199770,7.109609 25.199770,7.105907 C 25.199770,7.102204 25.211982,7.109451 25.226908,7.122011 C 25.241834,7.134571 25.257633,7.144847 25.262018,7.144847 C 25.266403,7.144847 25.292433,7.159732 25.319863,7.177925 C 25.380341,7.218037 25.380684,7.218236 25.424689,7.238700 C 25.444094,7.247724 25.471878,7.263281 25.486432,7.273271 C 25.500985,7.283261 25.532739,7.300906 25.556995,7.312482 C 25.581251,7.324058 25.609825,7.341195 25.620493,7.350564 C 25.631162,7.359933 25.645756,7.365348 25.652925,7.362597 C 25.660094,7.359846 25.670860,7.363500 25.676850,7.370717 C 25.689557,7.386030 25.782705,7.432117 25.794043,7.428701 C 25.798289,7.427423 25.808212,7.432052 25.816094,7.438989 C 25.823977,7.445925 25.850272,7.460279 25.874528,7.470885 C 25.898784,7.481492 25.940460,7.500312 25.967141,7.512707 C 25.993823,7.525102 26.023592,7.538474 26.033294,7.542421 C 26.042996,7.546368 26.073875,7.559748 26.101913,7.572153 C 26.167139,7.601011 26.180038,7.600517 26.203896,7.568245 C 26.214656,7.553691 26.231045,7.541783 26.240316,7.541783 C 26.249587,7.541783 26.259308,7.538326 26.261919,7.534101 C 26.264530,7.529876 26.279649,7.523897 26.295516,7.520815 C 26.361995,7.507899 26.412318,7.478998 26.452261,7.430794 C 26.478939,7.398600 26.497014,7.384089 26.507388,7.386536 C 26.515878,7.388539 26.522824,7.386580 26.522824,7.382183 C 26.522824,7.377785 26.524170,7.371211 26.525815,7.367572 C 26.527460,7.363933 26.537927,7.341291 26.549076,7.317256 C 26.560224,7.293220 26.565737,7.272352 26.561326,7.270882 L 26.553307,7.268208 L 26.556072,7.193456 C 26.558540,7.126722 26.562548,7.111447 26.593440,7.051039 L 26.628042,6.983374 L 26.623635,6.976244 C 26.615722,6.963438 26.659947,6.779947 26.676543,6.756732 C 26.700024,6.723884 26.708052,6.701587 26.708052,6.669218 C 26.708052,6.650062 26.711923,6.624207 26.716654,6.611763 C 26.723478,6.593812 26.722567,6.589137 26.712244,6.589137 C 26.697114,6.589137 26.695421,6.565025 26.708192,6.531433 L 26.717152,6.507865 L 26.724468,6.324536 L 26.717051,6.298673 C 26.712971,6.284449 26.713030,6.257751 26.717181,6.239344 C 26.721388,6.220689 26.721368,6.203800 26.717136,6.201184 C 26.704964,6.193662 26.664379,5.996848 26.657531,5.912140 C 26.654385,5.873227 26.649485,5.857010 26.640871,5.857010 C 26.634160,5.857010 26.628589,5.852049 26.628491,5.845984 C 26.628394,5.839920 26.624319,5.809157 26.619436,5.777623 C 26.614554,5.746089 26.608314,5.686548 26.605569,5.645311 L 26.600580,5.570334 L 26.600349,5.565924 C 26.599253,5.544970 26.605631,5.530821 26.626463,5.507993 C 26.651989,5.480023 26.679593,5.441147 26.694935,5.411560 C 26.699966,5.401857 26.712526,5.392701 26.722845,5.391213 C 26.739711,5.388781 26.764551,5.349013 26.765232,5.323352 C 26.765360,5.318501 26.770409,5.305600 26.776450,5.294684 C 26.782492,5.283769 26.787435,5.272853 26.787435,5.270427 C 26.787435,5.268002 26.793389,5.251639 26.800665,5.234067 C 26.816337,5.196223 26.817314,5.174216 26.804396,5.150077 C 26.799172,5.140314 26.797817,5.125690 26.801387,5.117579 C 26.804956,5.109468 26.807246,5.099855 26.806476,5.096216 C 26.805706,5.092578 26.816983,5.089601 26.831537,5.089601 C 26.846090,5.089601 26.858329,5.086624 26.858733,5.082985 C 26.859137,5.079347 26.860433,5.067782 26.861613,5.057285 C 26.863745,5.038312 26.926851,4.948468 26.938046,4.948468 C 26.943911,4.948468 26.964663,4.860184 26.969815,4.813316 C 26.971320,4.799626 26.978530,4.779888 26.985837,4.769455 C 26.993145,4.759021 26.999124,4.738442 26.999124,4.723722 C 26.999124,4.709002 27.002700,4.684486 27.007072,4.669242 C 27.011444,4.653998 27.011830,4.638146 27.007931,4.634017 C 27.004032,4.629888 27.005171,4.605848 27.010463,4.580596 C 27.017911,4.545057 27.024147,4.534095 27.038059,4.532081 C 27.051675,4.530111 27.057582,4.520358 27.062423,4.491856 C 27.065937,4.471163 27.071875,4.449332 27.075617,4.443342 C 27.079359,4.437352 27.083225,4.427142 27.084207,4.420652 C 27.085190,4.414162 27.091381,4.402254 27.097965,4.394189 C 27.133924,4.350149 27.156699,4.280690 27.161686,4.199853 C 27.162395,4.188358 27.171754,4.171845 27.182483,4.163156 C 27.193213,4.154467 27.201992,4.143648 27.201992,4.139113 C 27.201992,4.134578 27.209580,4.124000 27.218855,4.115607 C 27.230536,4.105035 27.236634,4.085637 27.238701,4.052482 C 27.240341,4.026157 27.239257,4.004624 27.236291,4.004631 C 27.233326,4.004637 27.232796,3.994719 27.235115,3.982591 C 27.237433,3.970462 27.243141,3.960539 27.247799,3.960539 C 27.252457,3.960539 27.244055,3.950262 27.229130,3.937703 C 27.214204,3.925143 27.201882,3.910258 27.201747,3.904625 C 27.201272,3.884795 27.151128,3.844347 27.129966,3.846723 C 27.118642,3.847995 27.095486,3.845738 27.078507,3.841707 L 27.047636,3.834380 L 26.848772,3.836257 L 26.841854,3.840532 C 26.838050,3.842884 26.813184,3.841856 26.786598,3.838248 C 26.760011,3.834640 26.726501,3.834710 26.712130,3.838404 L 26.686001,3.845121 L 26.584567,3.858931 C 26.479894,3.873181 26.356640,3.890530 26.218522,3.910453 L 26.139138,3.921904 L 26.125908,3.927335 C 26.118631,3.930322 26.099778,3.935046 26.084011,3.937832 C 26.068245,3.940618 26.042445,3.945152 26.026679,3.947909 C 26.010912,3.950665 25.990074,3.956321 25.980372,3.960477 C 25.970670,3.964634 25.937841,3.969948 25.907420,3.972288 C 25.876999,3.974627 25.833338,3.982587 25.810396,3.989976 C 25.787454,3.997365 25.740899,4.008034 25.706941,4.013683 C 25.641455,4.024578 25.593296,4.037120 25.568140,4.049829 C 25.559716,4.054085 25.548408,4.057567 25.543012,4.057567 C 25.537615,4.057567 25.520692,4.063006 25.505405,4.069653 C 25.490119,4.076300 25.445858,4.095692 25.407048,4.112747 C 25.368239,4.129801 25.308701,4.154486 25.274743,4.167601 C 25.240785,4.180717 25.200493,4.197049 25.185206,4.203895 C 25.169920,4.210741 25.151066,4.216342 25.143310,4.216342 C 25.135553,4.216342 25.129207,4.220311 25.129207,4.225163 C 25.129207,4.230014 25.120876,4.233983 25.110694,4.233983 C 25.100512,4.233983 25.079674,4.239760 25.064387,4.246820 C 24.993671,4.279482 24.851788,4.322691 24.670548,4.366762 C 24.653569,4.370890 24.599986,4.384516 24.551474,4.397041 C 24.502962,4.409566 24.439455,4.425883 24.410348,4.433301 C 24.327909,4.454311 24.209081,4.490232 24.192164,4.499257 C 24.183740,4.503751 24.169401,4.507428 24.160300,4.507428 C 24.151199,4.507428 24.114618,4.519443 24.079008,4.534128 L 24.014263,4.560828 L 23.519491,4.562815 L 23.484210,4.553883 C 23.464805,4.548970 23.418997,4.536711 23.382414,4.526640 C 23.345831,4.516569 23.302171,4.505926 23.285390,4.502989 C 23.268610,4.500052 23.245708,4.491661 23.234497,4.484341 C 23.223286,4.477022 23.209394,4.472674 23.203626,4.474679 C 23.197857,4.476684 23.177261,4.472664 23.157857,4.465746 C 23.138452,4.458828 23.111386,4.451638 23.097709,4.449767 C 23.084033,4.447897 23.060601,4.440259 23.045637,4.432793 C 23.030674,4.425328 23.011896,4.419220 23.003909,4.419220 C 22.995922,4.419220 22.985617,4.415529 22.981008,4.411017 C 22.972561,4.402747 22.918905,4.381784 22.862950,4.364891 C 22.846287,4.359861 22.823926,4.350026 22.813259,4.343037 C 22.802592,4.336047 22.790425,4.331197 22.786222,4.332259 C 22.782020,4.333322 22.764689,4.327811 22.747710,4.320014 C 22.730731,4.312217 22.710329,4.303855 22.702373,4.301432 C 22.689450,4.297497 22.659506,4.250153 22.659506,4.233657 C 22.659506,4.230117 22.667932,4.225017 22.678230,4.222324 C 22.695235,4.217876 22.696369,4.213533 22.690590,4.174986 C 22.687090,4.151643 22.680789,4.126121 22.676589,4.118271 C 22.664124,4.094977 22.662066,4.024582 22.673240,4.003702 C 22.689989,3.972405 22.679371,3.953644 22.641264,3.947206 C 22.611517,3.942180 22.606425,3.937789 22.601808,3.913178 C 22.598893,3.897636 22.597260,3.881095 22.598180,3.876420 C 22.603831,3.847701 22.596559,3.837048 22.571303,3.837048 C 22.556749,3.837048 22.544842,3.832993 22.544842,3.828038 C 22.544842,3.823082 22.535180,3.814625 22.523371,3.809245 C 22.508119,3.802295 22.500258,3.789734 22.496226,3.765869 C 22.491879,3.740139 22.487309,3.733521 22.476700,3.737592 C 22.465671,3.741825 22.463764,3.738121 22.467341,3.719411 C 22.469811,3.706488 22.468964,3.695915 22.465458,3.695915 C 22.461953,3.695915 22.460873,3.686555 22.463060,3.675116 C 22.466554,3.656838 22.462932,3.653662 22.433171,3.648903 C 22.414545,3.645924 22.390375,3.645823 22.379460,3.648678 C 22.362613,3.653084 22.359614,3.650381 22.359614,3.630788 C 22.359614,3.618093 22.355908,3.607707 22.351379,3.607707 C 22.346850,3.607707 22.341889,3.596791 22.340354,3.583450 C 22.337665,3.560081 22.335879,3.559282 22.291602,3.561628 C 22.248492,3.563913 22.244798,3.562435 22.232064,3.537809 C 22.224597,3.523369 22.218488,3.501118 22.218488,3.488363 C 22.218488,3.467184 22.216192,3.465677 22.192027,3.470984 C 22.168101,3.476240 22.165566,3.474672 22.165566,3.454618 C 22.165566,3.417289 22.149913,3.387187 22.130503,3.387187 C 22.120680,3.387187 22.112644,3.381978 22.112644,3.375612 C 22.112644,3.369247 22.104541,3.347266 22.094637,3.326767 C 22.077465,3.291222 22.075218,3.289761 22.046125,3.295219 C 22.016703,3.300739 22.015620,3.299979 22.015620,3.273808 C 22.015620,3.242745 21.994216,3.226823 21.967108,3.237721 C 21.928725,3.253154 21.919946,3.247847 21.913575,3.205364 L 21.907474,3.164673 L 21.862318,3.168929 C 21.837482,3.171270 21.810645,3.175948 21.802679,3.179324 C 21.790339,3.184556 21.787281,3.176340 21.782001,3.123765 C 21.774927,3.053320 21.769903,3.048882 21.706720,3.057264 C 21.665056,3.062791 21.664581,3.062570 21.653719,3.032530 C 21.647691,3.015859 21.634370,2.998534 21.624116,2.994030 C 21.613862,2.989526 21.604236,2.977149 21.602724,2.966527 C 21.600815,2.953111 21.592849,2.946378 21.576636,2.944475 C 21.557004,2.942172 21.551774,2.935430 21.543718,2.902043 C 21.532467,2.855417 21.513959,2.848525 21.459029,2.870504 C 21.427099,2.883281 21.422291,2.883259 21.402426,2.870242 C 21.389080,2.861497 21.377277,2.841943 21.371790,2.819489 C 21.352456,2.740376 21.351291,2.738652 21.318963,2.741314 C 21.302562,2.742665 21.283815,2.748193 21.277303,2.753597 C 21.270791,2.759002 21.264432,2.761866 21.263173,2.759962 C 21.256838,2.750386 21.239428,2.691786 21.239428,2.680041 C 21.239428,2.672638 21.232104,2.658136 21.223152,2.647814 C 21.209262,2.631798 21.202594,2.630275 21.177659,2.637426 C 21.144884,2.646827 21.130098,2.635091 21.120231,2.591847 C 21.117280,2.578910 21.109154,2.566135 21.102174,2.563456 C 21.094367,2.560460 21.089482,2.546299 21.089482,2.526660 L 21.089482,2.494736 L 21.051995,2.500661 C 21.031378,2.503919 20.999599,2.510858 20.981376,2.516080 C 20.944522,2.526641 20.931511,2.520995 20.947711,2.501474 C 20.955522,2.492063 20.955860,2.483845 20.948968,2.470968 C 20.943780,2.461273 20.939536,2.443850 20.939536,2.432248 C 20.939536,2.404187 20.904221,2.370667 20.886477,2.381887 C 20.879276,2.386441 20.860483,2.390227 20.844717,2.390302 C 20.828951,2.390376 20.816051,2.394406 20.816051,2.399257 C 20.816051,2.404109 20.810144,2.408078 20.802925,2.408078 C 20.794431,2.408078 20.787807,2.395625 20.784157,2.372795 C 20.781034,2.353269 20.773548,2.337512 20.767393,2.337512 C 20.761276,2.337512 20.753787,2.324611 20.750750,2.308844 C 20.741348,2.260032 20.734470,2.254571 20.697683,2.266712 C 20.676099,2.273836 20.661886,2.274456 20.654738,2.268587 C 20.648862,2.263763 20.634536,2.258442 20.622904,2.256765 C 20.611271,2.255087 20.597379,2.245943 20.592032,2.236445 C 20.586686,2.226947 20.577350,2.213763 20.571286,2.207148 C 20.565222,2.200532 20.560260,2.191267 20.560260,2.186559 C 20.560260,2.181852 20.552322,2.169479 20.542620,2.159064 C 20.532917,2.148649 20.524979,2.131187 20.524979,2.120260 C 20.524979,2.093236 20.513307,2.088052 20.475785,2.098413 C 20.453301,2.104621 20.434546,2.104107 20.411719,2.096655 C 20.385311,2.088034 20.378919,2.081308 20.376559,2.059657 C 20.374973,2.045102 20.370012,2.029423 20.365534,2.024815 C 20.361056,2.020206 20.357392,2.009712 20.357392,2.001495 C 20.357392,1.988386 20.352949,1.987684 20.321129,1.995761 C 20.292464,2.003037 20.279990,2.002239 20.261592,1.991949 C 20.248791,1.984790 20.221005,1.973490 20.199845,1.966838 C 20.159245,1.954074 20.123877,1.911986 20.117840,1.869252 C 20.115324,1.851438 20.109786,1.847910 20.083961,1.847668 C 20.066982,1.847509 20.039198,1.841085 20.022218,1.833393 C 20.005239,1.825702 19.968524,1.812110 19.940630,1.803189 C 19.908453,1.792898 19.889727,1.781994 19.889405,1.773359 C 19.889125,1.765874 19.880118,1.741217 19.869389,1.718566 C 19.853501,1.685025 19.847172,1.678899 19.835281,1.685554 C 19.827252,1.690048 19.796444,1.696258 19.766820,1.699355 C 19.737196,1.702451 19.710863,1.708376 19.708301,1.712520 C 19.705740,1.716665 19.696933,1.720080 19.688729,1.720110 C 19.680526,1.720140 19.662374,1.726131 19.648391,1.733424 C 19.634409,1.740716 19.607689,1.749126 19.589014,1.752113 C 19.570339,1.755099 19.557207,1.761016 19.559830,1.765262 C 19.562454,1.769507 19.555436,1.773105 19.544234,1.773258 C 19.524936,1.773520 19.434065,1.814288 19.411088,1.832991 C 19.405200,1.837784 19.374583,1.852291 19.343051,1.865229 C 19.311518,1.878167 19.271826,1.894727 19.254847,1.902030 C 19.237868,1.909332 19.216037,1.918634 19.206335,1.922701 L 19.188694,1.930095 L 18.906443,2.064922 L 18.849110,2.092857 C 18.817578,2.108222 18.789794,2.123140 18.787368,2.126009 C 18.784942,2.128877 18.769066,2.136728 18.752086,2.143454 C 18.735107,2.150181 18.719231,2.158418 18.716805,2.161760 C 18.714379,2.165101 18.697771,2.175250 18.679896,2.184312 C 18.626098,2.211589 18.527864,2.269511 18.516893,2.280425 C 18.511242,2.286046 18.494373,2.295718 18.479407,2.301917 C 18.464440,2.308117 18.452194,2.316247 18.452194,2.319984 C 18.452194,2.323721 18.442549,2.329199 18.430760,2.332158 C 18.418971,2.335117 18.404087,2.342753 18.397684,2.349127 C 18.391281,2.355501 18.360242,2.375595 18.328709,2.393781 C 18.244338,2.442441 18.189360,2.479012 18.082815,2.557347 C 18.020012,2.603522 17.999724,2.615858 17.914152,2.659899 C 17.892322,2.671134 17.863879,2.689527 17.850946,2.700772 C 17.786777,2.756562 17.796700,2.753573 17.695133,2.747703 C 17.643376,2.744712 17.579199,2.740372 17.552517,2.738058 C 17.525836,2.735745 17.482175,2.732730 17.455493,2.731358 C 17.384643,2.727715 17.232624,2.649170 17.217537,2.608411 C 17.211770,2.592831 17.203414,2.573191 17.198967,2.564767 C 17.194521,2.556343 17.190883,2.534313 17.190883,2.515812 C 17.190883,2.497310 17.186805,2.478095 17.181820,2.473110 C 17.176836,2.468126 17.172285,2.440539 17.171706,2.411806 C 17.170524,2.353138 17.161213,2.334065 17.139239,2.345303 C 17.131259,2.349384 17.100586,2.355124 17.071077,2.358059 C 17.010985,2.364036 16.996835,2.356627 16.996835,2.319186 C 16.996835,2.306196 16.991313,2.290985 16.984564,2.285383 C 16.972477,2.275352 16.964698,2.247800 16.957080,2.188041 C 16.954950,2.171327 16.947495,2.154455 16.940514,2.150548 C 16.933533,2.146641 16.925139,2.127569 16.921861,2.108166 C 16.913599,2.059261 16.907367,2.059674 16.778295,2.117680 C 16.738239,2.135682 16.719518,2.139236 16.726797,2.127457 C 16.729236,2.123511 16.728441,2.100767 16.725029,2.076917 L 16.718827,2.033552 L 16.682594,2.036169 C 16.656118,2.038080 16.644932,2.035063 16.641057,2.024964 C 16.633122,2.004285 16.615168,2.007928 16.557010,2.042015 C 16.528040,2.058995 16.500043,2.072888 16.494795,2.072888 C 16.489544,2.072888 16.485254,2.057024 16.485254,2.037605 C 16.485254,2.018199 16.481859,2.002321 16.477709,2.002321 C 16.473559,2.002321 16.467683,1.975755 16.464651,1.943285 C 16.460196,1.895568 16.461905,1.881191 16.473563,1.868308 C 16.485094,1.855566 16.485501,1.852346 16.475595,1.852259 C 16.464673,1.852162 16.437861,1.819646 16.409918,1.772606 C 16.401910,1.759126 16.397395,1.758567 16.374637,1.768244 L 16.348538,1.779341 L 16.198592,1.889734 L 16.184285,1.907711 C 16.176277,1.917774 16.164226,1.923481 16.156913,1.920674 C 16.142900,1.915297 16.105978,1.850594 16.105978,1.831416 C 16.105978,1.825043 16.095725,1.808296 16.083193,1.794200 C 16.070661,1.780103 16.056380,1.757655 16.051459,1.744313 C 16.040869,1.715609 16.023017,1.713779 15.986903,1.737698 C 15.972350,1.747336 15.953780,1.755249 15.945637,1.755281 C 15.937494,1.755313 15.925282,1.760889 15.918499,1.767672 C 15.911717,1.774455 15.881549,1.792432 15.851460,1.807622 C 15.821371,1.822811 15.789922,1.841223 15.781574,1.848536 C 15.726837,1.896485 15.708469,1.906961 15.696520,1.897043 C 15.689816,1.891480 15.681707,1.876470 15.678499,1.863688 C 15.675291,1.850906 15.659025,1.819896 15.642352,1.794776 C 15.625680,1.769655 15.612038,1.738337 15.612038,1.725179 C 15.612038,1.697756 15.597849,1.667131 15.585142,1.667131 C 15.580393,1.667131 15.565329,1.654619 15.551665,1.639326 L 15.526822,1.611520 L 15.474611,1.647484 C 15.445895,1.667264 15.399453,1.705270 15.371407,1.731941 C 15.323482,1.777515 15.317910,1.780351 15.278793,1.779062 C 15.255902,1.778309 15.232854,1.773589 15.227576,1.768575 C 15.222298,1.763560 15.215197,1.732289 15.211795,1.699083 C 15.206465,1.647060 15.207792,1.636938 15.221391,1.625904 C 15.233066,1.616431 15.234242,1.611883 15.225912,1.608428 C 15.219718,1.605860 15.207240,1.589239 15.198184,1.571494 C 15.189127,1.553749 15.173813,1.532081 15.164152,1.523344 C 15.147090,1.507913 15.144728,1.508559 15.081625,1.545939 C 15.045897,1.567104 14.999714,1.595672 14.978998,1.609425 C 14.958282,1.623177 14.940126,1.632856 14.938653,1.630934 C 14.931342,1.621395 14.906409,1.561877 14.906409,1.553963 C 14.906409,1.548978 14.901378,1.539655 14.895228,1.533244 C 14.889078,1.526833 14.876805,1.503726 14.867954,1.481894 C 14.859103,1.460063 14.845831,1.429638 14.838459,1.414284 C 14.831088,1.398930 14.827573,1.382297 14.830647,1.377322 C 14.833722,1.372346 14.828749,1.361093 14.819597,1.352313 C 14.810445,1.343534 14.798310,1.327420 14.792630,1.316504 C 14.786951,1.305589 14.776820,1.296658 14.770118,1.296658 C 14.763417,1.296658 14.756424,1.292130 14.754579,1.286595 C 14.751664,1.277849 14.700201,1.304300 14.664541,1.332874 C 14.618971,1.369388 14.597242,1.385318 14.566825,1.404513 C 14.534773,1.424739 14.520124,1.436617 14.459344,1.491658 C 14.443211,1.506268 14.432780,1.508149 14.395396,1.503189 C 14.359825,1.498470 14.350727,1.493917 14.350727,1.480833 C 14.350727,1.471796 14.342788,1.459444 14.333086,1.453385 C 14.323383,1.447325 14.315445,1.436689 14.315445,1.429748 C 14.315445,1.422807 14.308791,1.409775 14.300659,1.400788 C 14.290104,1.389125 14.288589,1.381732 14.295364,1.374957 C 14.302139,1.368181 14.291043,1.351761 14.256591,1.317582 L 14.208327,1.269699 L 14.183111,1.289794 C 14.169242,1.300846 14.143323,1.319812 14.125514,1.331941 C 14.107705,1.344069 14.066747,1.375593 14.034497,1.401994 L 13.975861,1.449995 L 13.970046,1.458555 C 13.966534,1.463725 13.959543,1.462181 13.952390,1.454657 C 13.932884,1.434138 13.895056,1.372895 13.887836,1.350145 C 13.884125,1.338453 13.874078,1.321360 13.865508,1.312161 C 13.856938,1.302962 13.847790,1.284753 13.845179,1.271696 C 13.842568,1.258639 13.824011,1.230694 13.803943,1.209597 L 13.767454,1.171237 L 13.720495,1.200870 C 13.665287,1.235706 13.636523,1.258070 13.503879,1.369284 C 13.421308,1.438514 13.428037,1.440156 13.292674,1.317746 C 13.270629,1.297810 13.248187,1.283070 13.242803,1.284991 C 13.237419,1.286911 13.223527,1.278482 13.211932,1.266260 C 13.200336,1.254038 13.187712,1.243969 13.183877,1.243885 C 13.180042,1.243801 13.164954,1.234897 13.150348,1.224098 C 13.132330,1.210776 13.121810,1.207622 13.117629,1.214287 L 13.111466,1.224111 L 12.970340,1.388450 L 12.946084,1.413799 C 12.932743,1.427740 12.921828,1.440818 12.921828,1.442859 C 12.921828,1.444900 12.907564,1.466426 12.890130,1.490695 C 12.856210,1.537911 12.835686,1.545449 12.818031,1.517178 C 12.811972,1.507475 12.801786,1.499536 12.795396,1.499536 C 12.789006,1.499536 12.774455,1.489613 12.763062,1.477484 C 12.751668,1.465355 12.738076,1.455289 12.732858,1.455115 C 12.718661,1.454640 12.680280,1.418762 12.667144,1.393686 C 12.660791,1.381558 12.634043,1.360669 12.607704,1.347267 L 12.559814,1.322899 L 12.506438,1.377505 L 12.370556,1.548034 L 12.350527,1.583325 C 12.339511,1.602736 12.326074,1.627329 12.320666,1.637978 C 12.306246,1.666373 12.284543,1.671576 12.270251,1.650063 C 12.263595,1.640045 12.253166,1.631848 12.247075,1.631848 C 12.240984,1.631848 12.230776,1.625553 12.224390,1.617858 C 12.218005,1.610164 12.196070,1.596013 12.175645,1.586412 C 12.155220,1.576811 12.121908,1.553629 12.101619,1.534897 C 12.081329,1.516165 12.059118,1.498685 12.052260,1.496054 C 12.045403,1.493422 12.039792,1.483656 12.039792,1.474352 C 12.039792,1.462886 12.031976,1.455961 12.015536,1.452861 C 12.002195,1.450345 11.973870,1.441789 11.952590,1.433847 C 11.900199,1.414293 11.903164,1.410877 11.822968,1.583203 C 11.809455,1.612240 11.797593,1.643994 11.796607,1.653769 C 11.794600,1.673688 11.754104,1.790543 11.740214,1.816498 C 11.734060,1.827998 11.734113,1.834268 11.740384,1.836358 C 11.746279,1.838323 11.744821,1.850725 11.736299,1.871123 C 11.729012,1.888563 11.721319,1.912317 11.719204,1.923910 C 11.717088,1.935502 11.710779,1.961948 11.705183,1.982678 C 11.699587,2.003409 11.697022,2.023628 11.699483,2.027610 C 11.701944,2.031592 11.700000,2.049182 11.695164,2.066699 C 11.683749,2.108039 11.646890,2.137642 11.614817,2.131227 C 11.584139,2.125091 11.554672,2.099870 11.554672,2.079748 C 11.554672,2.066798 11.546942,2.064067 11.510287,2.064067 C 11.454930,2.064067 11.396773,2.086105 11.411985,2.101317 C 11.417695,2.107027 11.422414,2.123806 11.422472,2.138603 C 11.422529,2.153400 11.428436,2.187338 11.435597,2.214021 C 11.452508,2.277027 11.452241,2.319892 11.434783,2.344818 C 11.423698,2.360645 11.422047,2.376394 11.426946,2.419552 C 11.430359,2.449627 11.436106,2.478204 11.439716,2.483055 C 11.443326,2.487906 11.448517,2.501002 11.451252,2.512156 C 11.455013,2.527499 11.452639,2.532084 11.441500,2.530987 C 11.433403,2.530190 11.422808,2.530000 11.417957,2.530565 L 11.409136,2.531592 L 11.409136,2.597001 C 11.409136,2.650072 11.405564,2.667241 11.390196,2.688026 C 11.374949,2.708648 11.372167,2.721734 11.375932,2.755134 C 11.379550,2.787241 11.377041,2.800567 11.364839,2.814051 C 11.356166,2.823635 11.344724,2.831602 11.339412,2.831755 C 11.334099,2.831909 11.318991,2.849771 11.305836,2.871449 C 11.286255,2.903719 11.277233,2.910864 11.256063,2.910864 C 11.230781,2.910864 11.214640,2.928621 11.218390,2.952310 C 11.219311,2.958125 11.205513,2.965613 11.187729,2.968949 C 11.162600,2.973664 11.153594,2.971799 11.147316,2.960581 C 11.136079,2.940501 11.125026,2.942485 11.100459,2.968994 C 11.083660,2.987122 11.068340,2.992834 11.026293,2.996646 C 10.991159,2.999832 10.967114,3.007215 10.954944,3.018554 C 10.942199,3.030428 10.926502,3.034928 10.903595,3.033274 C 10.885449,3.031964 10.864760,3.034605 10.857618,3.039144 C 10.850476,3.043683 10.814865,3.054105 10.778481,3.062303 C 10.742097,3.070502 10.690497,3.083087 10.663816,3.090270 C 10.580344,3.112742 10.532182,3.122563 10.505443,3.122563 C 10.491246,3.122563 10.477176,3.126532 10.474178,3.131384 C 10.471180,3.136235 10.460630,3.140204 10.450735,3.140204 C 10.440839,3.140204 10.420235,3.145706 10.404948,3.152430 C 10.389662,3.159154 10.345401,3.171711 10.306591,3.180335 C 10.267782,3.188959 10.230075,3.198842 10.222798,3.202296 C 10.215521,3.205750 10.185752,3.215485 10.156645,3.223929 C 10.127538,3.232373 10.095785,3.242197 10.086082,3.245760 C 10.066312,3.253018 10.025417,3.267524 9.982443,3.282520 C 9.966677,3.288021 9.947319,3.295689 9.939427,3.299558 C 9.931535,3.303427 9.909704,3.309135 9.890915,3.312241 C 9.872126,3.315348 9.848815,3.321265 9.839112,3.325390 L 9.821471,3.332890 L 9.733268,3.360632 C 9.641861,3.389381 9.600992,3.404914 9.558351,3.427112 C 9.544617,3.434262 9.528740,3.440136 9.523069,3.440166 C 9.517399,3.440196 9.500851,3.446458 9.486298,3.454082 L 9.459837,3.467944 L 9.367223,3.507983 C 9.316285,3.530005 9.242856,3.563460 9.204046,3.582327 C 9.137609,3.614625 9.071713,3.634566 8.948256,3.659732 C 8.919149,3.665666 8.871519,3.678721 8.842411,3.688744 C 8.788603,3.707274 8.736620,3.719700 8.676974,3.728290 C 8.658752,3.730914 8.641649,3.736612 8.638967,3.740951 C 8.636286,3.745289 8.616231,3.748840 8.594400,3.748840 C 8.570185,3.748840 8.556834,3.752279 8.560160,3.757660 C 8.563158,3.762512 8.557519,3.766481 8.547628,3.766481 C 8.537738,3.766481 8.514681,3.771973 8.496391,3.778685 C 8.478101,3.785398 8.437336,3.797744 8.405804,3.806122 C 8.374271,3.814500 8.340533,3.824390 8.330831,3.828101 C 8.295927,3.841448 8.214312,3.863510 8.199835,3.863510 C 8.191706,3.863510 8.178163,3.867270 8.169739,3.871865 C 8.131031,3.892980 8.050121,3.916051 8.031325,3.911333 C 8.018386,3.908085 8.007787,3.910717 8.003126,3.918336 C 7.999018,3.925049 7.969857,3.937892 7.938324,3.946875 C 7.827602,3.978417 7.765841,3.996621 7.713405,4.013170 C 7.684298,4.022356 7.638653,4.034566 7.611971,4.040303 C 7.585290,4.046040 7.554342,4.054256 7.543198,4.058561 C 7.532055,4.062866 7.511217,4.066388 7.496891,4.066388 C 7.482566,4.066388 7.470845,4.070358 7.470845,4.075209 C 7.470845,4.080061 7.458677,4.084030 7.443804,4.084030 C 7.428932,4.084030 7.408187,4.088620 7.397705,4.094230 C 7.377724,4.104924 7.340399,4.115716 7.281208,4.127914 C 7.210043,4.142579 7.077396,4.179096 7.043798,4.193272 C 7.012630,4.206422 6.938106,4.227464 6.879881,4.239554 C 6.867753,4.242073 6.849892,4.247366 6.840190,4.251318 C 6.830487,4.255270 6.804688,4.263080 6.782857,4.268673 C 6.709308,4.287518 6.619702,4.317519 6.616740,4.324291 C 6.615123,4.327988 6.606016,4.331012 6.596502,4.331012 C 6.572808,4.331012 6.464438,4.356780 6.445598,4.366894 C 6.437174,4.371416 6.420967,4.375116 6.409582,4.375116 C 6.398196,4.375116 6.386043,4.377955 6.382574,4.381424 C 6.379104,4.384893 6.359589,4.392443 6.339207,4.398201 C 6.318824,4.403958 6.272379,4.418556 6.235995,4.430640 C 6.154321,4.457766 6.115415,4.468043 6.041947,4.481897 C 6.010414,4.487843 5.963155,4.499990 5.936927,4.508889 C 5.910699,4.517789 5.873899,4.525070 5.855149,4.525070 C 5.822227,4.525070 5.771811,4.550702 5.729366,4.589021 C 5.719962,4.597511 5.709330,4.604457 5.705740,4.604457 C 5.702150,4.604457 5.693880,4.609791 5.687361,4.616309 C 5.680843,4.622828 5.658659,4.638799 5.638065,4.651801 C 5.617470,4.664802 5.575883,4.699109 5.545647,4.728037 L 5.490674,4.780635 L 5.501218,4.787593 C 5.508295,4.792262 5.509593,4.804628 5.505168,4.825200 C 5.498450,4.856423 5.500338,4.861296 5.552417,4.947165 C 5.582368,4.996550 5.587065,5.001478 5.608000,5.005488 C 5.619166,5.007626 5.640614,5.015519 5.655662,5.023026 C 5.670710,5.030534 5.687880,5.036676 5.693818,5.036676 C 5.699755,5.036676 5.709343,5.042375 5.715123,5.049340 C 5.720903,5.056306 5.738258,5.064738 5.753690,5.068079 C 5.769121,5.071419 5.792282,5.081598 5.805159,5.090698 C 5.818036,5.099797 5.834289,5.107242 5.841278,5.107242 C 5.848267,5.107242 5.861169,5.115181 5.869950,5.124884 C 5.878730,5.134587 5.893098,5.142526 5.901878,5.142526 C 5.910658,5.142526 5.922090,5.150464 5.927282,5.160167 C 5.932475,5.169870 5.942537,5.177809 5.949644,5.177809 C 5.956750,5.177809 5.962564,5.181728 5.962564,5.186519 C 5.962564,5.191310 5.977448,5.204833 5.995640,5.216570 C 6.013832,5.228308 6.041385,5.249754 6.056869,5.264229 C 6.072353,5.278703 6.096978,5.299061 6.111592,5.309467 C 6.126206,5.319874 6.155038,5.344125 6.175663,5.363359 C 6.196288,5.382592 6.215982,5.398329 6.219427,5.398329 C 6.222872,5.398329 6.244869,5.416191 6.268310,5.438022 C 6.291751,5.459854 6.316580,5.477716 6.323485,5.477716 C 6.330390,5.477716 6.343326,5.484310 6.352231,5.492369 C 6.371002,5.509358 6.398743,5.526018 6.430043,5.539099 C 6.477251,5.558830 6.496479,5.574326 6.503514,5.598309 C 6.507539,5.612032 6.514337,5.634696 6.518621,5.648675 C 6.525299,5.670468 6.520798,5.683335 6.487046,5.738938 L 6.447684,5.803785 L 6.447684,5.812756 C 6.447684,5.817690 6.444495,5.821727 6.440599,5.821727 C 6.436702,5.821727 6.423802,5.841716 6.411933,5.866148 L 6.390351,5.910569 L 6.134561,6.036758 L 6.131621,6.043913 C 6.130004,6.047848 6.123649,6.051068 6.117499,6.051068 C 6.111349,6.051068 6.087654,6.060991 6.064845,6.073120 C 6.042035,6.085248 6.015306,6.095172 6.005446,6.095172 C 5.995586,6.095172 5.974958,6.109723 5.959606,6.127507 C 5.908925,6.186217 5.863436,6.227660 5.835627,6.240458 C 5.788038,6.262359 5.711738,6.289220 5.697103,6.289225 C 5.673827,6.289232 5.627624,6.315955 5.613430,6.337620 C 5.592151,6.370096 5.588194,6.416455 5.604270,6.444928 C 5.612073,6.458748 5.626005,6.488271 5.635231,6.510533 C 5.651118,6.548869 5.654840,6.551806 5.705562,6.566039 C 5.735018,6.574304 5.761614,6.585105 5.764664,6.590041 C 5.768139,6.595663 5.788839,6.596641 5.820080,6.592659 C 5.847509,6.589163 5.893765,6.585260 5.922872,6.583986 C 5.993477,6.580894 6.045028,6.571301 6.052298,6.559900 C 6.058363,6.550390 6.093743,6.558458 6.169842,6.586705 C 6.189247,6.593908 6.214141,6.600835 6.225163,6.602098 C 6.236185,6.603361 6.252062,6.610382 6.260445,6.617700 C 6.268828,6.625019 6.290172,6.633599 6.307877,6.636767 C 6.325581,6.639936 6.344921,6.648377 6.350853,6.655526 C 6.356786,6.662675 6.367247,6.668524 6.374101,6.668524 C 6.380954,6.668524 6.397156,6.675470 6.410104,6.683960 C 6.435956,6.700910 6.512639,6.703313 6.684726,6.692564 C 6.758364,6.687964 6.781387,6.689513 6.802626,6.700497 C 6.817143,6.708004 6.837120,6.712028 6.847020,6.709439 C 6.856920,6.706850 6.879279,6.710803 6.896707,6.718222 C 6.914134,6.725642 6.942285,6.733480 6.959264,6.735638 C 6.976244,6.737797 6.998074,6.742084 7.007776,6.745165 C 7.066983,6.763965 7.358587,6.774910 7.506127,6.763870 L 7.607561,6.756280 L 7.630292,6.747247 C 7.664182,6.733778 7.757554,6.751309 7.796801,6.778508 C 7.814521,6.790788 7.835265,6.800836 7.842900,6.800836 C 7.850535,6.800836 7.861722,6.806790 7.867762,6.814067 C 7.873801,6.821344 7.887187,6.827323 7.897508,6.827352 C 7.907829,6.827382 7.927642,6.833336 7.941538,6.840584 C 7.955433,6.847831 7.973403,6.853761 7.981472,6.853761 C 7.989540,6.853761 8.004878,6.859880 8.015555,6.867359 C 8.037781,6.882927 8.176908,6.891276 8.209974,6.879026 C 8.221744,6.874666 8.247049,6.875284 8.270326,6.880500 C 8.315867,6.890707 8.443673,6.877472 8.492061,6.857539 C 8.533323,6.840541 8.583047,6.839553 8.613401,6.855127 C 8.666517,6.882379 8.720204,6.904357 8.767438,6.918184 C 8.794120,6.925994 8.835796,6.938216 8.860052,6.945343 C 8.909223,6.959791 9.048986,6.983856 9.124082,6.990805 C 9.264950,7.003840 9.522389,6.990353 9.600962,6.965823 C 9.625218,6.958250 9.676818,6.945256 9.715627,6.936948 C 9.754437,6.928640 9.790159,6.918979 9.795010,6.915480 C 9.799862,6.911981 9.815175,6.906403 9.829040,6.903084 C 9.891023,6.888248 10.007480,6.823331 10.167243,6.714560 C 10.192779,6.697174 10.203057,6.695320 10.242873,6.700923 C 10.268216,6.704489 10.292920,6.706092 10.297771,6.704485 C 10.302622,6.702878 10.310560,6.701786 10.315412,6.702059 L 10.324232,6.702556 L 10.632945,6.731030 L 10.690277,6.734837 C 10.721810,6.736931 10.777378,6.740859 10.813762,6.743566 C 10.850146,6.746273 10.922568,6.749351 10.974700,6.750405 L 11.069484,6.752321 L 11.069518,6.758937 C 11.069537,6.762576 11.075020,6.765553 11.081703,6.765553 C 11.088386,6.765553 11.099133,6.771914 11.105585,6.779689 C 11.116237,6.792525 11.118666,6.792161 11.131964,6.775737 C 11.141538,6.763914 11.161527,6.755816 11.189670,6.752360 L 11.232729,6.747073 L 11.664927,6.740162 L 11.766361,6.738973 C 11.822150,6.738319 11.903518,6.740176 11.947178,6.743099 C 11.990839,6.746022 12.054346,6.749824 12.088304,6.751548 L 12.150047,6.754681 L 12.405837,6.769294 L 12.427888,6.769115 C 12.440016,6.769016 12.455893,6.767704 12.463169,6.766199 C 12.506731,6.757188 12.545261,6.766586 12.569014,6.792015 C 12.582609,6.806569 12.597805,6.818477 12.602784,6.818477 C 12.607762,6.818477 12.619069,6.827516 12.627911,6.838563 C 12.636753,6.849610 12.661420,6.872434 12.682727,6.889283 C 12.704035,6.906131 12.731819,6.929843 12.744470,6.941975 C 12.757121,6.954106 12.780512,6.973953 12.796450,6.986079 C 12.812388,6.998204 12.842333,7.024002 12.862993,7.043408 C 12.883654,7.062813 12.921671,7.096553 12.947476,7.118384 C 12.973282,7.140216 12.999614,7.163040 13.005994,7.169104 C 13.012373,7.175168 13.020852,7.180280 13.024837,7.180464 C 13.028822,7.180648 13.045975,7.198550 13.062954,7.220247 C 13.079933,7.241944 13.100771,7.261908 13.109261,7.264611 C 13.117750,7.267315 13.124696,7.272768 13.124696,7.276730 C 13.124696,7.280692 13.142790,7.301263 13.164904,7.322445 C 13.187018,7.343626 13.209840,7.366203 13.215621,7.372615 C 13.243858,7.403937 13.293948,7.454961 13.307719,7.466431 C 13.316209,7.473501 13.336226,7.492356 13.352203,7.508329 L 13.381252,7.537372 L 13.564466,7.718199 L 13.573911,7.718199 C 13.579105,7.718199 13.583355,7.721481 13.583355,7.725492 C 13.583355,7.737482 13.658172,7.815228 13.669711,7.815228 C 13.675578,7.815228 13.680379,7.818397 13.680379,7.822271 C 13.680379,7.832376 13.749988,7.903436 13.759887,7.903436 C 13.764446,7.903436 13.775182,7.914351 13.783745,7.927693 C 13.792308,7.941034 13.806291,7.959645 13.814819,7.969050 C 13.823348,7.978454 13.830325,7.989370 13.830325,7.993307 C 13.830325,7.997243 13.835310,8.000464 13.841403,8.000464 C 13.847495,8.000464 13.857398,8.011574 13.863408,8.025153 C 13.869418,8.038732 13.887451,8.064161 13.903481,8.081662 C 13.919511,8.099164 13.944172,8.130144 13.958283,8.150508 C 13.972394,8.170871 13.994030,8.191091 14.006362,8.195441 C 14.018694,8.199791 14.036179,8.207632 14.045219,8.212866 C 14.054258,8.218100 14.069686,8.223929 14.079503,8.225820 C 14.089320,8.227710 14.104067,8.235335 14.112274,8.242762 C 14.120481,8.250190 14.133709,8.256267 14.141669,8.256267 C 14.149629,8.256267 14.171147,8.265035 14.189487,8.275752 C 14.215848,8.291155 14.237077,8.295312 14.290858,8.295598 C 14.343537,8.295879 14.362370,8.299444 14.374336,8.311397 "/>
        <path style="fill:none;stroke-width:0.010000;stroke-linecap:round;stroke-linejoin:round;stroke-opacity:1;stroke:#000000;" d="M 21.371734,5.699255 C 21.371734,5.694964 21.351888,5.691753 21.327632,5.692119 C 21.303376,5.692485 21.283530,5.695996 21.283530,5.699921 C 21.283530,5.703845 21.303376,5.707057 21.327632,5.707057 C 21.351888,5.707057 21.371734,5.703546 21.371734,5.699255 "/>
    </g>
    <g inkscape:groupmode="layer" id="fe12dbf5-873d-42ad-a098-ab3da5c8465f" inkscape:label="Walleye STL" style="stroke:#000000;"/>
    <g inkscape:groupmode="layer" id="7a79e127-0fb7-414d-9570-4457f9046a52" inkscape:label="Dish" style="stroke:#3366ff;">
        <path style="fill:none;stroke-width:0.010000;stroke-linecap:round;stroke-linejoin:round;stroke-opacity:1;stroke:#3366ff;" d="M 8.011868,8.500026 L 24.742477,8.499949 C 25.315368,8.423625 25.830432,8.190465 26.278326,8.038764 C 27.826239,7.514490 28.729220,6.279882 28.567565,4.884478 C 28.378356,3.251224 24.956135,1.468739 19.885313,1.000091 L 12.221623,0.999995 C 7.506177,1.550276 4.367310,3.320954 4.186179,4.884478 C 4.024524,6.279882 4.927505,7.514490 6.475417,8.038764 C 6.923616,8.190568 7.439075,8.423772 8.011868,8.500026 "/>
    </g>
</svg>
