<?xml version="1.0" encoding="UTF-8"?>
<!-- Created by Vectric (http://www.vectric.com/) -->
<svg width="4.00000000in" height="1.56250000in" viewBox="0.00000000 0.00000000 4.00000000 1.56250000" id="svg2" version="1.1" xmlns="http://www.w3.org/2000/svg" xmlns:xlink="http://www.w3.org/1999/xlink" xmlns:inkscape="http://www.inkscape.org/namespaces/inkscape">
    <g inkscape:groupmode="layer" id="85667243-1302-4a85-b3ac-c7bf39b332ec" inkscape:label="Toolpath Previews" style="stroke:#000000;"/>
    <g inkscape:groupmode="layer" id="3e8d438a-8d3b-467d-9c64-0820e64d297d" inkscape:label="Layer 1" style="stroke:#000000;">
        <path style="fill:none;stroke-width:0.010000;stroke-linecap:round;stroke-linejoin:round;stroke-opacity:1;stroke:#000000;" d="M 0.341760,1.457872 L 0.326649,1.499387 L 0.199400,1.499387 L 0.199400,1.493502 C 0.236832,1.459356 0.263184,1.431468 0.278454,1.409835 C 0.293723,1.388203 0.301358,1.368426 0.301358,1.350505 C 0.301358,1.336826 0.297170,1.325586 0.288793,1.316784 C 0.280415,1.307983 0.270394,1.303582 0.258730,1.303582 C 0.248126,1.303582 0.238609,1.306684 0.230178,1.312887 C 0.221748,1.319091 0.215518,1.328184 0.211489,1.340166 L 0.205603,1.340166 C 0.208254,1.320549 0.215068,1.305491 0.226043,1.294993 C 0.237018,1.284495 0.250724,1.279246 0.267160,1.279246 C 0.284657,1.279246 0.299264,1.284866 0.310982,1.296106 C 0.322699,1.307347 0.328558,1.320602 0.328558,1.335872 C 0.328558,1.346794 0.326013,1.357716 0.320923,1.368638 C 0.313076,1.385817 0.300351,1.404003 0.282748,1.423196 C 0.256344,1.452040 0.239855,1.469430 0.233280,1.475369 L 0.289588,1.475369 C 0.301040,1.475369 0.309073,1.474944 0.313686,1.474096 C 0.318298,1.473248 0.322461,1.471525 0.326172,1.468927 C 0.329883,1.466329 0.333118,1.462644 0.335875,1.457872 L 0.341760,1.457872 "/>
        <path style="fill:none;stroke-width:0.010000;stroke-linecap:round;stroke-linejoin:round;stroke-opacity:1;stroke:#000000;" d="M 0.504639,1.457872 L 0.489528,1.499387 L 0.362279,1.499387 L 0.362279,1.493502 C 0.399711,1.459356 0.426063,1.431468 0.441333,1.409835 C 0.456603,1.388203 0.464237,1.368426 0.464237,1.350505 C 0.464237,1.336826 0.460049,1.325586 0.451672,1.316784 C 0.443294,1.307983 0.433273,1.303582 0.421609,1.303582 C 0.411005,1.303582 0.401488,1.306684 0.393057,1.312887 C 0.384627,1.319091 0.378397,1.328184 0.374368,1.340166 L 0.368482,1.340166 C 0.371133,1.320549 0.377947,1.305491 0.388922,1.294993 C 0.399897,1.284495 0.413603,1.279246 0.430039,1.279246 C 0.447536,1.279246 0.462143,1.284866 0.473861,1.296106 C 0.485578,1.307347 0.491437,1.320602 0.491437,1.335872 C 0.491437,1.346794 0.488892,1.357716 0.483802,1.368638 C 0.475955,1.385817 0.463230,1.404003 0.445627,1.423196 C 0.419223,1.452040 0.402734,1.469430 0.396159,1.475369 L 0.452467,1.475369 C 0.463919,1.475369 0.471952,1.474944 0.476565,1.474096 C 0.481178,1.473248 0.485340,1.471525 0.489051,1.468927 C 0.492762,1.466329 0.495997,1.462644 0.498754,1.457872 L 0.504639,1.457872 "/>
        <path style="fill:none;stroke-width:0.010000;stroke-linecap:round;stroke-linejoin:round;stroke-opacity:1;stroke:#000000;" d="M 0.531361,1.414289 L 0.613596,1.414289 L 0.613596,1.438307 L 0.531361,1.438307 L 0.531361,1.414289 "/>
        <path style="fill:none;stroke-width:0.010000;stroke-linecap:round;stroke-linejoin:round;stroke-opacity:1;stroke:#000000;" d="M 0.638410,1.392816 C 0.638410,1.368214 0.642121,1.347032 0.649544,1.329271 C 0.656967,1.311509 0.666829,1.298280 0.679130,1.289585 C 0.688673,1.282692 0.698535,1.279246 0.708715,1.279246 C 0.725257,1.279246 0.740103,1.287676 0.753252,1.304536 C 0.769689,1.325427 0.777907,1.353739 0.777907,1.389475 C 0.777907,1.414501 0.774301,1.435762 0.767091,1.453259 C 0.759880,1.470756 0.750681,1.483454 0.739493,1.491354 C 0.728306,1.499254 0.717516,1.503204 0.707124,1.503204 C 0.686552,1.503204 0.669427,1.491063 0.655748,1.466779 C 0.644189,1.446313 0.638410,1.421659 0.638410,1.392816 "/>
        <path style="fill:none;stroke-width:0.010000;stroke-linecap:round;stroke-linejoin:round;stroke-opacity:1;stroke:#000000;" d="M 0.669586,1.396792 C 0.669586,1.426484 0.673244,1.450714 0.680561,1.469483 C 0.686605,1.485283 0.695619,1.493183 0.707602,1.493183 C 0.713328,1.493183 0.719266,1.490612 0.725417,1.485469 C 0.731567,1.480326 0.736233,1.471710 0.739414,1.459621 C 0.744292,1.441382 0.746731,1.415667 0.746731,1.382477 C 0.746731,1.357875 0.744186,1.337356 0.739096,1.320920 C 0.735278,1.308725 0.730347,1.300083 0.724303,1.294993 C 0.719955,1.291493 0.714706,1.289744 0.708556,1.289744 C 0.701345,1.289744 0.694930,1.292978 0.689310,1.299446 C 0.681675,1.308248 0.676479,1.322086 0.673722,1.340962 C 0.670964,1.359837 0.669586,1.378447 0.669586,1.396792 "/>
        <path style="fill:none;stroke-width:0.010000;stroke-linecap:round;stroke-linejoin:round;stroke-opacity:1;stroke:#000000;" d="M 0.935537,1.279246 L 0.935537,1.285131 C 0.921539,1.286509 0.910113,1.289293 0.901259,1.293482 C 0.892405,1.297670 0.883656,1.304059 0.875014,1.312649 C 0.866372,1.321238 0.859214,1.330808 0.853541,1.341359 C 0.847867,1.351910 0.843122,1.364450 0.839305,1.378977 C 0.854574,1.368479 0.869897,1.363230 0.885273,1.363230 C 0.900013,1.363230 0.912791,1.369168 0.923607,1.381045 C 0.934423,1.392922 0.939831,1.408192 0.939831,1.426855 C 0.939831,1.444882 0.934370,1.461318 0.923448,1.476164 C 0.910299,1.494191 0.892908,1.503204 0.871276,1.503204 C 0.856536,1.503204 0.844023,1.498326 0.833737,1.488571 C 0.813590,1.469589 0.803516,1.444988 0.803516,1.414766 C 0.803516,1.395467 0.807386,1.377122 0.815127,1.359731 C 0.822868,1.342340 0.833923,1.326911 0.848292,1.313444 C 0.862660,1.299977 0.876419,1.290910 0.889568,1.286244 C 0.902717,1.281579 0.914965,1.279246 0.926311,1.279246 L 0.935537,1.279246 "/>
        <path style="fill:none;stroke-width:0.010000;stroke-linecap:round;stroke-linejoin:round;stroke-opacity:1;stroke:#000000;" d="M 0.836601,1.390589 C 0.834692,1.404904 0.833737,1.416463 0.833737,1.425264 C 0.833737,1.435444 0.835620,1.446499 0.839384,1.458428 C 0.843149,1.470358 0.848742,1.479822 0.856165,1.486821 C 0.861573,1.491805 0.868148,1.494297 0.875889,1.494297 C 0.885114,1.494297 0.893359,1.489949 0.900623,1.481254 C 0.907887,1.472558 0.911519,1.460152 0.911519,1.444033 C 0.911519,1.425900 0.907913,1.410206 0.900702,1.396951 C 0.893492,1.383696 0.883259,1.377069 0.870003,1.377069 C 0.865974,1.377069 0.861653,1.377917 0.857040,1.379614 C 0.852427,1.381310 0.845614,1.384969 0.836601,1.390589 "/>
        <path style="fill:none;stroke-width:0.010000;stroke-linecap:round;stroke-linejoin:round;stroke-opacity:1;stroke:#000000;" d="M 0.965599,1.414289 L 1.047834,1.414289 L 1.047834,1.438307 L 0.965599,1.438307 L 0.965599,1.414289 "/>
        <path style="fill:none;stroke-width:0.010000;stroke-linecap:round;stroke-linejoin:round;stroke-opacity:1;stroke:#000000;" d="M 1.099052,1.304855 L 1.151542,1.279246 L 1.156791,1.279246 L 1.156791,1.461371 C 1.156791,1.473460 1.157295,1.480989 1.158302,1.483958 C 1.159310,1.486927 1.161404,1.489207 1.164585,1.490798 C 1.167767,1.492388 1.174235,1.493289 1.183991,1.493502 L 1.183991,1.499387 L 1.102870,1.499387 L 1.102870,1.493502 C 1.113049,1.493289 1.119624,1.492415 1.122593,1.490877 C 1.125562,1.489339 1.127630,1.487272 1.128797,1.484674 C 1.129963,1.482076 1.130546,1.474308 1.130546,1.461371 L 1.130546,1.344938 C 1.130546,1.329244 1.130016,1.319170 1.128956,1.314716 C 1.128213,1.311323 1.126861,1.308831 1.124900,1.307241 C 1.122938,1.305650 1.120578,1.304855 1.117821,1.304855 C 1.113898,1.304855 1.108437,1.306498 1.101438,1.309785 L 1.099052,1.304855 "/>
        <path style="fill:none;stroke-width:0.010000;stroke-linecap:round;stroke-linejoin:round;stroke-opacity:1;stroke:#000000;" d="M 1.369775,1.279246 L 1.369775,1.285131 C 1.355777,1.286509 1.344351,1.289293 1.335497,1.293482 C 1.326643,1.297670 1.317894,1.304059 1.309252,1.312649 C 1.300610,1.321238 1.293452,1.330808 1.287779,1.341359 C 1.282105,1.351910 1.277360,1.364450 1.273543,1.378977 C 1.288812,1.368479 1.304135,1.363230 1.319511,1.363230 C 1.334251,1.363230 1.347029,1.369168 1.357845,1.381045 C 1.368661,1.392922 1.374069,1.408192 1.374069,1.426855 C 1.374069,1.444882 1.368608,1.461318 1.357686,1.476164 C 1.344537,1.494191 1.327146,1.503204 1.305514,1.503204 C 1.290774,1.503204 1.278261,1.498326 1.267975,1.488571 C 1.247828,1.469589 1.237754,1.444988 1.237754,1.414766 C 1.237754,1.395467 1.241624,1.377122 1.249365,1.359731 C 1.257106,1.342340 1.268161,1.326911 1.282530,1.313444 C 1.296898,1.299977 1.310657,1.290910 1.323806,1.286244 C 1.336955,1.281579 1.349203,1.279246 1.360549,1.279246 L 1.369775,1.279246 "/>
        <path style="fill:none;stroke-width:0.010000;stroke-linecap:round;stroke-linejoin:round;stroke-opacity:1;stroke:#000000;" d="M 1.270839,1.390589 C 1.268930,1.404904 1.267975,1.416463 1.267975,1.425264 C 1.267975,1.435444 1.269858,1.446499 1.273622,1.458428 C 1.277387,1.470358 1.282980,1.479822 1.290403,1.486821 C 1.295811,1.491805 1.302386,1.494297 1.310127,1.494297 C 1.319352,1.494297 1.327597,1.489949 1.334861,1.481254 C 1.342125,1.472558 1.345756,1.460152 1.345756,1.444033 C 1.345756,1.425900 1.342151,1.410206 1.334940,1.396951 C 1.327730,1.383696 1.317497,1.377069 1.304241,1.377069 C 1.300212,1.377069 1.295891,1.377917 1.291278,1.379614 C 1.286665,1.381310 1.279852,1.384969 1.270839,1.390589 "/>
        <path style="fill:none;stroke-width:0.010000;stroke-linecap:round;stroke-linejoin:round;stroke-opacity:1;stroke:#000000;" d="M 1.399837,1.414289 L 1.482072,1.414289 L 1.482072,1.438307 L 1.399837,1.438307 L 1.399837,1.414289 "/>
        <path style="fill:none;stroke-width:0.010000;stroke-linecap:round;stroke-linejoin:round;stroke-opacity:1;stroke:#000000;" d="M 1.646701,1.419856 L 1.646701,1.442443 L 1.617752,1.442443 L 1.617752,1.499387 L 1.591507,1.499387 L 1.591507,1.442443 L 1.500205,1.442443 L 1.500205,1.422083 L 1.600255,1.279246 L 1.617752,1.279246 L 1.617752,1.419856 L 1.646701,1.419856 "/>
        <path style="fill:none;stroke-width:0.010000;stroke-linecap:round;stroke-linejoin:round;stroke-opacity:1;stroke:#000000;" d="M 1.591507,1.419856 L 1.591507,1.312808 L 1.515793,1.419856 L 1.591507,1.419856 "/>
        <path style="fill:none;stroke-width:0.010000;stroke-linecap:round;stroke-linejoin:round;stroke-opacity:1;stroke:#000000;" d="M 1.799400,1.283699 L 1.786993,1.310740 L 1.722096,1.310740 L 1.707940,1.339689 C 1.736040,1.343825 1.758309,1.354270 1.774745,1.371024 C 1.788849,1.385446 1.795901,1.402412 1.795901,1.421924 C 1.795901,1.433270 1.793594,1.443768 1.788981,1.453418 C 1.784369,1.463068 1.778563,1.471286 1.771564,1.478073 C 1.764566,1.484859 1.756772,1.490320 1.748182,1.494456 C 1.735987,1.500288 1.723475,1.503204 1.710644,1.503204 C 1.697707,1.503204 1.688296,1.501004 1.682410,1.496603 C 1.676525,1.492203 1.673582,1.487351 1.673582,1.482049 C 1.673582,1.479080 1.674802,1.476455 1.677241,1.474176 C 1.679680,1.471896 1.682755,1.470756 1.686466,1.470756 C 1.689223,1.470756 1.691636,1.471180 1.693704,1.472028 C 1.695771,1.472877 1.699297,1.475050 1.704281,1.478550 C 1.712234,1.484064 1.720293,1.486821 1.728459,1.486821 C 1.740865,1.486821 1.751761,1.482129 1.761146,1.472744 C 1.770530,1.463359 1.775223,1.451933 1.775223,1.438466 C 1.775223,1.425423 1.771034,1.413255 1.762657,1.401962 C 1.754280,1.390668 1.742721,1.381946 1.727981,1.375796 C 1.716423,1.371024 1.700676,1.368267 1.680740,1.367525 L 1.722096,1.283699 L 1.799400,1.283699 "/>
        <path style="fill:none;stroke-width:0.010000;stroke-linecap:round;stroke-linejoin:round;stroke-opacity:1;stroke:#000000;" d="M 0.443236,1.037044 L 0.538064,1.131303 C 0.553616,1.146854 0.566891,1.157443 0.577891,1.163070 C 0.588891,1.168696 0.599891,1.171889 0.610891,1.172647 L 0.610891,1.179665 L 0.488564,1.179665 L 0.488564,1.172647 C 0.495897,1.172647 0.501176,1.171415 0.504400,1.168949 C 0.507624,1.166484 0.509236,1.163734 0.509236,1.160699 C 0.509236,1.157665 0.508636,1.154946 0.507434,1.152544 C 0.506233,1.150142 0.502282,1.145653 0.495581,1.139078 L 0.406822,1.051268 L 0.406822,1.134147 C 0.406822,1.147170 0.407644,1.155768 0.409288,1.159941 C 0.410552,1.163101 0.413207,1.165820 0.417253,1.168096 C 0.422690,1.171130 0.428443,1.172647 0.434512,1.172647 L 0.443236,1.172647 L 0.443236,1.179665 L 0.333616,1.179665 L 0.333616,1.172647 L 0.342719,1.172647 C 0.353340,1.172647 0.361052,1.169550 0.365857,1.163354 C 0.368891,1.159308 0.370409,1.149573 0.370409,1.134147 L 0.370409,0.968009 C 0.370409,0.954986 0.369587,0.946326 0.367943,0.942027 C 0.366679,0.938992 0.364087,0.936337 0.360167,0.934061 C 0.354604,0.931027 0.348788,0.929509 0.342719,0.929509 L 0.333616,0.929509 L 0.333616,0.922492 L 0.443236,0.922492 L 0.443236,0.929509 L 0.434512,0.929509 C 0.428570,0.929509 0.422817,0.930964 0.417253,0.933872 C 0.413334,0.935895 0.410616,0.938929 0.409098,0.942975 C 0.407581,0.947021 0.406822,0.955366 0.406822,0.968009 L 0.406822,1.046716 C 0.409351,1.044314 0.418012,1.036285 0.432805,1.022630 C 0.470357,0.988239 0.493052,0.965291 0.500891,0.953785 C 0.504305,0.948728 0.506012,0.944303 0.506012,0.940509 C 0.506012,0.937601 0.504684,0.935041 0.502029,0.932828 C 0.499374,0.930616 0.494886,0.929509 0.488564,0.929509 L 0.482684,0.929509 L 0.482684,0.922492 L 0.577133,0.922492 L 0.577133,0.929509 C 0.571570,0.929636 0.566512,0.930395 0.561960,0.931785 C 0.557409,0.933176 0.551845,0.935863 0.545271,0.939846 C 0.538696,0.943828 0.530604,0.950245 0.520995,0.959096 C 0.518213,0.961624 0.505380,0.974584 0.482495,0.997975 L 0.443236,1.037044 "/>
        <path style="fill:none;stroke-width:0.010000;stroke-linecap:round;stroke-linejoin:round;stroke-opacity:1;stroke:#000000;" d="M 0.679547,0.909975 L 0.679547,1.140406 C 0.679547,1.151280 0.680337,1.158486 0.681917,1.162027 C 0.683498,1.165567 0.685932,1.168254 0.689219,1.170087 C 0.692506,1.171920 0.698639,1.172837 0.707616,1.172837 L 0.707616,1.179665 L 0.622460,1.179665 L 0.622460,1.172837 C 0.630426,1.172837 0.635863,1.172015 0.638771,1.170372 C 0.641679,1.168728 0.643955,1.166009 0.645598,1.162216 C 0.647242,1.158423 0.648064,1.151153 0.648064,1.140406 L 0.648064,0.982613 C 0.648064,0.963015 0.647621,0.950972 0.646736,0.946484 C 0.645851,0.941995 0.644429,0.938929 0.642469,0.937285 C 0.640509,0.935642 0.638012,0.934820 0.634978,0.934820 C 0.631690,0.934820 0.627518,0.935831 0.622460,0.937854 L 0.619236,0.931216 L 0.671012,0.909975 L 0.679547,0.909975 "/>
        <path style="fill:none;stroke-width:0.010000;stroke-linecap:round;stroke-linejoin:round;stroke-opacity:1;stroke:#000000;" d="M 0.756926,1.071372 C 0.756799,1.097165 0.763058,1.117395 0.775702,1.132061 C 0.788345,1.146728 0.803202,1.154061 0.820271,1.154061 C 0.831650,1.154061 0.841544,1.150932 0.849952,1.144673 C 0.858360,1.138415 0.865409,1.127699 0.871098,1.112527 L 0.876978,1.116320 C 0.874322,1.133642 0.866610,1.149415 0.853840,1.163639 C 0.841070,1.177863 0.825075,1.184975 0.805857,1.184975 C 0.784995,1.184975 0.767136,1.176851 0.752279,1.160604 C 0.737423,1.144357 0.729995,1.122515 0.729995,1.095078 C 0.729995,1.065366 0.737613,1.042196 0.752848,1.025570 C 0.768084,1.008943 0.787207,1.000630 0.810219,1.000630 C 0.829690,1.000630 0.845684,1.007047 0.858202,1.019880 C 0.870719,1.032714 0.876978,1.049877 0.876978,1.071372 L 0.756926,1.071372 "/>
        <path style="fill:none;stroke-width:0.010000;stroke-linecap:round;stroke-linejoin:round;stroke-opacity:1;stroke:#000000;" d="M 0.756926,1.060372 L 0.837340,1.060372 C 0.836707,1.049245 0.835380,1.041406 0.833357,1.036854 C 0.830196,1.029774 0.825486,1.024211 0.819228,1.020165 C 0.812969,1.016119 0.806426,1.014096 0.799598,1.014096 C 0.789104,1.014096 0.779716,1.018173 0.771434,1.026328 C 0.763153,1.034484 0.758317,1.045831 0.756926,1.060372 "/>
        <path style="fill:none;stroke-width:0.010000;stroke-linecap:round;stroke-linejoin:round;stroke-opacity:1;stroke:#000000;" d="M 0.929322,1.071372 C 0.929196,1.097165 0.935455,1.117395 0.948098,1.132061 C 0.960742,1.146728 0.975598,1.154061 0.992667,1.154061 C 1.004047,1.154061 1.013940,1.150932 1.022348,1.144673 C 1.030756,1.138415 1.037805,1.127699 1.043495,1.112527 L 1.049374,1.116320 C 1.046719,1.133642 1.039006,1.149415 1.026236,1.163639 C 1.013466,1.177863 0.997472,1.184975 0.978253,1.184975 C 0.957391,1.184975 0.939532,1.176851 0.924676,1.160604 C 0.909820,1.144357 0.902391,1.122515 0.902391,1.095078 C 0.902391,1.065366 0.910009,1.042196 0.925245,1.025570 C 0.940480,1.008943 0.959604,1.000630 0.982616,1.000630 C 1.002087,1.000630 1.018081,1.007047 1.030598,1.019880 C 1.043116,1.032714 1.049374,1.049877 1.049374,1.071372 L 0.929322,1.071372 "/>
        <path style="fill:none;stroke-width:0.010000;stroke-linecap:round;stroke-linejoin:round;stroke-opacity:1;stroke:#000000;" d="M 0.929322,1.060372 L 1.009736,1.060372 C 1.009104,1.049245 1.007776,1.041406 1.005753,1.036854 C 1.002593,1.029774 0.997883,1.024211 0.991624,1.020165 C 0.985366,1.016119 0.978822,1.014096 0.971995,1.014096 C 0.961501,1.014096 0.952113,1.018173 0.943831,1.026328 C 0.935549,1.034484 0.930713,1.045831 0.929322,1.060372 "/>
        <path style="fill:none;stroke-width:0.010000;stroke-linecap:round;stroke-linejoin:round;stroke-opacity:1;stroke:#000000;" d="M 1.140409,1.019596 L 1.140409,1.133768 C 1.140409,1.149952 1.142179,1.160193 1.145719,1.164492 C 1.150397,1.170055 1.156656,1.172837 1.164495,1.172837 L 1.180236,1.172837 L 1.180236,1.179665 L 1.076495,1.179665 L 1.076495,1.172837 L 1.084271,1.172837 C 1.089328,1.172837 1.093943,1.171573 1.098116,1.169044 C 1.102288,1.166515 1.105164,1.163101 1.106745,1.158803 C 1.108325,1.154504 1.109116,1.146159 1.109116,1.133768 L 1.109116,1.019596 L 1.075357,1.019596 L 1.075357,1.005941 L 1.109116,1.005941 L 1.109116,0.994561 C 1.109116,0.977239 1.111897,0.962573 1.117460,0.950561 C 1.123024,0.938550 1.131526,0.928846 1.142969,0.921449 C 1.154411,0.914053 1.167276,0.910354 1.181564,0.910354 C 1.194840,0.910354 1.207041,0.914653 1.218167,0.923251 C 1.225501,0.928941 1.229167,0.935326 1.229167,0.942406 C 1.229167,0.946199 1.227524,0.949771 1.224236,0.953122 C 1.220949,0.956472 1.217409,0.958147 1.213616,0.958147 C 1.210707,0.958147 1.207641,0.957104 1.204417,0.955018 C 1.201193,0.952932 1.197242,0.948443 1.192564,0.941553 C 1.187886,0.934662 1.183587,0.930015 1.179667,0.927613 C 1.175748,0.925211 1.171386,0.924009 1.166581,0.924009 C 1.160765,0.924009 1.155834,0.925558 1.151788,0.928656 C 1.147742,0.931754 1.144834,0.936558 1.143064,0.943070 C 1.141294,0.949581 1.140409,0.966366 1.140409,0.993423 L 1.140409,1.005941 L 1.185167,1.005941 L 1.185167,1.019596 L 1.140409,1.019596 "/>
        <path style="fill:none;stroke-width:0.010000;stroke-linecap:round;stroke-linejoin:round;stroke-opacity:1;stroke:#000000;" d="M 1.231064,1.071372 C 1.230937,1.097165 1.237196,1.117395 1.249840,1.132061 C 1.262483,1.146728 1.277340,1.154061 1.294409,1.154061 C 1.305788,1.154061 1.315682,1.150932 1.324090,1.144673 C 1.332498,1.138415 1.339547,1.127699 1.345236,1.112527 L 1.351116,1.116320 C 1.348460,1.133642 1.340748,1.149415 1.327978,1.163639 C 1.315207,1.177863 1.299213,1.184975 1.279995,1.184975 C 1.259133,1.184975 1.241274,1.176851 1.226417,1.160604 C 1.211561,1.144357 1.204133,1.122515 1.204133,1.095078 C 1.204133,1.065366 1.211751,1.042196 1.226986,1.025570 C 1.242222,1.008943 1.261345,1.000630 1.284357,1.000630 C 1.303828,1.000630 1.319822,1.007047 1.332340,1.019880 C 1.344857,1.032714 1.351116,1.049877 1.351116,1.071372 L 1.231064,1.071372 "/>
        <path style="fill:none;stroke-width:0.010000;stroke-linecap:round;stroke-linejoin:round;stroke-opacity:1;stroke:#000000;" d="M 1.231064,1.060372 L 1.311478,1.060372 C 1.310845,1.049245 1.309518,1.041406 1.307495,1.036854 C 1.304334,1.029774 1.299624,1.024211 1.293366,1.020165 C 1.287107,1.016119 1.280564,1.014096 1.273736,1.014096 C 1.263242,1.014096 1.253854,1.018173 1.245572,1.026328 C 1.237291,1.034484 1.232455,1.045831 1.231064,1.060372 "/>
        <path style="fill:none;stroke-width:0.010000;stroke-linecap:round;stroke-linejoin:round;stroke-opacity:1;stroke:#000000;" d="M 1.433995,0.909975 L 1.433995,1.140406 C 1.433995,1.151280 1.434785,1.158486 1.436366,1.162027 C 1.437946,1.165567 1.440380,1.168254 1.443667,1.170087 C 1.446955,1.171920 1.453087,1.172837 1.462064,1.172837 L 1.462064,1.179665 L 1.376909,1.179665 L 1.376909,1.172837 C 1.384874,1.172837 1.390311,1.172015 1.393219,1.170372 C 1.396127,1.168728 1.398403,1.166009 1.400047,1.162216 C 1.401690,1.158423 1.402512,1.151153 1.402512,1.140406 L 1.402512,0.982613 C 1.402512,0.963015 1.402070,0.950972 1.401184,0.946484 C 1.400299,0.941995 1.398877,0.938929 1.396917,0.937285 C 1.394957,0.935642 1.392460,0.934820 1.389426,0.934820 C 1.386139,0.934820 1.381966,0.935831 1.376909,0.937854 L 1.373684,0.931216 L 1.425460,0.909975 L 1.433995,0.909975 "/>
        <path style="fill:none;stroke-width:0.010000;stroke-linecap:round;stroke-linejoin:round;stroke-opacity:1;stroke:#000000;" d="M 1.604874,1.160130 C 1.596403,1.168981 1.588121,1.175334 1.580029,1.179191 C 1.571937,1.183047 1.563213,1.184975 1.553857,1.184975 C 1.534891,1.184975 1.518328,1.177041 1.504167,1.161173 C 1.490006,1.145305 1.482926,1.124918 1.482926,1.100009 C 1.482926,1.075101 1.490765,1.052311 1.506443,1.031639 C 1.522121,1.010966 1.542288,1.000630 1.566943,1.000630 C 1.582242,1.000630 1.594886,1.005498 1.604874,1.015234 L 1.604874,0.983182 C 1.604874,0.963331 1.604400,0.951130 1.603452,0.946578 C 1.602503,0.942027 1.601018,0.938929 1.598995,0.937285 C 1.596972,0.935642 1.594443,0.934820 1.591409,0.934820 C 1.588121,0.934820 1.583759,0.935831 1.578322,0.937854 L 1.575857,0.931216 L 1.627633,0.909975 L 1.636167,0.909975 L 1.636167,1.110820 C 1.636167,1.131176 1.636641,1.143599 1.637590,1.148087 C 1.638538,1.152576 1.640055,1.155705 1.642141,1.157475 C 1.644228,1.159245 1.646661,1.160130 1.649443,1.160130 C 1.652857,1.160130 1.657409,1.159055 1.663098,1.156906 L 1.665184,1.163544 L 1.613598,1.184975 L 1.604874,1.184975 L 1.604874,1.160130 "/>
        <path style="fill:none;stroke-width:0.010000;stroke-linecap:round;stroke-linejoin:round;stroke-opacity:1;stroke:#000000;" d="M 1.604874,1.146854 L 1.604874,1.057337 C 1.604116,1.048739 1.601840,1.040900 1.598047,1.033820 C 1.594253,1.026739 1.589228,1.021397 1.582969,1.017794 C 1.576710,1.014191 1.570610,1.012389 1.564667,1.012389 C 1.553541,1.012389 1.543616,1.017383 1.534891,1.027372 C 1.523386,1.040521 1.517633,1.059739 1.517633,1.085027 C 1.517633,1.110567 1.523196,1.130133 1.534322,1.143725 C 1.545449,1.157317 1.557840,1.164113 1.571495,1.164113 C 1.583001,1.164113 1.594127,1.158360 1.604874,1.146854 "/>
        <path style="fill:none;stroke-width:0.010000;stroke-linecap:round;stroke-linejoin:round;stroke-opacity:1;stroke:#000000;" d="M -0.000100,1.512600 A 0.050000,0.050000 0 0,0 0.049900,1.562600 L 1.948900,1.562600 A 0.050000,0.050000 0 0,0 1.998900,1.512600 L 1.998900,0.926100 A 0.050000,0.050000 0 0,0 1.948900,0.876100 L 0.049900,0.876100 A 0.050000,0.050000 0 0,0 -0.000100,0.926100 L -0.000100,1.512600 "/>
    </g>
</svg>
